<?xml version="1.0" encoding="utf-8"?>
<svg
  xmlns:xlink="http://www.w3.org/1999/xlink"
  xmlns="http://www.w3.org/2000/svg"
  version="1.1"
  viewBox="40 40 530 320"
  fill="none"
  stroke="none"
  stroke-linecap="square"
  stroke-miterlimit="10"
>
  <g>
    <path
      fill="#000000"
      fill-opacity="0.0"
      d="m41.02887 42.755905l0 57.291336l20.598427 0l0 -57.291336z"
      fill-rule="evenodd"
    />
    <path
      fill="#000000"
      d="m52.74674 89.2562l0.03125 -0.15625l1.78125 0.5625l0 5.078125l-0.171875 0l0 -0.25q0 -0.40625 -0.28125 -0.59375q-0.15625 -0.09375 -0.71875 -0.09375l-4.234375 0q-0.609375 0 -0.765625 0.140625q-0.21875 0.1875 -0.21875 0.546875l0 0.25l-0.171875 0l0 -2.96875l0.171875 0q0 0.515625 0.109375 0.734375q0.09375 0.203125 0.25 0.28125q0.15625 0.078125 0.734375 0.078125l4.125 0q0.40625 0 0.5625 -0.078125q0.09375 -0.046875 0.140625 -0.171875q0.046875 -0.125 0.046875 -0.765625l0 -0.46875q0 -0.765625 -0.109375 -1.0625q-0.109375 -0.3125 -0.390625 -0.5625q-0.28125 -0.25 -0.890625 -0.5z"
      fill-rule="nonzero"
    />
    <path
      fill="#000000"
      d="m50.02799 87.36739l1.890625 0l0 -1.046875q0 -0.421875 -0.125 -0.5625q-0.15625 -0.171875 -0.578125 -0.203125l0 -0.125l1.671875 0l0 0.125q-0.34375 0.046875 -0.4375 0.109375q-0.125 0.0625 -0.1875 0.203125q-0.078125 0.140625 -0.078125 0.453125l0 1.046875l1.578125 0q0.3125 0 0.390625 -0.03125q0.0625 -0.03125 0.109375 -0.09375q0.03125 -0.078125 0.03125 -0.265625l0 -0.8125q0 -0.421875 -0.046875 -0.59375q-0.0625 -0.1875 -0.234375 -0.359375q-0.21875 -0.21875 -0.65625 -0.453125l0 -0.140625l1.203125 0.421875l0 3.6875l-0.125 0l0 -0.15625q0 -0.171875 -0.09375 -0.328125q-0.046875 -0.109375 -0.15625 -0.140625q-0.125 -0.046875 -0.46875 -0.046875l-3.125 0q-0.453125 0 -0.5625 0.078125q-0.140625 0.140625 -0.140625 0.4375l0 0.15625l-0.125 0l0 -3.6875l1.046875 -0.0625l0 0.140625q-0.375 0.078125 -0.515625 0.171875q-0.140625 0.078125 -0.21875 0.265625q-0.046875 0.140625 -0.046875 0.5l0 1.3125zm0 -4.397339l1.875 0l0 -0.875q0 -0.296875 -0.125 -0.4375q-0.140625 -0.140625 -0.53125 -0.1875l0 -0.125l1.625 0l0 0.125q-0.28125 0 -0.40625 0.078125q-0.140625 0.0625 -0.203125 0.1875q-0.0625 0.125 -0.0625 0.359375l0 0.875l1.515625 0q0.359375 0 0.46875 -0.046875q0.09375 -0.03125 0.15625 -0.140625q0.09375 -0.15625 0.09375 -0.328125l0 -0.171875l0.125 0l0 2.0625l-0.125 0l0 -0.171875q0 -0.296875 -0.171875 -0.4375q-0.125 -0.078125 -0.546875 -0.078125l-3.109375 0q-0.359375 0 -0.484375 0.046875q-0.078125 0.03125 -0.140625 0.140625q-0.09375 0.15625 -0.09375 0.328125l0 0.171875l-0.125 0l0 -3.578125l1.046875 -0.046875l0 0.125q-0.328125 0.09375 -0.484375 0.21875q-0.15625 0.109375 -0.21875 0.296875q-0.078125 0.171875 -0.078125 0.546875l0 1.0625zm-0.265625 -6.7352295l1.125 -0.0625l0 0.140625q-0.296875 0.03125 -0.421875 0.109375q-0.21875 0.109375 -0.3125 0.296875q-0.09375 0.171875 -0.09375 0.46875l0 0.671875l3.671875 0q0.4375 0 0.546875 -0.09375q0.15625 -0.140625 0.15625 -0.40625l0 -0.171875l0.125 0l0 2.03125l-0.125 0l0 -0.171875q0 -0.296875 -0.1875 -0.421875q-0.109375 -0.078125 -0.515625 -0.078125l-3.671875 0l0 0.578125q0 0.328125 0.046875 0.46875q0.078125 0.1875 0.265625 0.328125q0.1875 0.125 0.515625 0.140625l0 0.140625l-1.125 -0.0625l0 -3.90625z"
      fill-rule="nonzero"
    />
    <path
      fill="#000000"
      d="m48.356113 71.48202l2.578125 0l0 -1.1875q0 -0.421875 -0.171875 -0.609375q-0.1875 -0.1875 -0.734375 -0.25l0 -0.1875l2.21875 0l0 0.1875q-0.375 0 -0.546875 0.09375q-0.1875 0.09375 -0.265625 0.265625q-0.09375 0.15625 -0.09375 0.5l0 1.1875l2.0625 0q0.5 0 0.65625 -0.0625q0.125 -0.046875 0.203125 -0.203125q0.125 -0.21875 0.125 -0.4375l0 -0.25l0.171875 0l0 2.828125l-0.171875 0l0 -0.234375q0 -0.40625 -0.25 -0.59375q-0.15625 -0.109375 -0.734375 -0.109375l-4.25 0q-0.5 0 -0.65625 0.0625q-0.125 0.046875 -0.21875 0.1875q-0.109375 0.21875 -0.109375 0.453125l0 0.234375l-0.171875 0l0 -4.890625l1.4375 -0.0625l0 0.171875q-0.453125 0.125 -0.671875 0.296875q-0.21875 0.15625 -0.3125 0.40625q-0.09375 0.25 -0.09375 0.75l0 1.453125z"
      fill-rule="nonzero"
    />
    <path
      fill="#000000"
      d="m49.65299 65.338936q0 -0.9375 0.71875 -1.6093712q0.703125 -0.6875 1.765625 -0.6875q1.09375 0 1.8125 0.6875q0.71875 0.6874962 0.71875 1.6718712q0 0.984375 -0.703125 1.671875q-0.703125 0.671875 -1.828125 0.671875q-1.140625 0 -1.859375 -0.78125q-0.625 -0.671875 -0.625 -1.625zm0.25 0.078125q0 0.640625 0.484375 1.03125q0.59375 0.484375 1.734375 0.484375q1.1875 0 1.8125 -0.5q0.484375 -0.390625 0.484375 -1.03125q0 -0.671875 -0.53125 -1.109375q-0.53125 -0.4374962 -1.65625 -0.4374962q-1.234375 0 -1.84375 0.4843712q-0.484375 0.390625 -0.484375 1.078125zm-0.140625 -7.798214l0.125 0q0.046875 0.25 0.171875 0.375q0.171875 0.1875 0.53125 0.34375l4.078125 1.671875l0 0.125l-4.140625 1.796875q-0.3125 0.140625 -0.390625 0.203125q-0.109375 0.078125 -0.171875 0.21875q-0.0625 0.125 -0.078125 0.34375l-0.125 0l0 -1.96875l0.125 0q0.03125 0.34375 0.125 0.4375q0.078125 0.09375 0.203125 0.09375q0.171875 0 0.546875 -0.15625l2.8125 -1.21875l-2.78125 -1.140625q-0.40625 -0.15625 -0.5625 -0.15625q-0.109375 0 -0.203125 0.109375q-0.09375 0.09375 -0.125 0.328125q0 0.03125 -0.015625 0.0625l-0.125 0l0 -1.46875zm0.265625 -1.6107178l1.890625 0l0 -1.046875q0 -0.421875 -0.125 -0.5625q-0.15625 -0.171875 -0.578125 -0.203125l0 -0.125l1.671875 0l0 0.125q-0.34375 0.046875 -0.4375 0.109375q-0.125 0.0625 -0.1875 0.203125q-0.078125 0.140625 -0.078125 0.453125l0 1.046875l1.578125 0q0.3125 0 0.390625 -0.03125q0.0625 -0.03125 0.109375 -0.09375q0.03125 -0.078125 0.03125 -0.265625l0 -0.8125q0 -0.421875 -0.046875 -0.59375q-0.0625 -0.1875 -0.234375 -0.359375q-0.21875 -0.21875 -0.65625 -0.453125l0 -0.140625l1.203125 0.421875l0 3.6875l-0.125 0l0 -0.15625q0 -0.171875 -0.09375 -0.328125q-0.046875 -0.109375 -0.15625 -0.140625q-0.125 -0.046875 -0.46875 -0.046875l-3.125 0q-0.453125 0 -0.5625 0.078125q-0.140625 0.140625 -0.140625 0.4375l0 0.15625l-0.125 0l0 -3.6875l1.046875 -0.0625l0 0.140625q-0.375 0.078125 -0.515625 0.171875q-0.140625 0.078125 -0.21875 0.265625q-0.046875 0.140625 -0.046875 0.5l0 1.3125zm2.921875 -6.225464l0 1.859375l0.765625 0.3125q0.28125 0.125 0.40625 0.125q0.109375 0 0.203125 -0.09375q0.078125 -0.109375 0.109375 -0.453125l0.125 0l0 1.5l-0.125 0q-0.0625 -0.296875 -0.140625 -0.390625q-0.171875 -0.171875 -0.6875 -0.390625l-3.953125 -1.6875l0 -0.125l3.984375 -1.671875q0.484375 -0.203125 0.625 -0.359375q0.140625 -0.171875 0.171875 -0.46875l0.125 0l0 1.890625l-0.125 0q-0.015625 -0.28125 -0.09375 -0.375q-0.09375 -0.109375 -0.203125 -0.109375q-0.15625 0 -0.5 0.140625l-0.6875 0.296875zm-0.265625 0.09375l-1.9375 0.8125l1.9375 0.84375l0 -1.65625z"
      fill-rule="nonzero"
    />
    <path
      fill="#000000"
      fill-opacity="0.0"
      d="m41.02887 102.30971l0 63.496063l20.598427 0l0 -63.496063z"
      fill-rule="evenodd"
    />
    <path
      fill="#000000"
      d="m54.55924 154.62807l0 1.75l-3.078125 2.21875q0.015625 0.25 0.015625 0.40625q0 0.0625 0 0.140625q0 0.078125 -0.015625 0.140625l1.921875 0q0.609375 0 0.765625 -0.125q0.21875 -0.1875 0.21875 -0.5625l0 -0.25l0.171875 0l0 2.8125l-0.171875 0l0 -0.25q0 -0.40625 -0.28125 -0.59375q-0.140625 -0.09375 -0.703125 -0.09375l-4.25 0q-0.625 0 -0.765625 0.125q-0.21875 0.1875 -0.21875 0.5625l0 0.25l-0.171875 0l0 -2.390625q0 -1.046875 0.15625 -1.546875q0.140625 -0.5 0.546875 -0.84375q0.40625 -0.34375 0.984375 -0.34375q0.609375 0 1.0625 0.40625q0.4375 0.390625 0.609375 1.21875l1.890625 -1.359375q0.65625 -0.46875 0.875 -0.796875q0.203125 -0.34375 0.265625 -0.875l0.171875 0zm-3.375 4.65625q0 -0.078125 0 -0.140625q0 -0.078125 0 -0.125q0 -0.9375 -0.40625 -1.40625q-0.40625 -0.484375 -1.03125 -0.484375q-0.625 0 -1.0 0.390625q-0.390625 0.375 -0.390625 1.015625q0 0.28125 0.09375 0.75l2.734375 0z"
      fill-rule="nonzero"
    />
    <path
      fill="#000000"
      d="m54.43424 152.479l0.125 0l0 2.046875l-0.125 0l0 -0.15625q0 -0.296875 -0.171875 -0.4375q-0.125 -0.09375 -0.546875 -0.09375l-3.109375 0q-0.359375 0 -0.484375 0.046875q-0.078125 0.046875 -0.140625 0.15625q-0.09375 0.15625 -0.09375 0.328125l0 0.15625l-0.125 0l0 -2.046875l0.125 0l0 0.171875q0 0.296875 0.171875 0.421875q0.125 0.09375 0.546875 0.09375l3.109375 0q0.359375 0 0.46875 -0.046875q0.09375 -0.03125 0.15625 -0.140625q0.09375 -0.15625 0.09375 -0.328125l0 -0.171875zm-4.78125 -4.6330566l1.515625 -0.125l0 0.125q-0.578125 0.1875 -0.859375 0.484375q-0.40625 0.4375 -0.40625 1.109375q0 0.90625 0.71875 1.390625q0.609375 0.40625 1.453125 0.40625q0.6875 0 1.265625 -0.265625q0.5625 -0.265625 0.828125 -0.6875q0.265625 -0.4375 0.265625 -0.890625q0 -0.265625 -0.0625 -0.515625q-0.078125 -0.25 -0.203125 -0.484375l-1.390625 0q-0.359375 0 -0.46875 0.0625q-0.125 0.046875 -0.171875 0.171875q-0.0625 0.109375 -0.0625 0.390625l-0.140625 0l0 -1.859375l0.140625 0l0 0.09375q0 0.28125 0.1875 0.375q0.125 0.078125 0.515625 0.078125l1.46875 0q0.21875 0.40625 0.3125 0.8125q0.109375 0.390625 0.109375 0.875q0 1.390625 -0.890625 2.109375q-0.671875 0.546875 -1.546875 0.546875q-0.625 0 -1.21875 -0.3125q-0.6875 -0.359375 -1.0625 -0.984375q-0.296875 -0.53125 -0.296875 -1.25q0 -0.265625 0.046875 -0.46875q0.03125 -0.21875 0.171875 -0.609375q0.078125 -0.203125 0.078125 -0.265625q0 -0.078125 -0.0625 -0.125q-0.0625 -0.046875 -0.234375 -0.046875l0 -0.140625zm2.328125 -2.2669678l0 -2.234375l-1.375 0q-0.359375 0 -0.484375 0.046875q-0.078125 0.03125 -0.140625 0.140625q-0.09375 0.15625 -0.09375 0.328125l0 0.171875l-0.125 0l0 -2.0625l0.125 0l0 0.171875q0 0.171875 0.078125 0.328125q0.0625 0.109375 0.1875 0.15625q0.109375 0.03125 0.453125 0.03125l3.109375 0q0.359375 0 0.46875 -0.046875q0.09375 -0.03125 0.15625 -0.140625q0.09375 -0.15625 0.09375 -0.328125l0 -0.171875l0.125 0l0 2.0625l-0.125 0l0 -0.171875q0 -0.296875 -0.171875 -0.421875q-0.125 -0.09375 -0.546875 -0.09375l-1.46875 0l0 2.234375l1.46875 0q0.359375 0 0.46875 -0.046875q0.09375 -0.046875 0.15625 -0.15625q0.09375 -0.15625 0.09375 -0.3125l0 -0.1875l0.125 0l0 2.0625l-0.125 0l0 -0.171875q0 -0.296875 -0.171875 -0.421875q-0.125 -0.09375 -0.546875 -0.09375l-3.109375 0q-0.359375 0 -0.484375 0.046875q-0.078125 0.03125 -0.140625 0.140625q-0.09375 0.15625 -0.09375 0.328125l0 0.171875l-0.125 0l0 -2.0625l0.125 0l0 0.1875q0 0.15625 0.078125 0.3125q0.0625 0.109375 0.1875 0.15625q0.109375 0.046875 0.453125 0.046875l1.375 0zm-2.21875 -7.938843l1.125 -0.0625l0 0.140625q-0.296875 0.03125 -0.421875 0.109375q-0.21875 0.109375 -0.3125 0.296875q-0.09375 0.171875 -0.09375 0.46875l0 0.671875l3.671875 0q0.4375 0 0.546875 -0.09375q0.15625 -0.140625 0.15625 -0.40625l0 -0.171875l0.125 0l0 2.03125l-0.125 0l0 -0.171875q0 -0.296875 -0.1875 -0.421875q-0.109375 -0.078125 -0.515625 -0.078125l-3.671875 0l0 0.578125q0 0.328125 0.046875 0.46875q0.078125 0.1875 0.265625 0.328125q0.1875 0.125 0.515625 0.140625l0 0.140625l-1.125 -0.0625l0 -3.90625z"
      fill-rule="nonzero"
    />
    <path
      fill="#000000"
      d="m48.356113 130.40686l2.578125 0l0 -1.1875q0 -0.421875 -0.171875 -0.609375q-0.1875 -0.1875 -0.734375 -0.25l0 -0.1875l2.21875 0l0 0.1875q-0.375 0 -0.546875 0.09375q-0.1875 0.09375 -0.265625 0.265625q-0.09375 0.15625 -0.09375 0.5l0 1.1875l2.0625 0q0.5 0 0.65625 -0.0625q0.125 -0.046875 0.203125 -0.203125q0.125 -0.21875 0.125 -0.4375l0 -0.25l0.171875 0l0 2.828125l-0.171875 0l0 -0.234375q0 -0.40625 -0.25 -0.59375q-0.15625 -0.109375 -0.734375 -0.109375l-4.25 0q-0.5 0 -0.65625 0.0625q-0.125 0.046875 -0.21875 0.1875q-0.109375 0.21875 -0.109375 0.453125l0 0.234375l-0.171875 0l0 -4.890625l1.4375 -0.0625l0 0.171875q-0.453125 0.125 -0.671875 0.296875q-0.21875 0.15625 -0.3125 0.40625q-0.09375 0.25 -0.09375 0.75l0 1.453125z"
      fill-rule="nonzero"
    />
    <path
      fill="#000000"
      d="m49.65299 124.26378q0 -0.9375 0.71875 -1.609375q0.703125 -0.6875 1.765625 -0.6875q1.09375 0 1.8125 0.6875q0.71875 0.6875 0.71875 1.671875q0 0.984375 -0.703125 1.671875q-0.703125 0.671875 -1.828125 0.671875q-1.140625 0 -1.859375 -0.78125q-0.625 -0.671875 -0.625 -1.625zm0.25 0.078125q0 0.640625 0.484375 1.03125q0.59375 0.484375 1.734375 0.484375q1.1875 0 1.8125 -0.5q0.484375 -0.390625 0.484375 -1.03125q0 -0.671875 -0.53125 -1.109375q-0.53125 -0.4375 -1.65625 -0.4375q-1.234375 0 -1.84375 0.484375q-0.484375 0.390625 -0.484375 1.078125zm-0.140625 -7.798218l0.125 0q0.046875 0.25 0.171875 0.375q0.171875 0.1875 0.53125 0.34375l4.078125 1.671875l0 0.125l-4.140625 1.796875q-0.3125 0.140625 -0.390625 0.203125q-0.109375 0.078125 -0.171875 0.21875q-0.0625 0.125 -0.078125 0.34375l-0.125 0l0 -1.96875l0.125 0q0.03125 0.34375 0.125 0.4375q0.078125 0.09375 0.203125 0.09375q0.171875 0 0.546875 -0.15625l2.8125 -1.21875l-2.78125 -1.140625q-0.40625 -0.15625 -0.5625 -0.15625q-0.109375 0 -0.203125 0.109375q-0.09375 0.09375 -0.125 0.328125q0 0.03125 -0.015625 0.0625l-0.125 0l0 -1.46875zm0.265625 -1.6107178l1.890625 0l0 -1.046875q0 -0.421875 -0.125 -0.5625q-0.15625 -0.171875 -0.578125 -0.203125l0 -0.125l1.671875 0l0 0.125q-0.34375 0.046875 -0.4375 0.109375q-0.125 0.0625 -0.1875 0.203125q-0.078125 0.140625 -0.078125 0.453125l0 1.046875l1.578125 0q0.3125 0 0.390625 -0.03125q0.0625 -0.03125 0.109375 -0.09375q0.03125 -0.078125 0.03125 -0.265625l0 -0.8125q0 -0.421875 -0.046875 -0.59375q-0.0625 -0.1875 -0.234375 -0.359375q-0.21875 -0.21875 -0.65625 -0.453125l0 -0.140625l1.203125 0.421875l0 3.6875l-0.125 0l0 -0.15625q0 -0.171875 -0.09375 -0.328125q-0.046875 -0.109375 -0.15625 -0.140625q-0.125 -0.046875 -0.46875 -0.046875l-3.125 0q-0.453125 0 -0.5625 0.078125q-0.140625 0.140625 -0.140625 0.4375l0 0.15625l-0.125 0l0 -3.6875l1.046875 -0.0625l0 0.140625q-0.375 0.078125 -0.515625 0.171875q-0.140625 0.078125 -0.21875 0.265625q-0.046875 0.140625 -0.046875 0.5l0 1.3125zm2.921875 -6.225464l0 1.859375l0.765625 0.3125q0.28125 0.125 0.40625 0.125q0.109375 0 0.203125 -0.09375q0.078125 -0.109375 0.109375 -0.453125l0.125 0l0 1.5l-0.125 0q-0.0625 -0.296875 -0.140625 -0.390625q-0.171875 -0.171875 -0.6875 -0.390625l-3.953125 -1.6875l0 -0.125l3.984375 -1.671875q0.484375 -0.203125 0.625 -0.359375q0.140625 -0.171875 0.171875 -0.46875l0.125 0l0 1.890625l-0.125 0q-0.015625 -0.28125 -0.09375 -0.375q-0.09375 -0.109375 -0.203125 -0.109375q-0.15625 0 -0.5 0.140625l-0.6875 0.296875zm-0.265625 0.09375l-1.9375 0.8125l1.9375 0.84375l0 -1.65625z"
      fill-rule="nonzero"
    />
    <path
      fill="#000000"
      fill-opacity="0.0"
      d="m41.031498 166.64043l0 64.47243l20.598423 0l0 -64.47243z"
      fill-rule="evenodd"
    />
    <path
      fill="#000000"
      d="m54.561863 221.55772l-5.53125 2.546875l4.390625 0q0.609375 0 0.765625 -0.140625q0.203125 -0.171875 0.203125 -0.5625l0 -0.234375l0.171875 0l0 2.28125l-0.171875 0l0 -0.21875q0 -0.421875 -0.265625 -0.59375q-0.15625 -0.109375 -0.703125 -0.109375l-4.296875 0q-0.421875 0 -0.625 0.09375q-0.140625 0.0625 -0.234375 0.25q-0.09375 0.1875 -0.09375 0.578125l-0.171875 0l0 -1.859375l5.140625 -2.375l-5.140625 -2.34375l0 -1.859375l0.171875 0l0 0.21875q0 0.421875 0.25 0.59375q0.15625 0.109375 0.703125 0.109375l4.296875 0q0.609375 0 0.765625 -0.125q0.203125 -0.1875 0.203125 -0.578125l0 -0.21875l0.171875 0l0 2.78125l-0.171875 0l0 -0.234375q0 -0.421875 -0.265625 -0.578125q-0.15625 -0.109375 -0.703125 -0.109375l-4.390625 0l5.53125 2.53125l0 0.15625z"
      fill-rule="nonzero"
    />
    <path
      fill="#000000"
      d="m49.655613 214.14183q0 -0.9375 0.71875 -1.609375q0.703125 -0.6875 1.765625 -0.6875q1.09375 0 1.8125 0.6875q0.71875 0.6875 0.71875 1.671875q0 0.984375 -0.703125 1.671875q-0.703125 0.671875 -1.828125 0.671875q-1.140625 0 -1.859375 -0.78125q-0.625 -0.671875 -0.625 -1.625zm0.25 0.078125q0 0.640625 0.484375 1.03125q0.59375 0.484375 1.734375 0.484375q1.1875 0 1.8125 -0.5q0.484375 -0.390625 0.484375 -1.03125q0 -0.671875 -0.53125 -1.109375q-0.53125 -0.4375 -1.65625 -0.4375q-1.234375 0 -1.84375 0.484375q-0.484375 0.390625 -0.484375 1.078125zm-0.140625 -2.5638428l0 -1.296875l3.59375 -2.9375l-2.765625 0q-0.4375 0 -0.546875 0.09375q-0.15625 0.140625 -0.15625 0.421875l0 0.15625l-0.125 0l0 -1.671875l0.125 0l0 0.171875q0 0.3125 0.1875 0.4375q0.109375 0.078125 0.515625 0.078125l4.046875 0l0 0.125l-3.859375 3.171875l2.953125 0q0.4375 0 0.546875 -0.09375q0.15625 -0.140625 0.15625 -0.421875l0 -0.171875l0.125 0l0 1.671875l-0.125 0l0 -0.171875q0 -0.296875 -0.1875 -0.421875q-0.109375 -0.078125 -0.515625 -0.078125l-3.34375 0q-0.25 0.203125 -0.3125 0.3125q-0.078125 0.109375 -0.15625 0.3125q-0.03125 0.109375 -0.03125 0.3125l-0.125 0zm-0.109375 -7.985718q0 -0.9375 0.71875 -1.609375q0.703125 -0.6875 1.765625 -0.6875q1.09375 0 1.8125 0.6875q0.71875 0.6875 0.71875 1.671875q0 0.984375 -0.703125 1.671875q-0.703125 0.671875 -1.828125 0.671875q-1.140625 0 -1.859375 -0.78125q-0.625 -0.671875 -0.625 -1.625zm0.25 0.078125q0 0.640625 0.484375 1.03125q0.59375 0.484375 1.734375 0.484375q1.1875 0 1.8125 -0.5q0.484375 -0.390625 0.484375 -1.03125q0 -0.671875 -0.53125 -1.109375q-0.53125 -0.4375 -1.65625 -0.4375q-1.234375 0 -1.84375 0.484375q-0.484375 0.390625 -0.484375 1.078125z"
      fill-rule="nonzero"
    />
    <path
      fill="#000000"
      d="m51.968113 200.68468l0 -2.5l0.734375 0l0 2.5l-0.734375 0zm-3.609375 -4.929062l2.578125 0l0 -1.1875q0 -0.421875 -0.171875 -0.609375q-0.1875 -0.1875 -0.734375 -0.25l0 -0.1875l2.21875 0l0 0.1875q-0.375 0 -0.546875 0.09375q-0.1875 0.09375 -0.265625 0.265625q-0.09375 0.15625 -0.09375 0.5l0 1.1875l2.0625 0q0.5 0 0.65625 -0.0625q0.125 -0.046875 0.203125 -0.203125q0.125 -0.21875 0.125 -0.4375l0 -0.25l0.171875 0l0 2.828125l-0.171875 0l0 -0.234375q0 -0.40625 -0.25 -0.59375q-0.15625 -0.109375 -0.734375 -0.109375l-4.25 0q-0.5 0 -0.65625 0.0625q-0.125 0.046875 -0.21875 0.1875q-0.109375 0.21875 -0.109375 0.453125l0 0.234375l-0.171875 0l0 -4.890625l1.4375 -0.0625l0 0.171875q-0.453125 0.125 -0.671875 0.296875q-0.21875 0.15625 -0.3125 0.40625q-0.09375 0.25 -0.09375 0.75l0 1.453125z"
      fill-rule="nonzero"
    />
    <path
      fill="#000000"
      d="m49.655613 189.61253q0 -0.9375 0.71875 -1.609375q0.703125 -0.6875 1.765625 -0.6875q1.09375 0 1.8125 0.6875q0.71875 0.6875 0.71875 1.671875q0 0.984375 -0.703125 1.671875q-0.703125 0.671875 -1.828125 0.671875q-1.140625 0 -1.859375 -0.78125q-0.625 -0.671875 -0.625 -1.625zm0.25 0.078125q0 0.640625 0.484375 1.03125q0.59375 0.484375 1.734375 0.484375q1.1875 0 1.8125 -0.5q0.484375 -0.390625 0.484375 -1.03125q0 -0.671875 -0.53125 -1.109375q-0.53125 -0.4375 -1.65625 -0.4375q-1.234375 0 -1.84375 0.484375q-0.484375 0.390625 -0.484375 1.078125zm-0.140625 -7.798218l0.125 0q0.046875 0.25 0.171875 0.375q0.171875 0.1875 0.53125 0.34375l4.078125 1.671875l0 0.125l-4.140625 1.796875q-0.3125 0.140625 -0.390625 0.203125q-0.109375 0.078125 -0.171875 0.21875q-0.0625 0.125 -0.078125 0.34375l-0.125 0l0 -1.96875l0.125 0q0.03125 0.34375 0.125 0.4375q0.078125 0.09375 0.203125 0.09375q0.171875 0 0.546875 -0.15625l2.8125 -1.21875l-2.78125 -1.140625q-0.40625 -0.15625 -0.5625 -0.15625q-0.109375 0 -0.203125 0.109375q-0.09375 0.09375 -0.125 0.328125q0 0.03125 -0.015625 0.0625l-0.125 0l0 -1.46875zm0.265625 -1.6107178l1.890625 0l0 -1.046875q0 -0.421875 -0.125 -0.5625q-0.15625 -0.171875 -0.578125 -0.203125l0 -0.125l1.671875 0l0 0.125q-0.34375 0.046875 -0.4375 0.109375q-0.125 0.0625 -0.1875 0.203125q-0.078125 0.140625 -0.078125 0.453125l0 1.046875l1.578125 0q0.3125 0 0.390625 -0.03125q0.0625 -0.03125 0.109375 -0.09375q0.03125 -0.078125 0.03125 -0.265625l0 -0.8125q0 -0.421875 -0.046875 -0.59375q-0.0625 -0.1875 -0.234375 -0.359375q-0.21875 -0.21875 -0.65625 -0.453125l0 -0.140625l1.203125 0.421875l0 3.6875l-0.125 0l0 -0.15625q0 -0.171875 -0.09375 -0.328125q-0.046875 -0.109375 -0.15625 -0.140625q-0.125 -0.046875 -0.46875 -0.046875l-3.125 0q-0.453125 0 -0.5625 0.078125q-0.140625 0.140625 -0.140625 0.4375l0 0.15625l-0.125 0l0 -3.6875l1.046875 -0.0625l0 0.140625q-0.375 0.078125 -0.515625 0.171875q-0.140625 0.078125 -0.21875 0.265625q-0.046875 0.140625 -0.046875 0.5l0 1.3125zm2.921875 -6.225464l0 1.859375l0.765625 0.3125q0.28125 0.125 0.40625 0.125q0.109375 0 0.203125 -0.09375q0.078125 -0.109375 0.109375 -0.453125l0.125 0l0 1.5l-0.125 0q-0.0625 -0.296875 -0.140625 -0.390625q-0.171875 -0.171875 -0.6875 -0.390625l-3.953125 -1.6875l0 -0.125l3.984375 -1.671875q0.484375 -0.203125 0.625 -0.359375q0.140625 -0.171875 0.171875 -0.46875l0.125 0l0 1.890625l-0.125 0q-0.015625 -0.28125 -0.09375 -0.375q-0.09375 -0.109375 -0.203125 -0.109375q-0.15625 0 -0.5 0.140625l-0.6875 0.296875zm-0.265625 0.09375l-1.9375 0.8125l1.9375 0.84375l0 -1.65625z"
      fill-rule="nonzero"
    />
    <path
      fill="#000000"
      fill-opacity="0.0"
      d="m41.031498 227.5748l0 65.85828l20.598423 0l0 -65.85828z"
      fill-rule="evenodd"
    />
    <path
      fill="#000000"
      d="m47.999363 277.62222l0.171875 0q0 0.25 0.09375 0.421875q0.09375 0.15625 0.34375 0.296875q0.171875 0.09375 0.8125 0.296875l5.296875 1.84375l0 0.1875l-4.203125 1.5l4.203125 1.484375l0 0.171875l-5.46875 1.953125q-0.609375 0.21875 -0.71875 0.28125q-0.171875 0.09375 -0.265625 0.265625q-0.09375 0.15625 -0.09375 0.453125l-0.171875 0l0 -2.4375l0.171875 0l0 0.109375q0 0.265625 0.125 0.40625q0.109375 0.125 0.265625 0.125q0.171875 0 0.78125 -0.203125l3.6875 -1.296875l-3.125 -1.09375l-0.5625 0.1875l-0.4375 0.15625q-0.234375 0.109375 -0.421875 0.234375q-0.09375 0.0625 -0.15625 0.15625q-0.09375 0.125 -0.125 0.234375q-0.03125 0.09375 -0.03125 0.296875l-0.171875 0l0 -2.5625l0.171875 0l0 0.171875q0 0.28125 0.125 0.40625q0.109375 0.125 0.3125 0.125q0.234375 0 0.859375 -0.21875l3.5625 -1.265625l-3.609375 -1.25q-0.609375 -0.203125 -0.84375 -0.203125q-0.109375 0 -0.203125 0.078125q-0.09375 0.0625 -0.140625 0.15625q-0.0625 0.1875 -0.0625 0.484375l-0.171875 0l0 -1.953125z"
      fill-rule="nonzero"
    />
    <path
      fill="#000000"
      d="m54.436863 275.30435l0.125 0l0 2.046875l-0.125 0l0 -0.15625q0 -0.296875 -0.171875 -0.4375q-0.125 -0.09375 -0.546875 -0.09375l-3.109375 0q-0.359375 0 -0.484375 0.046875q-0.078125 0.046875 -0.140625 0.15625q-0.09375 0.15625 -0.09375 0.328125l0 0.15625l-0.125 0l0 -2.046875l0.125 0l0 0.171875q0 0.296875 0.171875 0.421875q0.125 0.09375 0.546875 0.09375l3.109375 0q0.359375 0 0.46875 -0.046875q0.09375 -0.03125 0.15625 -0.140625q0.09375 -0.15625 0.09375 -0.328125l0 -0.171875zm0.125 -0.30493164l-0.125 0l0 -0.171875q0 -0.3125 -0.203125 -0.4375q-0.109375 -0.078125 -0.515625 -0.078125l-3.109375 0q-0.453125 0 -0.5625 0.09375q-0.15625 0.140625 -0.15625 0.421875l0 0.171875l-0.125 0l0 -1.953125q0 -1.078125 0.25 -1.640625q0.234375 -0.5625 0.8125 -0.890625q0.5625 -0.34375 1.3125 -0.34375q1.0 0 1.671875 0.609375q0.75 0.671875 0.75 2.078125l0 2.140625zm-0.34375 -1.375q0.09375 -0.4375 0.09375 -0.75q0 -0.8125 -0.578125 -1.359375q-0.578125 -0.546875 -1.5625 -0.546875q-1.0 0 -1.5625 0.546875q-0.578125 0.546875 -0.578125 1.390625q0 0.3125 0.109375 0.71875l4.078125 0zm-4.1875 -5.251343l1.890625 0l0 -1.046875q0 -0.421875 -0.125 -0.5625q-0.15625 -0.171875 -0.578125 -0.203125l0 -0.125l1.671875 0l0 0.125q-0.34375 0.046875 -0.4375 0.109375q-0.125 0.0625 -0.1875 0.203125q-0.078125 0.140625 -0.078125 0.453125l0 1.046875l1.578125 0q0.3125 0 0.390625 -0.03125q0.0625 -0.03125 0.109375 -0.09375q0.03125 -0.078125 0.03125 -0.265625l0 -0.8125q0 -0.421875 -0.046875 -0.59375q-0.0625 -0.1875 -0.234375 -0.359375q-0.21875 -0.21875 -0.65625 -0.453125l0 -0.140625l1.203125 0.421875l0 3.6875l-0.125 0l0 -0.15625q0 -0.171875 -0.09375 -0.328125q-0.046875 -0.109375 -0.15625 -0.140625q-0.125 -0.046875 -0.46875 -0.046875l-3.125 0q-0.453125 0 -0.5625 0.078125q-0.140625 0.140625 -0.140625 0.4375l0 0.15625l-0.125 0l0 -3.6875l1.046875 -0.0625l0 0.140625q-0.375 0.078125 -0.515625 0.171875q-0.140625 0.078125 -0.21875 0.265625q-0.046875 0.140625 -0.046875 0.5l0 1.3125z"
      fill-rule="nonzero"
    />
    <path
      fill="#000000"
      d="m47.843113 258.43277l2.265625 0l0 0.171875q-0.640625 0.09375 -1.03125 0.328125q-0.390625 0.21875 -0.609375 0.640625q-0.234375 0.40625 -0.234375 0.859375q0 0.5 0.3125 0.828125q0.296875 0.328125 0.6875 0.328125q0.296875 0 0.546875 -0.203125q0.375 -0.3125 0.96875 -1.4375q0.5 -0.921875 0.765625 -1.25q0.265625 -0.34375 0.625 -0.515625q0.359375 -0.1875 0.75 -0.1875q0.734375 0 1.28125 0.578125q0.546875 0.578125 0.546875 1.484375q0 0.296875 -0.046875 0.546875q-0.03125 0.140625 -0.171875 0.625q-0.15625 0.46875 -0.15625 0.59375q0 0.125 0.078125 0.203125q0.0625 0.0625 0.296875 0.09375l0 0.171875l-2.265625 0l0 -0.171875q0.71875 -0.125 1.078125 -0.34375q0.34375 -0.21875 0.578125 -0.65625q0.21875 -0.4375 0.21875 -0.953125q0 -0.609375 -0.3125 -0.953125q-0.328125 -0.359375 -0.75 -0.359375q-0.25 0 -0.5 0.140625q-0.25 0.125 -0.453125 0.40625q-0.140625 0.1875 -0.609375 1.03125q-0.484375 0.84375 -0.765625 1.203125q-0.28125 0.359375 -0.609375 0.546875q-0.34375 0.171875 -0.75 0.171875q-0.71875 0 -1.21875 -0.53125q-0.515625 -0.546875 -0.515625 -1.390625q0 -0.515625 0.25 -1.109375q0.125 -0.265625 0.125 -0.375q0 -0.125 -0.0625 -0.203125q-0.078125 -0.09375 -0.3125 -0.140625l0 -0.171875z"
      fill-rule="nonzero"
    />
    <path
      fill="#000000"
      d="m49.764988 253.27406l1.125 -0.0625l0 0.140625q-0.296875 0.03125 -0.421875 0.109375q-0.21875 0.109375 -0.3125 0.296875q-0.09375 0.171875 -0.09375 0.46875l0 0.671875l3.671875 0q0.4375 0 0.546875 -0.09375q0.15625 -0.140625 0.15625 -0.40625l0 -0.171875l0.125 0l0 2.0312653l-0.125 0l0 -0.171875q0 -0.29689026 -0.1875 -0.42189026q-0.109375 -0.078125 -0.515625 -0.078125l-3.671875 0l0 0.57814026q0 0.328125 0.046875 0.46875q0.078125 0.1875 0.265625 0.328125q0.1875 0.125 0.515625 0.140625l0 0.140625l-1.125 -0.0625l0 -3.9062653zm0.265625 -1.7567139l1.890625 0l0 -1.046875q0 -0.421875 -0.125 -0.5625q-0.15625 -0.171875 -0.578125 -0.203125l0 -0.125l1.671875 0l0 0.125q-0.34375 0.046875 -0.4375 0.109375q-0.125 0.0625 -0.1875 0.203125q-0.078125 0.140625 -0.078125 0.453125l0 1.046875l1.578125 0q0.3125 0 0.390625 -0.03125q0.0625 -0.03125 0.109375 -0.09375q0.03125 -0.078125 0.03125 -0.265625l0 -0.8125q0 -0.421875 -0.046875 -0.59375q-0.0625 -0.1875 -0.234375 -0.359375q-0.21875 -0.21875 -0.65625 -0.453125l0 -0.140625l1.203125 0.421875l0 3.6875l-0.125 0l0 -0.15625q0 -0.171875 -0.09375 -0.328125q-0.046875 -0.109375 -0.15625 -0.140625q-0.125 -0.046875 -0.46875 -0.046875l-3.125 0q-0.453125 0 -0.5625 0.078125q-0.140625 0.140625 -0.140625 0.4375l0 0.15625l-0.125 0l0 -3.6875l1.046875 -0.0625l0 0.140625q-0.375 0.078125 -0.515625 0.171875q-0.140625 0.078125 -0.21875 0.265625q-0.046875 0.140625 -0.046875 0.5l0 1.3125zm4.53125 -7.819214l0 1.28125l-2.25 1.625q0.015625 0.1875 0.015625 0.296875q0 0.046875 0 0.109375q0 0.046875 -0.015625 0.109375l1.40625 0q0.453125 0 0.5625 -0.109375q0.15625 -0.125 0.15625 -0.40625l0 -0.1875l0.125 0l0 2.0625l-0.125 0l0 -0.171875q0 -0.3125 -0.203125 -0.4375q-0.109375 -0.078125 -0.515625 -0.078125l-3.109375 0q-0.453125 0 -0.5625 0.09375q-0.15625 0.140625 -0.15625 0.421875l0 0.171875l-0.125 0l0 -1.75q0 -0.765625 0.109375 -1.125q0.109375 -0.359375 0.40625 -0.609375q0.296875 -0.265625 0.71875 -0.265625q0.4375 0 0.765625 0.296875q0.328125 0.28125 0.453125 0.890625l1.390625 -0.984375q0.46875 -0.34375 0.625 -0.578125q0.15625 -0.25 0.203125 -0.65625l0.125 0zm-2.46875 3.421875q0 -0.078125 0 -0.125q0 -0.046875 0 -0.078125q0 -0.6875 -0.296875 -1.03125q-0.296875 -0.359375 -0.75 -0.359375q-0.453125 0 -0.734375 0.28125q-0.28125 0.28125 -0.28125 0.75q0 0.203125 0.0625 0.5625l2.0 0zm-2.0625 -4.8669434l1.890625 0l0 -1.046875q0 -0.421875 -0.125 -0.5625q-0.15625 -0.171875 -0.578125 -0.203125l0 -0.125l1.671875 0l0 0.125q-0.34375 0.046875 -0.4375 0.109375q-0.125 0.0625 -0.1875 0.203125q-0.078125 0.140625 -0.078125 0.453125l0 1.046875l1.578125 0q0.3125 0 0.390625 -0.03125q0.0625 -0.03125 0.109375 -0.09375q0.03125 -0.078125 0.03125 -0.265625l0 -0.8125q0 -0.421875 -0.046875 -0.59375q-0.0625 -0.1875 -0.234375 -0.359375q-0.21875 -0.21875 -0.65625 -0.453125l0 -0.140625l1.203125 0.421875l0 3.6875l-0.125 0l0 -0.15625q0 -0.171875 -0.09375 -0.328125q-0.046875 -0.109375 -0.15625 -0.140625q-0.125 -0.046875 -0.46875 -0.046875l-3.125 0q-0.453125 0 -0.5625 0.078125q-0.140625 0.140625 -0.140625 0.4375l0 0.15625l-0.125 0l0 -3.6875l1.046875 -0.0625l0 0.140625q-0.375 0.078125 -0.515625 0.171875q-0.140625 0.078125 -0.21875 0.265625q-0.046875 0.140625 -0.046875 0.5l0 1.3125zm-0.375 -5.569214q0 -0.9375 0.71875 -1.609375q0.703125 -0.6875 1.765625 -0.6875q1.09375 0 1.8125 0.6875q0.71875 0.6875 0.71875 1.671875q0 0.984375 -0.703125 1.671875q-0.703125 0.671875 -1.828125 0.671875q-1.140625 0 -1.859375 -0.78125q-0.625 -0.671875 -0.625 -1.625zm0.25 0.078125q0 0.640625 0.484375 1.03125q0.59375 0.484375 1.734375 0.484375q1.1875 0 1.8125 -0.5q0.484375 -0.390625 0.484375 -1.03125q0 -0.671875 -0.53125 -1.109375q-0.53125 -0.4375 -1.65625 -0.4375q-1.234375 0 -1.84375 0.484375q-0.484375 0.390625 -0.484375 1.078125z"
      fill-rule="nonzero"
    />
    <path
      fill="#000000"
      fill-opacity="0.0"
      d="m41.031498 292.5761l0 61.5748l20.598423 0l0 -61.5748z"
      fill-rule="evenodd"
    />
    <path
      fill="#000000"
      d="m55.171238 332.62054l-2.1875 3.09375l2.1875 3.078125l-3.515625 -1.21875l-2.171875 3.03125l0 -3.765625l-3.5625 -1.125l3.5625 -1.125l0 -3.78125l2.171875 3.03125l3.515625 -1.21875z"
      fill-rule="nonzero"
    />
    <path
      fill="#000000"
      d="m47.905613 324.24945q-0.0625 -1.578125 0.921875 -2.546875q0.96875 -0.984375 2.421875 -0.984375q1.25 0 2.203125 0.734375q1.265625 0.96875 1.265625 2.734375q0 1.765625 -1.203125 2.734375q-0.953125 0.765625 -2.25 0.765625q-1.46875 0 -2.4375 -0.984375q-0.984375 -1.0 -0.921875 -2.453125zm0.3125 -0.0625q0 0.90625 0.90625 1.375q0.765625 0.375 2.171875 0.375q1.6875 0 2.484375 -0.59375q0.5625 -0.40625 0.5625 -1.140625q0 -0.5 -0.234375 -0.84375q-0.3125 -0.421875 -0.984375 -0.65625q-0.6875 -0.234375 -1.78125 -0.234375q-1.3125 0 -1.953125 0.25q-0.640625 0.234375 -0.90625 0.609375q-0.265625 0.375 -0.265625 0.859375z"
      fill-rule="nonzero"
    />
    <path
      fill="#000000"
      d="m49.764988 320.18814l0 -2.46875l0.125 0l0 0.109375q0 0.28125 0.0625 0.390625q0.0625 0.109375 0.171875 0.15625q0.09375 0.03125 0.5 0.03125l2.34375 0q0.65625 0 0.859375 -0.09375q0.203125 -0.09375 0.34375 -0.3125q0.140625 -0.234375 0.140625 -0.5625q0 -0.390625 -0.171875 -0.65625q-0.171875 -0.28125 -0.484375 -0.421875q-0.3125 -0.140625 -1.078125 -0.140625l-1.953125 0q-0.328125 0 -0.453125 0.078125q-0.140625 0.0625 -0.203125 0.15625q-0.078125 0.171875 -0.078125 0.453125l-0.125 0l0 -1.65625l0.125 0l0 0.09375q0 0.203125 0.09375 0.34375q0.078125 0.125 0.234375 0.1875q0.109375 0.046875 0.40625 0.046875l1.828125 0q0.84375 0 1.21875 0.109375q0.375 0.109375 0.6875 0.546875q0.3125 0.4375 0.3125 1.171875q0 0.625 -0.15625 0.96875q-0.234375 0.46875 -0.578125 0.65625q-0.359375 0.1875 -0.96875 0.1875l-2.34375 0q-0.40625 0 -0.5 0.046875q-0.109375 0.046875 -0.171875 0.171875q-0.0625 0.109375 -0.0625 0.40625l-0.125 0zm2.609375 -6.985718l1.34375 0q0.390625 0 0.5 -0.046875q0.09375 -0.046875 0.15625 -0.171875q0.0625 -0.125 0.0625 -0.453125l0.125 0l0 2.453125l-0.125 0q0 -0.328125 -0.0625 -0.4375q-0.0625 -0.125 -0.15625 -0.171875q-0.109375 -0.046875 -0.5 -0.046875l-3.109375 0q-0.390625 0 -0.484375 0.046875q-0.109375 0.046875 -0.171875 0.171875q-0.0625 0.109375 -0.0625 0.4375l-0.125 0l0 -2.21875q0 -0.875 0.125 -1.28125q0.109375 -0.40625 0.4375 -0.65625q0.328125 -0.25 0.765625 -0.25q0.515625 0 0.875 0.375q0.21875 0.25 0.328125 0.6875l1.625 -1.15625q0.3125 -0.234375 0.390625 -0.328125q0.109375 -0.140625 0.125 -0.328125l0.125 0l0 1.515625l-2.1875 1.546875l0 0.3125zm-2.359375 0l2.109375 0l0 -0.203125q0 -0.5 -0.09375 -0.734375q-0.09375 -0.25 -0.328125 -0.390625q-0.234375 -0.140625 -0.609375 -0.140625q-0.546875 0 -0.8125 0.265625q-0.265625 0.25 -0.265625 0.828125l0 0.375zm-0.359375 -6.720093l1.59375 -0.03125l0 0.140625q-0.59375 0.09375 -0.953125 0.5q-0.375 0.40625 -0.375 0.875q0 0.359375 0.1875 0.578125q0.1875 0.203125 0.453125 0.203125q0.15625 0 0.28125 -0.078125q0.15625 -0.109375 0.328125 -0.328125q0.109375 -0.171875 0.40625 -0.765625q0.421875 -0.84375 0.78125 -1.140625q0.375 -0.28125 0.84375 -0.28125q0.609375 0 1.046875 0.46875q0.421875 0.46875 0.421875 1.1875q0 0.21875 -0.046875 0.421875q-0.046875 0.203125 -0.171875 0.515625q-0.0625 0.15625 -0.0625 0.265625q0 0.09375 0.078125 0.203125q0.0625 0.109375 0.203125 0.171875l0 0.125l-1.8125 0l0 -0.125q0.765625 -0.15625 1.171875 -0.59375q0.390625 -0.453125 0.390625 -0.96875q0 -0.390625 -0.203125 -0.625q-0.21875 -0.25 -0.515625 -0.25q-0.15625 0 -0.3125 0.09375q-0.171875 0.09375 -0.3125 0.28125q-0.140625 0.1875 -0.375 0.640625q-0.328125 0.65625 -0.546875 0.953125q-0.234375 0.28125 -0.5 0.4375q-0.28125 0.15625 -0.625 0.15625q-0.578125 0 -0.96875 -0.421875q-0.40625 -0.421875 -0.40625 -1.0625q0 -0.234375 0.046875 -0.453125q0.046875 -0.171875 0.171875 -0.40625q0.109375 -0.234375 0.109375 -0.34375q0 -0.078125 -0.046875 -0.125q-0.0625 -0.0625 -0.28125 -0.109375l0 -0.109375z"
      fill-rule="nonzero"
    />
    <path
      fill="#000000"
      fill-opacity="0.0"
      d="m61.6299 40.577545l80.79686 0l0 60.598206l-80.79686 0z"
      fill-rule="evenodd"
    />
    <g
      transform="matrix(0.05610892388451444 0.0 0.0 0.056109448818897636 61.6299031496063 40.5775469816273)"
    >
      <clipPath id="g3d53538a923_0_134.1">
        <path
          d="m0 1.1368684E-13l1440.0 0l0 1080.0l-1440.0 0z"
          clip-rule="evenodd"
        />
      </clipPath>
      <image
        clip-path="url(#g3d53538a923_0_134.1)"
        fill="#000"
        width="1440.0"
        height="1080.0"
        x="0.0"
        y="0.0"
        preserveAspectRatio="none"
        xlink:href="alg_viz_img_001.webp"
      />
    </g>
    <path
      fill="#000000"
      fill-opacity="0.0"
      d="m231.28394 40.57783l80.796844 0l0 60.597637l-80.796844 0z"
      fill-rule="evenodd"
    />
    <g
      transform="matrix(0.05610892388451444 0.0 0.0 0.05610892388451444 231.28392860892387 40.57783044619422)"
    >
      <clipPath id="g3d53538a923_0_134.2">
        <path
          d="m9.094947E-13 0l1440.0 0l0 1080.0l-1440.0 0z"
          clip-rule="evenodd"
        />
      </clipPath>
      <image
        clip-path="url(#g3d53538a923_0_134.2)"
        fill="#000"
        width="1440.0"
        height="1080.0"
        x="0.0"
        y="0.0"
        preserveAspectRatio="none"
        xlink:href="alg_viz_img_002.webp"
      />
    </g>
    <path
      fill="#000000"
      fill-opacity="0.0"
      d="m400.93787 40.57783l80.796875 0l0 60.597637l-80.796875 0z"
      fill-rule="evenodd"
    />
    <g
      transform="matrix(0.05610892388451444 0.0 0.0 0.05610892388451444 400.9378787401575 40.57783044619422)"
    >
      <clipPath id="g3d53538a923_0_134.3">
        <path
          d="m9.094947E-13 0l1440.0 0l0 1080.0l-1440.0 0z"
          clip-rule="evenodd"
        />
      </clipPath>
      <image
        clip-path="url(#g3d53538a923_0_134.3)"
        fill="#000"
        width="1440.0"
        height="1080.0"
        x="0.0"
        y="0.0"
        preserveAspectRatio="none"
        xlink:href="alg_viz_img_003.webp"
      />
    </g>
    <path
      fill="#000000"
      fill-opacity="0.0"
      d="m570.59174 40.57783l80.796875 0l0 60.597637l-80.796875 0z"
      fill-rule="evenodd"
    />
    <!-- <g transform="matrix(0.05610892388451444 0.0 0.0 0.05610892388451444 570.5917414698163 40.57783044619422)">
      <clipPath id="g3d53538a923_0_134.4">
        <path d="m1.8189894E-12 0l1440.0 0l0 1080.0l-1440.0 0z" clip-rule="evenodd"/>
      </clipPath>
      <image clip-path="url(#g3d53538a923_0_134.4)" fill="#000" width="1440.0" height="1080.0" x="0.0" y="0.0" preserveAspectRatio="none" xlink:href="alg_viz_img_004.webp"/>
    </g> -->
    <path
      fill="#000000"
      fill-opacity="0.0"
      d="m61.629585 103.758125l80.79798 0l0 60.599052l-80.79798 0z"
      fill-rule="evenodd"
    />
    <g
      transform="matrix(0.05610971128608924 0.0 0.0 0.05611023622047244 61.62958346456693 103.75812677165354)"
    >
      <clipPath id="g3d53538a923_0_134.5">
        <path d="m0 0l1440.0 0l0 1080.0l-1440.0 0z" clip-rule="evenodd" />
      </clipPath>
      <image
        clip-path="url(#g3d53538a923_0_134.5)"
        fill="#000"
        width="1440.0"
        height="1080.0"
        x="0.0"
        y="0.0"
        preserveAspectRatio="none"
        xlink:href="alg_viz_img_005.webp"
      />
    </g>
    <path
      fill="#000000"
      fill-opacity="0.0"
      d="m231.28348 103.75852l80.79797 0l0 60.598488l-80.79797 0z"
      fill-rule="evenodd"
    />
    <g
      transform="matrix(0.05610971128608924 0.0 0.0 0.05610971128608924 231.28347664041993 103.75852572178478)"
    >
      <clipPath id="g3d53538a923_0_134.6">
        <path d="m0 0l1440.0 0l0 1080.0l-1440.0 0z" clip-rule="evenodd" />
      </clipPath>
      <image
        clip-path="url(#g3d53538a923_0_134.6)"
        fill="#000"
        width="1440.0"
        height="1080.0"
        x="0.0"
        y="0.0"
        preserveAspectRatio="none"
        xlink:href="alg_viz_img_006.webp"
      />
    </g>
    <path
      fill="#000000"
      fill-opacity="0.0"
      d="m400.9371 103.759384l80.79797 0l0 60.598206l-80.79797 0z"
      fill-rule="evenodd"
    />
    <g
      transform="matrix(0.05610971128608924 0.0 0.0 0.056109448818897636 400.9370892388451 103.75938110236221)"
    >
      <clipPath id="g3d53538a923_0_134.7">
        <path
          d="m-9.094947E-13 0l1440.0 0l0 1080.0l-1440.0 0z"
          clip-rule="evenodd"
        />
      </clipPath>
      <image
        clip-path="url(#g3d53538a923_0_134.7)"
        fill="#000"
        width="1440.0"
        height="1080.0"
        x="0.0"
        y="0.0"
        preserveAspectRatio="none"
        xlink:href="alg_viz_img_007.webp"
      />
    </g>
    <path
      fill="#000000"
      fill-opacity="0.0"
      d="m570.5906 103.75912l80.79797 0l0 60.597923l-80.79797 0z"
      fill-rule="evenodd"
    />
    <path
      fill="#000000"
      fill-opacity="0.0"
      d="m61.630405 293.30365l80.79799 0l0 60.598206l-80.79799 0z"
      fill-rule="evenodd"
    />
    <g
      transform="matrix(0.05610971128608924 0.0 0.0 0.056109448818897636 61.630404199475066 293.30364409448816)"
    >
      <clipPath id="g3d53538a923_0_134.9">
        <path d="m0 0l1440.0 0l0 1080.0l-1440.0 0z" clip-rule="evenodd" />
      </clipPath>
      <image
        clip-path="url(#g3d53538a923_0_134.9)"
        fill="#000"
        width="1440.0"
        height="1080.0"
        x="0.0"
        y="0.0"
        preserveAspectRatio="none"
        xlink:href="alg_viz_img_009.webp"
      />
    </g>
    <path
      fill="#000000"
      fill-opacity="0.0"
      d="m231.28355 293.30432l80.79799 0l0 60.5979l-80.79799 0z"
      fill-rule="evenodd"
    />
    <g
      transform="matrix(0.05610971128608924 0.0 0.0 0.05610918635170604 231.28355380577426 293.3043060367454)"
    >
      <clipPath id="g3d53538a923_0_134.10">
        <path d="m0 0l1440.0 0l0 1080.0l-1440.0 0z" clip-rule="evenodd" />
      </clipPath>
      <image
        clip-path="url(#g3d53538a923_0_134.10)"
        fill="#000"
        width="1440.0"
        height="1080.0"
        x="0.0"
        y="0.0"
        preserveAspectRatio="none"
        xlink:href="alg_viz_img_010.webp"
      />
    </g>
    <path
      fill="#000000"
      fill-opacity="0.0"
      d="m400.93704 293.30432l80.79797 0l0 60.5968l-80.79797 0z"
      fill-rule="evenodd"
    />
    <g
      transform="matrix(0.05610971128608924 0.0 0.0 0.05610813648293963 400.93703070866144 293.3043320209974)"
    >
      <clipPath id="g3d53538a923_0_134.11">
        <path
          d="m-9.094947E-13 9.094947E-13l1440.0 0l0 1080.0l-1440.0 0z"
          clip-rule="evenodd"
        />
      </clipPath>
      <image
        clip-path="url(#g3d53538a923_0_134.11)"
        fill="#000"
        width="1440.0"
        height="1080.0"
        x="0.0"
        y="0.0"
        preserveAspectRatio="none"
        xlink:href="alg_viz_img_011.webp"
      />
    </g>
    <path
      fill="#000000"
      fill-opacity="0.0"
      d="m570.59064 293.30515l80.79797 0l0 60.59848l-80.79797 0z"
      fill-rule="evenodd"
    />
    <!-- <g transform="matrix(0.05610971128608924 0.0 0.0 0.05610971128608924 570.5906267716535 293.305137007874)">
      <clipPath id="g3d53538a923_0_134.12">
        <path d="m-1.8189894E-12 0l1440.0 0l0 1080.0l-1440.0 0z" clip-rule="evenodd"/>
      </clipPath>
      <image clip-path="url(#g3d53538a923_0_134.12)" fill="#000" width="1440.0" height="1080.0" x="0.0" y="0.0" preserveAspectRatio="none" xlink:href="alg_viz_img_012.webp"/>
    </g> -->
    <path
      fill="#000000"
      fill-opacity="0.0"
      d="m61.628998 230.12038l80.79799 0l0 60.59877l-80.79799 0z"
      fill-rule="evenodd"
    />
    <g
      transform="matrix(0.05610971128608924 0.0 0.0 0.05610997375328084 61.62899895013123 230.12037086614174)"
    >
      <clipPath id="g3d53538a923_0_134.13">
        <path d="m0 0l1440.0 0l0 1080.0l-1440.0 0z" clip-rule="evenodd" />
      </clipPath>
      <image
        clip-path="url(#g3d53538a923_0_134.13)"
        fill="#000"
        width="1440.0"
        height="1080.0"
        x="0.0"
        y="0.0"
        preserveAspectRatio="none"
        xlink:href="alg_viz_img_013.webp"
      />
    </g>
    <path
      fill="#000000"
      fill-opacity="0.0"
      d="m146.45688 230.11633l80.79797 0l0 60.63562l-80.79797 0z"
      fill-rule="evenodd"
    />
    <g
      transform="matrix(0.26605542767992796 0.0 0.0 0.26606685499844585 -107.84669372846949 37.664938217619685)"
    >
      <clipPath id="g3d53538a923_0_134.14">
        <path
          d="m955.8293 723.31964l303.68854 0l0 227.89618l-303.68854 0z"
          clip-rule="evenodd"
        />
      </clipPath>
      <image
        clip-path="url(#g3d53538a923_0_134.14)"
        fill="#000"
        width="1440.0"
        height="1080.0"
        x="0.0"
        y="0.0"
        preserveAspectRatio="none"
        xlink:href="alg_viz_img_013.webp"
      />
    </g>
    <path
      fill="#000000"
      fill-opacity="0.0"
      d="m231.28346 230.12044l80.79799 0l0 60.59877l-80.79799 0z"
      fill-rule="evenodd"
    />
    <g
      transform="matrix(0.05610971128608924 0.0 0.0 0.05610997375328084 231.28346456692913 230.12044435695537)"
    >
      <clipPath id="g3d53538a923_0_134.15">
        <path d="m0 0l1440.0 0l0 1080.0l-1440.0 0z" clip-rule="evenodd" />
      </clipPath>
      <image
        clip-path="url(#g3d53538a923_0_134.15)"
        fill="#000"
        width="1440.0"
        height="1080.0"
        x="0.0"
        y="0.0"
        preserveAspectRatio="none"
        xlink:href="alg_viz_img_014.webp"
      />
    </g>
    <path
      fill="#000000"
      fill-opacity="0.0"
      d="m400.937 230.1181l80.79797 0l0 60.59848l-80.79797 0z"
      fill-rule="evenodd"
    />
    <g
      transform="matrix(0.05610971128608924 0.0 0.0 0.05610971128608924 400.93700787401576 230.11811023622047)"
    >
      <clipPath id="g3d53538a923_0_134.16">
        <path d="m0 0l1440.0 0l0 1080.0l-1440.0 0z" clip-rule="evenodd" />
      </clipPath>
      <image
        clip-path="url(#g3d53538a923_0_134.16)"
        fill="#000"
        width="1440.0"
        height="1080.0"
        x="0.0"
        y="0.0"
        preserveAspectRatio="none"
        xlink:href="alg_viz_img_015.webp"
      />
    </g>
    <path
      fill="#000000"
      fill-opacity="0.0"
      d="m570.5906 230.1213l80.79797 0l0 60.59793l-80.79797 0z"
      fill-rule="evenodd"
    />
    <!-- <g transform="matrix(0.05610971128608924 0.0 0.0 0.05610918635170604 570.5905511811023 230.12131364829395)">
      <clipPath id="g3d53538a923_0_134.17">
        <path d="m0 0l1440.0 0l0 1080.0l-1440.0 0z" clip-rule="evenodd"/>
      </clipPath>
      <image clip-path="url(#g3d53538a923_0_134.17)" fill="#000" width="1440.0" height="1080.0" x="0.0" y="0.0" preserveAspectRatio="none" xlink:href="alg_viz_img_016.webp"/>
    </g> -->
    <path
      fill="#000000"
      fill-opacity="0.0"
      d="m61.62992 166.93924l80.79798 0l0 60.59877l-80.79798 0z"
      fill-rule="evenodd"
    />
    <g
      transform="matrix(0.05610971128608924 0.0 0.0 0.05610997375328084 61.62992125984252 166.93923280839894)"
    >
      <clipPath id="g3d53538a923_0_134.18">
        <path
          d="m0 -4.5474735E-13l1440.0 0l0 1080.0l-1440.0 0z"
          clip-rule="evenodd"
        />
      </clipPath>
      <image
        clip-path="url(#g3d53538a923_0_134.18)"
        fill="#000"
        width="1440.0"
        height="1080.0"
        x="0.0"
        y="0.0"
        preserveAspectRatio="none"
        xlink:href="alg_viz_img_017.webp"
      />
    </g>
    <path
      fill="#000000"
      fill-opacity="0.0"
      d="m231.28346 166.93965l80.79799 0l0 60.598495l-80.79799 0z"
      fill-rule="evenodd"
    />
    <g
      transform="matrix(0.05610971128608924 0.0 0.0 0.05610971128608924 231.28346456692913 166.93965826771654)"
    >
      <clipPath id="g3d53538a923_0_134.19">
        <path d="m0 0l1440.0 0l0 1080.0l-1440.0 0z" clip-rule="evenodd" />
      </clipPath>
      <image
        clip-path="url(#g3d53538a923_0_134.19)"
        fill="#000"
        width="1440.0"
        height="1080.0"
        x="0.0"
        y="0.0"
        preserveAspectRatio="none"
        xlink:href="alg_viz_img_018.webp"
      />
    </g>
    <path
      fill="#000000"
      fill-opacity="0.0"
      d="m400.937 166.93896l80.79797 0l0 60.597916l-80.79797 0z"
      fill-rule="evenodd"
    />
    <g
      transform="matrix(0.05610971128608924 0.0 0.0 0.05610918635170604 400.93700787401576 166.93896167979003)"
    >
      <clipPath id="g3d53538a923_0_134.20">
        <path
          d="m0 4.5474735E-13l1440.0 0l0 1080.0l-1440.0 0z"
          clip-rule="evenodd"
        />
      </clipPath>
      <image
        clip-path="url(#g3d53538a923_0_134.20)"
        fill="#000"
        width="1440.0"
        height="1080.0"
        x="0.0"
        y="0.0"
        preserveAspectRatio="none"
        xlink:href="alg_viz_img_019.webp"
      />
    </g>
    <path
      fill="#000000"
      fill-opacity="0.0"
      d="m570.5906 166.94083l80.79797 0l0 60.595367l-80.79797 0z"
      fill-rule="evenodd"
    />
    <!-- <g transform="matrix(0.05610971128608924 0.0 0.0 0.05610682414698163 570.5905511811023 166.94082440944882)">
      <clipPath id="g3d53538a923_0_134.21">
        <path d="m0 0l1440.0 0l0 1080.0l-1440.0 0z" clip-rule="evenodd"/>
      </clipPath>
      <image clip-path="url(#g3d53538a923_0_134.21)" fill="#000" width="1440.0" height="1080.0" x="0.0" y="0.0" preserveAspectRatio="none" xlink:href="alg_viz_img_020.webp"/>
    </g> -->
    <path
      fill="#000000"
      fill-opacity="0.0"
      d="m146.45688 40.54021l80.79797 0l0 60.635624l-80.79797 0z"
      fill-rule="evenodd"
    />
    <g
      transform="matrix(0.26605542767992796 0.0 0.0 0.26606685499844585 -107.84669451587106 -151.90513350685902)"
    >
      <clipPath id="g3d53538a923_0_134.22">
        <path
          d="m955.8293 723.29694l303.68854 0l0 227.89618l-303.68854 0z"
          clip-rule="evenodd"
        />
      </clipPath>
      <image
        clip-path="url(#g3d53538a923_0_134.22)"
        fill="#000"
        width="1440.0"
        height="1080.0"
        x="0.0"
        y="0.0"
        preserveAspectRatio="none"
        xlink:href="alg_viz_img_001.webp"
      />
    </g>
    <path
      fill="#000000"
      fill-opacity="0.0"
      d="m146.45688 103.739685l80.79797 0l0 60.63562l-80.79797 0z"
      fill-rule="evenodd"
    />
    <g
      transform="matrix(0.26605542767992796 0.0 0.0 0.26606685499844585 -107.84669267860073 -88.7117027272622)"
    >
      <clipPath id="g3d53538a923_0_134.23">
        <path
          d="m955.8293 723.31964l303.68854 0l0 227.89618l-303.68854 0z"
          clip-rule="evenodd"
        />
      </clipPath>
      <image
        clip-path="url(#g3d53538a923_0_134.23)"
        fill="#000"
        width="1440.0"
        height="1080.0"
        x="0.0"
        y="0.0"
        preserveAspectRatio="none"
        xlink:href="alg_viz_img_005.webp"
      />
    </g>
    <path
      fill="#000000"
      fill-opacity="0.0"
      d="m146.45667 166.9308l80.79799 0l0 60.634766l-80.79799 0z"
      fill-rule="evenodd"
    />
    <g
      transform="matrix(0.26605542767992796 0.0 0.0 0.266063123502506 -107.84690553949312 -23.031872764287026)"
    >
      <clipPath id="g3d53538a923_0_134.24">
        <path
          d="m955.8293 713.97595l303.68854 0l0 227.89618l-303.68854 0z"
          clip-rule="evenodd"
        />
      </clipPath>
      <image
        clip-path="url(#g3d53538a923_0_134.24)"
        fill="#000"
        width="1440.0"
        height="1080.0"
        x="0.0"
        y="0.0"
        preserveAspectRatio="none"
        xlink:href="alg_viz_img_017.webp"
      />
    </g>
    <path
      fill="#000000"
      fill-opacity="0.0"
      d="m146.45671 293.30185l80.79797 0l0 60.63504l-80.79797 0z"
      fill-rule="evenodd"
    />
    <g
      transform="matrix(0.23658099488586265 0.0 0.0 0.23659460994590298 -70.72020679031333 122.16544991945281)"
    >
      <clipPath id="g3d53538a923_0_134.25">
        <path
          d="m917.9812 723.3317l341.52356 0l0 256.28247l-341.52356 0z"
          clip-rule="evenodd"
        />
      </clipPath>
      <image
        clip-path="url(#g3d53538a923_0_134.25)"
        fill="#000"
        width="1440.0"
        height="1080.0"
        x="0.0"
        y="0.0"
        preserveAspectRatio="none"
        xlink:href="alg_viz_img_009.webp"
      />
    </g>
    <path
      fill="#000000"
      fill-opacity="0.0"
      d="m265.17584 43.430553l17.039368 0l0 12.787399l-17.039368 0z"
      fill-rule="evenodd"
    />
    <path
      stroke="#00ff00"
      stroke-width="2.0"
      stroke-linejoin="round"
      stroke-linecap="butt"
      d="m265.17584 43.430553l17.039368 0l0 12.787399l-17.039368 0z"
      fill-rule="evenodd"
    />
    <path
      fill="#000000"
      fill-opacity="0.0"
      d="m316.11014 40.540207l80.79797 0l0 60.63562l-80.79797 0z"
      fill-rule="evenodd"
    />
    <g
      transform="matrix(0.2660610195157409 0.0 0.0 0.26605563770204077 155.91197294434875 31.044670507219774)"
    >
      <clipPath id="g3d53538a923_0_134.26">
        <path
          d="m602.1106 35.690044l303.68213 0l0 227.9058l-303.68213 0z"
          clip-rule="evenodd"
        />
      </clipPath>
      <image
        clip-path="url(#g3d53538a923_0_134.26)"
        fill="#000"
        width="1440.0"
        height="1080.0"
        x="0.0"
        y="0.0"
        preserveAspectRatio="none"
        xlink:href="alg_viz_img_002.webp"
      />
    </g>
    <path
      fill="#000000"
      fill-opacity="0.0"
      d="m316.11014 103.72131l80.79797 0l0 60.63562l-80.79797 0z"
      fill-rule="evenodd"
    />
    <g
      transform="matrix(0.2660610195157409 0.0 0.0 0.26606125973603856 175.40044294811656 92.38244801150745)"
    >
      <clipPath id="g3d53538a923_0_134.27">
        <path
          d="m528.8625 42.617485l303.68213 0l0 227.90097l-303.68213 0z"
          clip-rule="evenodd"
        />
      </clipPath>
      <image
        clip-path="url(#g3d53538a923_0_134.27)"
        fill="#000"
        width="1440.0"
        height="1080.0"
        x="0.0"
        y="0.0"
        preserveAspectRatio="none"
        xlink:href="alg_viz_img_006.webp"
      />
    </g>
    <path
      fill="#000000"
      fill-opacity="0.0"
      d="m316.11014 166.92079l80.79797 0l0 60.63562l-80.79797 0z"
      fill-rule="evenodd"
    />
    <g
      transform="matrix(0.2660610195157409 0.0 0.0 0.26606125973603856 155.38678054423494 146.3713744099855)"
    >
      <clipPath id="g3d53538a923_0_134.28">
        <path
          d="m604.08453 77.23564l303.6822 0l0 227.90099l-303.6822 0z"
          clip-rule="evenodd"
        />
      </clipPath>
      <image
        clip-path="url(#g3d53538a923_0_134.28)"
        fill="#000"
        width="1440.0"
        height="1080.0"
        x="0.0"
        y="0.0"
        preserveAspectRatio="none"
        xlink:href="alg_viz_img_018.webp"
      />
    </g>
    <path
      fill="#000000"
      fill-opacity="0.0"
      d="m316.11014 230.11285l80.79797 0l0 60.63562l-80.79797 0z"
      fill-rule="evenodd"
    />
    <g
      transform="matrix(0.2660610195157409 0.0 0.0 0.26606125973603856 155.3867818565709 209.5634489506679)"
    >
      <clipPath id="g3d53538a923_0_134.29">
        <path
          d="m604.08453 77.23564l303.6822 0l0 227.90099l-303.6822 0z"
          clip-rule="evenodd"
        />
      </clipPath>
      <image
        clip-path="url(#g3d53538a923_0_134.29)"
        fill="#000"
        width="1440.0"
        height="1080.0"
        x="0.0"
        y="0.0"
        preserveAspectRatio="none"
        xlink:href="alg_viz_img_014.webp"
      />
    </g>
    <path
      fill="#000000"
      fill-opacity="0.0"
      d="m316.11005 293.3046l80.79797 0l0 60.63562l-80.79797 0z"
      fill-rule="evenodd"
    />
    <g
      transform="matrix(0.2660610195157409 0.0 0.0 0.26605563770204077 155.38669944187274 272.7551967196968)"
    >
      <clipPath id="g3d53538a923_0_134.30">
        <path
          d="m604.08453 77.237274l303.6822 0l0 227.90579l-303.6822 0z"
          clip-rule="evenodd"
        />
      </clipPath>
      <image
        clip-path="url(#g3d53538a923_0_134.30)"
        fill="#000"
        width="1440.0"
        height="1080.0"
        x="0.0"
        y="0.0"
        preserveAspectRatio="none"
        xlink:href="alg_viz_img_010.webp"
      />
    </g>
    <path
      fill="#000000"
      fill-opacity="0.0"
      d="m434.6404 48.611656l17.039368 0l0 12.787399l-17.039368 0z"
      fill-rule="evenodd"
    />
    <path
      stroke="#00ffff"
      stroke-width="2.0"
      stroke-linejoin="round"
      stroke-linecap="butt"
      d="m434.6404 48.611656l17.039368 0l0 12.787399l-17.039368 0z"
      fill-rule="evenodd"
    />
    <path
      fill="#000000"
      fill-opacity="0.0"
      d="m485.7638 41.08399l80.79797 0l0 60.63506l-80.79797 0z"
      fill-rule="evenodd"
    />
    <g
      transform="matrix(0.2660610195157409 0.0 0.0 0.26605315014296005 325.94536284154054 2.986982392735118)"
    >
      <clipPath id="g3d53538a923_0_134.31">
        <path
          d="m600.68335 143.19322l303.68213 0l0 227.90578l-303.68213 0z"
          clip-rule="evenodd"
        />
      </clipPath>
      <image
        clip-path="url(#g3d53538a923_0_134.31)"
        fill="#000"
        width="1440.0"
        height="1080.0"
        x="0.0"
        y="0.0"
        preserveAspectRatio="none"
        xlink:href="alg_viz_img_003.webp"
      />
    </g>
    <path
      fill="#000000"
      fill-opacity="0.0"
      d="m485.76364 104.00958l80.798004 0l0 60.63562l-80.798004 0z"
      fill-rule="evenodd"
    />
    <g
      transform="matrix(0.2660610195157409 0.0 0.0 0.26606685499844585 325.68668651151876 57.03516512878898)"
    >
      <clipPath id="g3d53538a923_0_134.32">
        <path
          d="m601.6551 176.55116l303.68213 0l0 227.8962l-303.68213 0z"
          clip-rule="evenodd"
        />
      </clipPath>
      <image
        clip-path="url(#g3d53538a923_0_134.32)"
        fill="#000"
        width="1440.0"
        height="1080.0"
        x="0.0"
        y="0.0"
        preserveAspectRatio="none"
        xlink:href="alg_viz_img_007.webp"
      />
    </g>
    <path
      fill="#000000"
      fill-opacity="0.0"
      d="m485.76376 167.06287l80.798004 0l0 60.63675l-80.798004 0z"
      fill-rule="evenodd"
    />
    <g
      transform="matrix(0.2660610195157409 0.0 0.0 0.2660662349593295 325.94534945571377 127.49737856823377)"
    >
      <clipPath id="g3d53538a923_0_134.33">
        <path
          d="m600.68335 148.70538l303.68213 0l0 227.90097l-303.68213 0z"
          clip-rule="evenodd"
        />
      </clipPath>
      <image
        clip-path="url(#g3d53538a923_0_134.33)"
        fill="#000"
        width="1440.0"
        height="1080.0"
        x="0.0"
        y="0.0"
        preserveAspectRatio="none"
        xlink:href="alg_viz_img_019.webp"
      />
    </g>
    <path
      fill="#000000"
      fill-opacity="0.0"
      d="m485.7637 230.18445l80.798004 0l0 60.63562l-80.798004 0z"
      fill-rule="evenodd"
    />
    <g
      transform="matrix(0.26607225669775736 0.0 0.0 0.26606685499844585 325.9372124410474 192.0870807843226)"
    >
      <clipPath id="g3d53538a923_0_134.34">
        <path
          d="m600.6883 143.18718l303.6693 0l0 227.8962l-303.6693 0z"
          clip-rule="evenodd"
        />
      </clipPath>
      <image
        clip-path="url(#g3d53538a923_0_134.34)"
        fill="#000"
        width="1440.0"
        height="1080.0"
        x="0.0"
        y="0.0"
        preserveAspectRatio="none"
        xlink:href="alg_viz_img_015.webp"
      />
    </g>
    <path
      fill="#000000"
      fill-opacity="0.0"
      d="m485.7638 293.0465l80.79797 0l0 60.63336l-80.79797 0z"
      fill-rule="evenodd"
    />
    <g
      transform="matrix(0.22801863676206335 0.0 0.0 0.2279982552245533 360.19562924266427 247.5714897637795)"
    >
      <clipPath id="g3d53538a923_0_134.35">
        <path
          d="m550.6925 199.45335l354.34814 0l0 265.9378l-354.34814 0z"
          clip-rule="evenodd"
        />
      </clipPath>
      <image
        clip-path="url(#g3d53538a923_0_134.35)"
        fill="#000"
        width="1440.0"
        height="1080.0"
        x="0.0"
        y="0.0"
        preserveAspectRatio="none"
        xlink:href="alg_viz_img_011.webp"
      />
    </g>
    <!-- <path fill="#000000" fill-opacity="0.0" d="m579.99475 45.630028l17.039368 0l0 12.787403l-17.039368 0z" fill-rule="evenodd"/> -->
    <!-- <path stroke="#ff00ff" stroke-width="2.0" stroke-linejoin="round" stroke-linecap="butt" d="m579.99475 45.630028l17.039368 0l0 12.787403l-17.039368 0z" fill-rule="evenodd"/> -->
    <!-- Magenta column hidden for preview
    <path fill="#000000" fill-opacity="0.0" d="m655.4173 41.08399l80.798035 0l0 60.635624l-80.798035 0z" fill-rule="evenodd"/>
    <g transform="matrix(0.26604980908891973 0.0 0.0 0.26605563770204077 610.824915088179 17.132917400105793)">
      <clipPath id="g3d53538a923_0_134.36">
        <path d="m167.60925 90.02279l303.69495 0l0 227.90579l-303.69495 0z" clip-rule="evenodd"/>
      </clipPath>
      <image clip-path="url(#g3d53538a923_0_134.36)" fill="#000" width="1440.0" height="1080.0" x="0.0" y="0.0" preserveAspectRatio="none" xlink:href="alg_viz_img_004.webp"/>
    </g>
    <path fill="#000000" fill-opacity="0.0" d="m655.4174 104.012245l80.79797 0l0 60.635628l-80.79797 0z" fill-rule="evenodd"/>
    <g transform="matrix(0.2660610195157409 0.0 0.0 0.26606125973603856 610.8250185002524 80.05511279706978)">
      <clipPath id="g3d53538a923_0_134.37">
        <path d="m167.60219 90.04368l303.68213 0l0 227.901l-303.68213 0z" clip-rule="evenodd"/>
      </clipPath>
      <image clip-path="url(#g3d53538a923_0_134.37)" fill="#000" width="1440.0" height="1080.0" x="0.0" y="0.0" preserveAspectRatio="none" xlink:href="alg_viz_img_008.webp"/>
    </g>
    <path fill="#000000" fill-opacity="0.0" d="m655.4173 167.06694l80.798035 0l0 60.63562l-80.798035 0z" fill-rule="evenodd"/>
    <g transform="matrix(0.2660610195157409 0.0 0.0 0.26605563770204077 610.8168352535859 143.1219374887061)">
      <clipPath id="g3d53538a923_0_134.38">
        <path d="m167.63255 90.0l303.68213 0l0 227.90579l-303.68213 0z" clip-rule="evenodd"/>
      </clipPath>
      <image clip-path="url(#g3d53538a923_0_134.38)" fill="#000" width="1440.0" height="1080.0" x="0.0" y="0.0" preserveAspectRatio="none" xlink:href="alg_viz_img_020.webp"/>
    </g>
    <path fill="#000000" fill-opacity="0.0" d="m655.4173 230.18634l80.798035 0l0 60.63562l-80.798035 0z" fill-rule="evenodd"/>
    <g transform="matrix(0.2660610195157409 0.0 0.0 0.26605563770204077 610.8249140383102 206.22920597292284)">
      <clipPath id="g3d53538a923_0_134.39">
        <path d="m167.60219 90.045586l303.68213 0l0 227.90579l-303.68213 0z" clip-rule="evenodd"/>
      </clipPath>
      <image clip-path="url(#g3d53538a923_0_134.39)" fill="#000" width="1440.0" height="1080.0" x="0.0" y="0.0" preserveAspectRatio="none" xlink:href="alg_viz_img_016.webp"/>
    </g>
    <path fill="#000000" fill-opacity="0.0" d="m655.4174 293.30402l80.79797 0l0 60.63562l-80.79797 0z" fill-rule="evenodd"/>
    <g transform="matrix(0.2660610195157409 0.0 0.0 0.26606125973603856 628.220791902397 270.00173770240923)">
      <clipPath id="g3d53538a923_0_134.40">
        <path d="m102.21941 87.58235l303.68216 0l0 227.90099l-303.68216 0z" clip-rule="evenodd"/>
      </clipPath>
      <image clip-path="url(#g3d53538a923_0_134.40)" fill="#000" width="1440.0" height="1080.0" x="0.0" y="0.0" preserveAspectRatio="none" xlink:href="alg_viz_img_012.webp"/>
    </g>
    -->
    <path
      fill="#000000"
      fill-opacity="0.0"
      d="m146.4567 40.538177l80.7874 0l0 313.13385l-80.7874 0z"
      fill-rule="evenodd"
    />
    <path
      stroke="#ff0000"
      stroke-width="2.0"
      stroke-linejoin="round"
      stroke-linecap="butt"
      d="m146.4567 40.538177l80.7874 0l0 313.13385l-80.7874 0z"
      fill-rule="evenodd"
    />
    <path
      fill="#000000"
      fill-opacity="0.0"
      d="m146.5433 40.3832l-14.267715 40.8189"
      fill-rule="evenodd"
    />
    <path
      stroke="#ff0000"
      stroke-width="2.0"
      stroke-linejoin="round"
      stroke-linecap="butt"
      d="m146.5433 40.3832l-14.267715 40.8189"
      fill-rule="evenodd"
    />
    <path
      fill="#000000"
      fill-opacity="0.0"
      d="m131.72441 93.755905l14.48819 8.503937"
      fill-rule="evenodd"
    />
    <path
      stroke="#ff0000"
      stroke-width="2.0"
      stroke-linejoin="round"
      stroke-linecap="butt"
      d="m131.72441 93.755905l14.48819 8.503937"
      fill-rule="evenodd"
    />
    <path
      fill="#000000"
      fill-opacity="0.0"
      d="m316.12073 40.892506l80.787415 0l0 313.13385l-80.787415 0z"
      fill-rule="evenodd"
    />
    <path
      stroke="#00ff00"
      stroke-width="2.0"
      stroke-linejoin="round"
      stroke-linecap="butt"
      d="m316.12073 40.892506l80.787415 0l0 313.13385l-80.787415 0z"
      fill-rule="evenodd"
    />
    <path
      fill="#000000"
      fill-opacity="0.0"
      d="m316.5013 41.062992l-34.614166 2.4566917"
      fill-rule="evenodd"
    />
    <path
      stroke="#00ff00"
      stroke-width="2.0"
      stroke-linejoin="round"
      stroke-linecap="butt"
      d="m316.5013 41.062992l-34.614166 2.4566917"
      fill-rule="evenodd"
    />
    <path
      fill="#000000"
      fill-opacity="0.0"
      d="m316.063 102.062996l-34.173218 -46.11024"
      fill-rule="evenodd"
    />
    <path
      stroke="#00ff00"
      stroke-width="2.0"
      stroke-linejoin="round"
      stroke-linecap="butt"
      d="m316.063 102.062996l-34.173218 -46.11024"
      fill-rule="evenodd"
    />
    <path
      fill="#000000"
      fill-opacity="0.0"
      d="m486.07874 40.670723l80.787415 0l0 313.13385l-80.787415 0z"
      fill-rule="evenodd"
    />
    <path
      stroke="#00ffff"
      stroke-width="2.0"
      stroke-linejoin="round"
      stroke-linecap="butt"
      d="m486.07874 40.670723l80.787415 0l0 313.13385l-80.787415 0z"
      fill-rule="evenodd"
    />
    <path
      fill="#000000"
      fill-opacity="0.0"
      d="m486.12335 41.082676l-34.614166 7.6220474"
      fill-rule="evenodd"
    />
    <path
      stroke="#00ffff"
      stroke-width="2.0"
      stroke-linejoin="round"
      stroke-linecap="butt"
      d="m486.12335 41.082676l-34.614166 7.6220474"
      fill-rule="evenodd"
    />
    <path
      fill="#000000"
      fill-opacity="0.0"
      d="m486.021 101.84121l-34.70865 -40.72441"
      fill-rule="evenodd"
    />
    <path
      stroke="#00ffff"
      stroke-width="2.0"
      stroke-linejoin="round"
      stroke-linecap="butt"
      d="m486.021 101.84121l-34.70865 -40.72441"
      fill-rule="evenodd"
    />
    <!-- Magenta overlay hidden for preview
    <path fill="#000000" fill-opacity="0.0" d="m655.11285 40.813766l80.787415 0l0 313.13385l-80.787415 0z" fill-rule="evenodd"/>
    <path stroke="#ff00ff" stroke-width="2.0" stroke-linejoin="round" stroke-linecap="butt" d="m655.11285 40.813766l80.787415 0l0 313.13385l-80.787415 0z" fill-rule="evenodd"/>
    <path fill="#000000" fill-opacity="0.0" d="m655.5617 40.937008l-58.48822 4.724411" fill-rule="evenodd"/>
    <path stroke="#ff00ff" stroke-width="2.0" stroke-linejoin="round" stroke-linecap="butt" d="m655.5617 40.937008l-58.48822 4.724411" fill-rule="evenodd"/>
    <path fill="#000000" fill-opacity="0.0" d="m655.1601 103.10761l-58.236206 -44.66142" fill-rule="evenodd"/>
    <path stroke="#ff00ff" stroke-width="2.0" stroke-linejoin="round" stroke-linecap="butt" d="m655.1601 103.10761l-58.236206 -44.66142" fill-rule="evenodd"/>
    -->
    <path
      fill="#000000"
      fill-opacity="0.0"
      d="m115.25984 81.162834l17.039368 0l0 12.787407l-17.039368 0z"
      fill-rule="evenodd"
    />
    <path
      stroke="#ff0000"
      stroke-width="2.0"
      stroke-linejoin="round"
      stroke-linecap="butt"
      d="m115.25984 81.162834l17.039368 0l0 12.787407l-17.039368 0z"
      fill-rule="evenodd"
    />
    <path
      fill="#000000"
      fill-opacity="0.0"
      d="m67.43044 65.77428l62.015755 0l0 21.543312l-62.015755 0z"
      fill-rule="evenodd"
    />
    <path
      fill="#000000"
      fill-opacity="0.0"
      d="m65.65354 130.29396l62.015747 0l0 21.543304l-62.015747 0z"
      fill-rule="evenodd"
    />
  </g>
</svg>
