<?xml version="1.0" encoding="UTF-8"?>
<svg
  id="Layer_1"
  xmlns="http://www.w3.org/2000/svg"
  width="2933.4"
  height="2023.1"
  xmlns:xlink="http://www.w3.org/1999/xlink"
  version="1.1"
  viewBox="0 0 2933.4 2023.1"
>
  <!-- Generator: Adobe Illustrator 30.0.0, SVG Export Plug-In . SVG Version: 2.1.1 Build 123)  -->
  <defs>
    <style>
      .outer {
        clip-path: url(#stereo-tracking-round-clip);
      }
      .st0,
      .st1,
      .st2 {
        fill: none;
      }

      .st3,
      .st4 {
        isolation: isolate;
      }

      .st1 {
        stroke: #fff;
        stroke-width: 6px;
      }

      .st5,
      .st4 {
        fill: #fff;
      }

      .st4 {
        font-family: HelveticaNeue-Bold, "Helvetica Neue";
        font-size: 199px;
        font-weight: 700;
      }

      .st6 {
        clip-path: url(#stereo-tracking-clip);
      }

      .st2 {
        stroke: #000;
        stroke-width: 4px;
      }
    </style>
    <clipPath id="stereo-tracking-clip">
      <rect class="st0" width="2933.5" height="897.8" />
    </clipPath>
    <clipPath id="stereo-tracking-round-clip">
      <rect class="st0" width="2933.4" height="2023.1" rx="100" />
    </clipPath>
  </defs>
  <g class="outer">
    <image
      class="st3"
      width="1445"
      height="1084"
      transform="translate(0 925.7) scale(.5)"
      xlink:href="1.webp"
    />
    <rect y="925.5" width="325" height="80" />
    <g>
      <path
        class="st5"
        d="M20,984.9v-3.1l4-.7v-28l-4-.7v-3.1h26.7v8.5h-3.9l-.5-4.8h-13.5v12.3h13v3.8h-13v12l4,.7v3.1h-12.8Z"
      />
      <path
        class="st5"
        d="M61.3,985.4c-2.4,0-4.5-.6-6.3-1.7-1.8-1.1-3.1-2.7-4.1-4.8-1-2-1.4-4.3-1.4-6.9v-.5c0-2.6.5-4.9,1.4-6.9,1-2,2.3-3.6,4.1-4.8s3.9-1.7,6.3-1.7,4.5.6,6.3,1.7c1.8,1.2,3.1,2.7,4.1,4.8,1,2,1.4,4.3,1.4,7v.5c0,2.6-.5,4.9-1.4,7-1,2-2.3,3.6-4.1,4.7-1.8,1.1-3.8,1.7-6.3,1.7h0ZM61.3,981.7c1.5,0,2.8-.4,3.8-1.3,1-.8,1.8-2,2.3-3.4.5-1.5.8-3.1.8-5v-.5c0-1.9-.3-3.5-.8-5s-1.3-2.6-2.4-3.4c-1-.8-2.3-1.3-3.9-1.3s-2.8.4-3.9,1.3c-1,.8-1.8,2-2.3,3.4-.5,1.5-.8,3.1-.8,5v.5c0,1.9.3,3.5.8,5s1.3,2.6,2.4,3.4c1,.8,2.3,1.3,3.9,1.3h0Z"
      />
      <path
        class="st5"
        d="M87,984.9l-9.4-22.9-2.7-.4v-3.1h11.1v3.1l-3.4.5,5.9,15,.7,2.1h0l.8-2.1,5.4-15-3.5-.5v-3.1h11.1v3.1l-2.8.4-8.9,22.9h-4.4Z"
      />
      <path
        class="st5"
        d="M117,985.4c-2.4,0-4.6-.6-6.4-1.7-1.8-1.1-3.2-2.7-4.2-4.7s-1.5-4.3-1.5-6.9v-1.1c0-2.5.5-4.7,1.6-6.7,1-2,2.4-3.5,4.1-4.7,1.7-1.1,3.6-1.7,5.6-1.7s4.4.5,6,1.5,2.8,2.3,3.6,4.1c.8,1.8,1.2,3.8,1.2,6.2v3h-17.2c0,1.8.3,3.3.9,4.6s1.4,2.3,2.4,3.1c1.1.7,2.3,1.1,3.8,1.1s3.1-.2,4.3-.7c1.2-.5,2.3-1.1,3.2-1.9l1.9,3.1c-.9.9-2.2,1.7-3.7,2.3-1.6.6-3.4.9-5.6.9v.2ZM110.1,969.1h12.2v-.6c0-1.3-.2-2.4-.7-3.4-.4-1-1.1-1.8-2-2.4-.9-.6-2-.9-3.3-.9s-2.1.3-2.9.9c-.9.6-1.6,1.5-2.2,2.6s-.9,2.3-1.1,3.7h0Z"
      />
      <path
        class="st5"
        d="M139.4,985.4c-2.8,0-4.8-.7-6.3-2-1.4-1.3-2.1-3.2-2.1-5.7s1-4.5,3.1-6,4.9-2.3,8.5-2.3h4.7v-2.6c0-1.6-.5-2.8-1.5-3.7s-2.3-1.3-4.1-1.3-2.1,0-2.9.4c-.8.3-1.6.6-2.2,1.1l-.5,3.7h-3.7v-6.1c1.2-1,2.6-1.7,4.2-2.2,1.6-.5,3.3-.7,5.2-.7,3.2,0,5.7.8,7.5,2.3s2.7,3.7,2.7,6.6v14.7l2.6.3v3.1h-6.9c-.1-.7-.3-1.4-.3-1.9s-.1-1.1-.2-1.7c-.9,1.2-2.1,2.2-3.5,3s-2.9,1.2-4.5,1.2l.2-.2ZM140.1,981.4c1.6,0,3.1-.4,4.4-1.1,1.3-.8,2.3-1.7,2.8-2.8v-4.8h-4.9c-2.2,0-3.9.5-5,1.6s-1.7,2.2-1.7,3.5.4,2,1.1,2.6c.7.6,1.8.9,3.2.9h0Z"
      />
      <path
        class="st5"
        d="M172,984.9v-3.1l5.5-.7v-26.6h-5.6v-2.9l10.4-2.2v31.8l5.5.7v3.1h-15.8,0Z"
      />
      <path
        class="st5"
        d="M204.1,984.9v-3.1l4-.7v-28l-4-.7v-3.1h12.8v3.1l-4,.7v28.1h12.6l.6-5.6h3.7v9.3h-25.7Z"
      />
      <path
        class="st5"
        d="M245.5,985.4c-2.4,0-4.6-.6-6.4-1.7-1.8-1.1-3.2-2.7-4.2-4.7s-1.5-4.3-1.5-6.9v-1.1c0-2.5.5-4.7,1.6-6.7,1-2,2.4-3.5,4.1-4.7,1.7-1.1,3.6-1.7,5.6-1.7s4.4.5,6,1.5,2.8,2.3,3.6,4.1,1.2,3.8,1.2,6.2v3h-17.2c0,1.8.3,3.3.9,4.6.6,1.3,1.4,2.3,2.4,3.1,1.1.7,2.3,1.1,3.8,1.1s3.1-.2,4.3-.7,2.3-1.1,3.2-1.9l1.9,3.1c-.9.9-2.2,1.7-3.7,2.3-1.6.6-3.4.9-5.6.9v.2ZM238.6,969.1h12.2v-.6c0-1.3-.2-2.4-.7-3.4-.4-1-1.1-1.8-2-2.4-.9-.6-2-.9-3.3-.9s-2.1.3-2.9.9c-.9.6-1.6,1.5-2.2,2.6s-.9,2.3-1.1,3.7h0Z"
      />
      <path
        class="st5"
        d="M259.2,984.9v-3.1l4-.7v-19.1h-4.1v-3.6h4.1v-3.3c0-2.8.7-5,2.2-6.5s3.5-2.3,6.2-2.3,1.2,0,1.8,0c.6,0,1.3.2,2,.4l-.6,3.7c-.3,0-.7,0-1.2-.2h-1.4c-1.4,0-2.5.4-3.1,1.3-.7.8-1,2.1-1,3.6v3.3h5.8v3.6h-5.8v19.1l4.5.7v3.1h-13.4Z"
      />
      <path
        class="st5"
        d="M286.3,985.3c-2,0-3.5-.6-4.7-1.7-1.1-1.1-1.7-3-1.7-5.5v-16h-4.2v-3.6h4.2v-6.4h4.8v6.4h5.7v3.6h-5.7v16c0,1.3.3,2.2.8,2.8s1.2.9,2,.9,1.2,0,1.9-.2c.7,0,1.2-.2,1.6-.3l.7,3.1c-.7.2-1.6.4-2.6.6-1,.2-2,.2-2.8.2h0Z"
      />
    </g>
    <image
      class="st3"
      width="1445"
      height="1083"
      transform="translate(0 1486) scale(.5)"
      xlink:href="2.webp"
    />
    <rect y="1485.6" width="360" height="80" />
    <g>
      <path
        class="st5"
        d="M20,1545.1v-3.1l4-.7v-28l-4-.7v-3.1h26.7v8.5h-3.9l-.5-4.8h-13.5v12.3h13v3.8h-13v12l4,.7v3.1h-12.8Z"
      />
      <path
        class="st5"
        d="M61.3,1545.6c-2.4,0-4.5-.6-6.3-1.7s-3.1-2.7-4.1-4.8c-1-2-1.4-4.3-1.4-6.9v-.5c0-2.6.5-4.9,1.4-6.9,1-2,2.3-3.6,4.1-4.8,1.8-1.2,3.9-1.7,6.3-1.7s4.5.6,6.3,1.7c1.8,1.2,3.1,2.7,4.1,4.8s1.4,4.3,1.4,7v.5c0,2.6-.5,4.9-1.4,7-1,2-2.3,3.6-4.1,4.7-1.8,1.1-3.8,1.7-6.3,1.7h0ZM61.3,1541.8c1.5,0,2.8-.4,3.8-1.3,1-.8,1.8-2,2.3-3.4.5-1.5.8-3.1.8-5v-.5c0-1.9-.3-3.5-.8-5s-1.3-2.6-2.4-3.4-2.3-1.3-3.9-1.3-2.8.4-3.9,1.3-1.8,2-2.3,3.4c-.5,1.5-.8,3.1-.8,5v.5c0,1.9.3,3.5.8,5s1.3,2.6,2.4,3.4c1,.8,2.3,1.3,3.9,1.3h0Z"
      />
      <path
        class="st5"
        d="M87,1545.1l-9.4-22.9-2.7-.4v-3.1h11.1v3.1l-3.4.5,5.9,15,.7,2.1h0l.8-2.1,5.4-15-3.5-.5v-3.1h11.1v3.1l-2.8.4-8.9,22.9h-4.4Z"
      />
      <path
        class="st5"
        d="M117,1545.6c-2.4,0-4.6-.6-6.4-1.7s-3.2-2.7-4.2-4.7-1.5-4.3-1.5-6.9v-1.1c0-2.5.5-4.7,1.6-6.7,1-2,2.4-3.5,4.1-4.7,1.7-1.1,3.6-1.7,5.6-1.7s4.4.5,6,1.5,2.8,2.3,3.6,4.1,1.2,3.8,1.2,6.2v3h-17.2c0,1.8.3,3.3.9,4.6s1.4,2.3,2.4,3.1c1.1.8,2.3,1.1,3.8,1.1s3.1-.2,4.3-.7c1.2-.5,2.3-1.1,3.2-1.9l1.9,3.1c-.9.9-2.2,1.7-3.7,2.3-1.6.6-3.4.9-5.6.9v.2ZM110.1,1529.2h12.2v-.6c0-1.3-.2-2.4-.7-3.4-.4-1-1.1-1.8-2-2.4s-2-.9-3.3-.9-2.1.3-2.9.9c-.9.6-1.6,1.5-2.2,2.6s-.9,2.3-1.1,3.7h0Z"
      />
      <path
        class="st5"
        d="M139.4,1545.6c-2.8,0-4.8-.7-6.3-2-1.4-1.3-2.1-3.2-2.1-5.7s1-4.5,3.1-6,4.9-2.3,8.5-2.3h4.7v-2.6c0-1.6-.5-2.8-1.5-3.7-1-.9-2.3-1.3-4.1-1.3s-2.1,0-2.9.4c-.8.3-1.6.6-2.2,1.1l-.5,3.7h-3.7v-6.1c1.2-1,2.6-1.7,4.2-2.2s3.3-.7,5.2-.7c3.2,0,5.7.8,7.5,2.3s2.7,3.7,2.7,6.6v14.7l2.6.3v3.1h-6.9c-.1-.7-.3-1.4-.3-1.9s-.1-1.1-.2-1.7c-.9,1.2-2.1,2.2-3.5,3s-2.9,1.2-4.5,1.2l.2-.2ZM140.1,1541.6c1.6,0,3.1-.4,4.4-1.1,1.3-.8,2.3-1.7,2.8-2.8v-4.8h-4.9c-2.2,0-3.9.5-5,1.6s-1.7,2.2-1.7,3.5.4,2,1.1,2.6c.7.6,1.8.9,3.2.9h0Z"
      />
      <path
        class="st5"
        d="M172,1545.1v-3.1l5.5-.7v-26.6h-5.6v-2.9l10.4-2.2v31.8l5.5.7v3.1h-15.8,0Z"
      />
      <path
        class="st5"
        d="M204.1,1545.1v-3.1l4-.7v-28l-4-.7v-3.1h15.8c2.6,0,4.8.4,6.6,1.2s3.1,1.9,4.1,3.4,1.4,3.3,1.4,5.4-.5,3.8-1.4,5.2-2.2,2.5-3.8,3.2-3.6,1.1-5.9,1.2h-8v12.3l4,.7v3.1h-12.8ZM212.9,1525.4h6.6c2.7,0,4.6-.5,5.9-1.5s1.8-2.5,1.8-4.5-.6-3.4-1.8-4.4-3-1.6-5.4-1.6h-7.1v12.1h0ZM227.5,1545.1l-7.9-17.8h4.8l6.6,14.2,2.5.4v3.2h-6Z"
      />
      <path
        class="st5"
        d="M237.5,1545.1v-3.1l4-.7v-18.9l-4-.7v-3.1h8.8v22.7l4,.7v3.1h-12.8ZM241.3,1512.1v-5.2h5.1v5.2h-5.1Z"
      />
      <path
        class="st5"
        d="M265.2,1555.7c-1.3,0-2.6-.2-4.1-.5-1.5-.4-2.8-.8-3.9-1.4l1.2-3.7c.9.5,2,.9,3.2,1.2,1.2.3,2.4.5,3.6.5,2.1,0,3.7-.6,4.7-1.8s1.5-2.9,1.5-5.2v-2.5c-.9,1.1-1.9,1.9-3.1,2.5s-2.6.9-4.2.9-4-.5-5.6-1.6-2.8-2.6-3.6-4.5-1.3-4.1-1.3-6.7v-.5c0-2.8.4-5.3,1.3-7.4.8-2.1,2-3.8,3.6-5s3.4-1.8,5.6-1.8,3.1.3,4.4,1,2.3,1.6,3.1,2.8l.4-3.3h4.1v26.1c0,2.3-.4,4.2-1.3,5.9s-2.1,2.9-3.7,3.8-3.6,1.3-6,1.3h0ZM265.4,1541.7c1.4,0,2.7-.3,3.6-1,1-.7,1.8-1.6,2.4-2.8v-12.2c-.6-1.1-1.4-2-2.4-2.7s-2.2-1-3.6-1-2.8.4-3.8,1.3-1.8,2.1-2.3,3.6-.8,3.3-.8,5.3v.5c0,2.7.6,4.8,1.7,6.4s2.8,2.4,5.1,2.4v.2ZM275.5,1522.6l-1.9-3.9h5.9v3.1l-4,.9h0Z"
      />
      <path
        class="st5"
        d="M281.3,1545.1v-3.1l4-.7v-30.5l-4-.7v-3.1h8.8v15.2c.9-1.3,2-2.3,3.3-3s2.8-1,4.4-1c2.8,0,5,.8,6.6,2.5s2.3,4.3,2.3,7.8v12.8l4,.7v3.1h-12.8v-3.1l4-.7v-12.8c0-2.2-.5-3.8-1.4-4.8s-2.3-1.6-4.2-1.6-2.5.3-3.6.9-2,1.5-2.7,2.6v15.7l4,.7v3.1h-12.8.1Z"
      />
      <path
        class="st5"
        d="M322.5,1545.5c-2,0-3.5-.6-4.7-1.7-1.1-1.1-1.7-3-1.7-5.5v-16h-4.2v-3.6h4.2v-6.4h4.8v6.4h5.7v3.6h-5.7v16c0,1.3.3,2.2.8,2.8.5.6,1.2.9,2,.9s1.2,0,1.9-.2c.7,0,1.2-.2,1.6-.3l.7,3.2c-.7.2-1.6.4-2.6.6s-2,.2-2.8.2h0Z"
      />
    </g>
    <image
      class="st3"
      width="1444"
      height="1084"
      transform="translate(738 925.4) scale(.5)"
      xlink:href="3.webp"
    />
    <rect x="737.8" y="925.4" width="325" height="80" />
    <g>
      <path
        class="st5"
        d="M757.8,984.8v-3.1l4-.7v-28l-4-.7v-3.1h26.7v8.5h-3.9l-.5-4.8h-13.5v12.3h13v3.8h-13v12l4,.7v3.1h-12.8Z"
      />
      <path
        class="st5"
        d="M799.1,985.3c-2.4,0-4.5-.6-6.3-1.7-1.8-1.1-3.1-2.7-4.1-4.8-1-2-1.4-4.3-1.4-6.9v-.5c0-2.6.5-4.9,1.4-6.9,1-2,2.3-3.6,4.1-4.8s3.9-1.7,6.3-1.7,4.5.6,6.3,1.7c1.8,1.2,3.1,2.7,4.1,4.8,1,2,1.4,4.3,1.4,7v.5c0,2.6-.5,4.9-1.4,7-1,2-2.3,3.6-4.1,4.7-1.8,1.1-3.8,1.7-6.3,1.7h0ZM799.1,981.6c1.5,0,2.8-.4,3.8-1.3,1-.8,1.8-2,2.3-3.4.5-1.5.8-3.1.8-5v-.5c0-1.9-.3-3.5-.8-5s-1.3-2.6-2.4-3.4c-1-.8-2.3-1.3-3.9-1.3s-2.8.4-3.9,1.3c-1,.8-1.8,2-2.3,3.4-.5,1.5-.8,3.1-.8,5v.5c0,1.9.3,3.5.8,5s1.3,2.6,2.4,3.4c1,.8,2.3,1.3,3.9,1.3h.1Z"
      />
      <path
        class="st5"
        d="M824.8,984.8l-9.4-22.9-2.7-.4v-3.1h11.1v3.1l-3.4.5,5.9,15,.7,2.1h0l.8-2.1,5.4-15-3.5-.5v-3.1h11.1v3.1l-2.8.4-8.9,22.9h-4.4Z"
      />
      <path
        class="st5"
        d="M854.8,985.3c-2.4,0-4.6-.6-6.4-1.7-1.8-1.1-3.2-2.7-4.2-4.7s-1.5-4.3-1.5-6.9v-1.1c0-2.5.5-4.7,1.5-6.7s2.4-3.5,4.1-4.7c1.7-1.1,3.6-1.7,5.6-1.7s4.4.5,6,1.5,2.8,2.3,3.6,4.1,1.2,3.8,1.2,6.2v3h-17.2c0,1.8.3,3.3.9,4.6.6,1.3,1.4,2.3,2.4,3.1,1.1.7,2.3,1.1,3.8,1.1s3.1-.2,4.3-.7,2.3-1.1,3.2-1.9l1.9,3.1c-.9.9-2.2,1.7-3.7,2.3-1.6.6-3.4.9-5.6.9v.2ZM847.9,969h12.2v-.6c0-1.3-.2-2.4-.7-3.4-.4-1-1.1-1.8-2-2.4-.9-.6-2-.9-3.3-.9s-2.1.3-2.9.9c-.9.6-1.6,1.5-2.2,2.6-.6,1.1-.9,2.3-1.1,3.7h0Z"
      />
      <path
        class="st5"
        d="M877.2,985.3c-2.8,0-4.8-.7-6.3-2-1.4-1.3-2.1-3.2-2.1-5.7s1-4.5,3.1-6,4.9-2.3,8.5-2.3h4.7v-2.6c0-1.6-.5-2.8-1.5-3.7s-2.3-1.3-4.1-1.3-2.1,0-2.9.4c-.8.3-1.6.6-2.2,1.1l-.5,3.7h-3.7v-6.1c1.2-1,2.6-1.7,4.2-2.2,1.6-.5,3.3-.7,5.2-.7,3.2,0,5.7.8,7.5,2.3s2.7,3.7,2.7,6.6v14.7l2.6.3v3.1h-6.9c0-.7-.3-1.4-.3-1.9s0-1.1-.2-1.7c-.9,1.2-2.1,2.2-3.5,3s-2.9,1.2-4.5,1.2l.2-.2ZM877.9,981.3c1.6,0,3.1-.4,4.4-1.1,1.3-.8,2.3-1.7,2.8-2.8v-4.8h-4.9c-2.2,0-3.9.5-5,1.6s-1.7,2.2-1.7,3.5.4,2,1.1,2.6c.7.6,1.8.9,3.2.9h.1Z"
      />
      <path
        class="st5"
        d="M909.2,984.8v-3.3l11.6-12.9c1.4-1.6,2.5-2.9,3.3-4s1.3-2.1,1.6-3,.5-1.8.5-2.8c0-1.8-.5-3.3-1.6-4.5s-2.6-1.8-4.6-1.8-3.7.6-4.9,1.9c-1.2,1.3-1.7,3-1.7,5.3h-4.7c0-2.2.4-4,1.3-5.7.9-1.6,2.2-2.9,4-3.9,1.7-1,3.8-1.4,6.2-1.4s4.2.4,5.8,1.3c1.6.9,2.9,2,3.7,3.5.9,1.5,1.3,3.2,1.3,5.1s-.3,2.6-.8,3.9c-.5,1.3-1.3,2.6-2.2,4-1,1.4-2.2,2.8-3.6,4.3l-9.4,10.2h0c0,0,12.6,0,12.6,0l.4-4.1h4.1v7.8h-23,.1Z"
      />
      <path
        class="st5"
        d="M948.9,984.8v-3.1l4-.7v-28l-4-.7v-3.1h12.8v3.1l-4,.7v28.1h12.6l.6-5.6h3.7v9.3h-25.7Z"
      />
      <path
        class="st5"
        d="M990.3,985.3c-2.4,0-4.6-.6-6.4-1.7-1.8-1.1-3.2-2.7-4.2-4.7s-1.5-4.3-1.5-6.9v-1.1c0-2.5.5-4.7,1.5-6.7s2.4-3.5,4.1-4.7c1.7-1.1,3.6-1.7,5.6-1.7s4.4.5,6,1.5,2.8,2.3,3.6,4.1,1.2,3.8,1.2,6.2v3h-17.2c0,1.8.3,3.3.9,4.6.6,1.3,1.4,2.3,2.4,3.1,1.1.7,2.3,1.1,3.8,1.1s3.1-.2,4.3-.7,2.3-1.1,3.2-1.9l1.9,3.1c-.9.9-2.2,1.7-3.7,2.3-1.6.6-3.4.9-5.6.9v.2ZM983.4,969h12.2v-.6c0-1.3-.2-2.4-.7-3.4-.4-1-1.1-1.8-2-2.4-.9-.6-2-.9-3.3-.9s-2.1.3-2.9.9c-.9.6-1.6,1.5-2.2,2.6-.6,1.1-.9,2.3-1.1,3.7h0Z"
      />
      <path
        class="st5"
        d="M1004,984.8v-3.1l4-.7v-19.1h-4.1v-3.6h4.1v-3.3c0-2.8.7-5,2.2-6.5s3.5-2.3,6.2-2.3,1.2,0,1.8,0c.6,0,1.3.2,2,.4l-.6,3.7c-.3,0-.7,0-1.2-.2s-1,0-1.4,0c-1.4,0-2.5.4-3.1,1.3-.7.8-1,2.1-1,3.6v3.3h5.8v3.6h-5.8v19.1l4.5.7v3.1h-13.4Z"
      />
      <path
        class="st5"
        d="M1031.1,985.2c-2,0-3.5-.6-4.7-1.7-1.1-1.1-1.7-3-1.7-5.5v-16h-4.2v-3.6h4.2v-6.4h4.8v6.4h5.7v3.6h-5.7v16c0,1.3.3,2.2.8,2.8s1.2.9,2,.9,1.2,0,1.9-.2c.7,0,1.2-.2,1.6-.3l.7,3.1c-.7.2-1.6.4-2.6.6-1,.2-2,.2-2.8.2h0Z"
      />
    </g>
    <image
      class="st3"
      width="1444"
      height="1085"
      transform="translate(738.1 1485.5) scale(.5)"
      xlink:href="4.webp"
    />
    <rect x="737.8" y="1485.5" width="360" height="80" />
    <g>
      <path
        class="st5"
        d="M757.8,1545v-3.1l4-.7v-28l-4-.7v-3.1h26.7v8.5h-3.9l-.5-4.8h-13.5v12.3h13v3.8h-13v12l4,.7v3.1h-12.8Z"
      />
      <path
        class="st5"
        d="M799.1,1545.5c-2.4,0-4.5-.6-6.3-1.7s-3.1-2.7-4.1-4.8c-1-2-1.4-4.3-1.4-6.9v-.5c0-2.6.5-4.9,1.4-6.9,1-2,2.3-3.6,4.1-4.8,1.8-1.2,3.9-1.7,6.3-1.7s4.5.6,6.3,1.7c1.8,1.2,3.1,2.7,4.1,4.8,1,2,1.4,4.3,1.4,7v.5c0,2.6-.5,4.9-1.4,7-1,2-2.3,3.6-4.1,4.7s-3.8,1.7-6.3,1.7h0ZM799.1,1541.7c1.5,0,2.8-.4,3.8-1.3,1-.8,1.8-2,2.3-3.4.5-1.5.8-3.1.8-5v-.5c0-1.9-.3-3.5-.8-5s-1.3-2.6-2.4-3.4c-1-.8-2.3-1.3-3.9-1.3s-2.8.4-3.9,1.3c-1,.8-1.8,2-2.3,3.4-.5,1.5-.8,3.1-.8,5v.5c0,1.9.3,3.5.8,5s1.3,2.6,2.4,3.4c1,.8,2.3,1.3,3.9,1.3h.1Z"
      />
      <path
        class="st5"
        d="M824.8,1545l-9.4-22.9-2.7-.4v-3.1h11.1v3.1l-3.4.5,5.9,15,.7,2.1h0l.8-2.1,5.4-15-3.5-.5v-3.1h11.1v3.1l-2.8.4-8.9,22.9h-4.4Z"
      />
      <path
        class="st5"
        d="M854.8,1545.5c-2.4,0-4.6-.6-6.4-1.7-1.8-1.1-3.2-2.7-4.2-4.7s-1.5-4.3-1.5-6.9v-1.1c0-2.5.5-4.7,1.5-6.7s2.4-3.5,4.1-4.7c1.7-1.1,3.6-1.7,5.6-1.7s4.4.5,6,1.5,2.8,2.3,3.6,4.1c.8,1.8,1.2,3.8,1.2,6.2v3h-17.2c0,1.8.3,3.3.9,4.6.6,1.3,1.4,2.3,2.4,3.1,1.1.7,2.3,1.1,3.8,1.1s3.1-.2,4.3-.7,2.3-1.1,3.2-1.9l1.9,3.1c-.9.9-2.2,1.7-3.7,2.3-1.6.6-3.4.9-5.6.9v.2ZM847.9,1529.1h12.2v-.6c0-1.3-.2-2.4-.7-3.4-.4-1-1.1-1.8-2-2.4s-2-.9-3.3-.9-2.1.3-2.9.9c-.9.6-1.6,1.5-2.2,2.6-.6,1.1-.9,2.3-1.1,3.7h0Z"
      />
      <path
        class="st5"
        d="M877.2,1545.5c-2.8,0-4.8-.7-6.3-2-1.4-1.3-2.1-3.2-2.1-5.7s1-4.5,3.1-6,4.9-2.3,8.5-2.3h4.7v-2.6c0-1.6-.5-2.8-1.5-3.7s-2.3-1.3-4.1-1.3-2.1,0-2.9.4c-.8.3-1.6.6-2.2,1.1l-.5,3.7h-3.7v-6.1c1.2-1,2.6-1.7,4.2-2.2,1.6-.5,3.3-.7,5.2-.7,3.2,0,5.7.8,7.5,2.3s2.7,3.7,2.7,6.6v14.7l2.6.3v3.1h-6.9c0-.7-.3-1.4-.3-1.9s0-1.1-.2-1.7c-.9,1.2-2.1,2.2-3.5,3s-2.9,1.2-4.5,1.2l.2-.2ZM877.9,1541.5c1.6,0,3.1-.4,4.4-1.1,1.3-.8,2.3-1.7,2.8-2.8v-4.8h-4.9c-2.2,0-3.9.5-5,1.6s-1.7,2.2-1.7,3.5.4,2,1.1,2.6c.7.6,1.8.9,3.2.9h.1Z"
      />
      <path
        class="st5"
        d="M909.2,1545v-3.3l11.6-12.9c1.4-1.6,2.5-2.9,3.3-4s1.3-2.1,1.6-3,.5-1.8.5-2.8c0-1.8-.5-3.3-1.6-4.5s-2.6-1.8-4.6-1.8-3.7.6-4.9,1.9-1.7,3-1.7,5.3h-4.7c0-2.2.4-4,1.3-5.7.9-1.6,2.2-2.9,4-3.9,1.7-1,3.8-1.4,6.2-1.4s4.2.4,5.8,1.3,2.9,2,3.7,3.5c.9,1.5,1.3,3.2,1.3,5.1s-.3,2.6-.8,3.9-1.3,2.6-2.2,4c-1,1.4-2.2,2.8-3.6,4.3l-9.4,10.2h0c0,0,12.6,0,12.6,0l.4-4.1h4.1v7.8h-23,.1Z"
      />
      <path
        class="st5"
        d="M948.9,1545v-3.1l4-.7v-28l-4-.7v-3.1h15.8c2.6,0,4.8.4,6.6,1.2,1.8.8,3.1,1.9,4.1,3.4s1.4,3.3,1.4,5.4-.5,3.8-1.4,5.2-2.2,2.5-3.8,3.2c-1.7.7-3.6,1.1-5.9,1.2h-8v12.3l4,.7v3.1h-12.8,0ZM957.7,1525.3h6.6c2.7,0,4.6-.5,5.9-1.5s1.8-2.5,1.8-4.5-.6-3.4-1.8-4.4c-1.2-1.1-3-1.6-5.4-1.6h-7.1v12.1h0ZM972.4,1545l-7.9-17.7h4.8l6.6,14.2,2.5.4v3.1h-6Z"
      />
      <path
        class="st5"
        d="M982.4,1545v-3.1l4-.7v-18.9l-4-.7v-3.1h8.8v22.7l4,.7v3.1h-12.8ZM986.1,1512.1v-5.2h5.1v5.2h-5.1Z"
      />
      <path
        class="st5"
        d="M1010,1555.7c-1.3,0-2.6-.2-4.1-.5-1.5-.4-2.8-.8-3.9-1.4l1.2-3.7c.9.5,2,.9,3.2,1.2,1.2.3,2.4.5,3.6.5,2.1,0,3.7-.6,4.7-1.8,1-1.2,1.5-2.9,1.5-5.2v-2.5c-.9,1.1-1.9,1.9-3.1,2.5-1.2.6-2.6.9-4.2.9s-4-.5-5.6-1.6-2.8-2.6-3.6-4.5-1.3-4.1-1.3-6.7v-.5c0-2.8.4-5.3,1.3-7.4.8-2.1,2-3.8,3.6-5s3.4-1.8,5.6-1.8,3.1.3,4.4,1c1.3.7,2.3,1.6,3.1,2.8l.4-3.3h4.1v26.1c0,2.3-.4,4.2-1.3,5.9-.9,1.6-2.1,2.9-3.7,3.8-1.6.9-3.6,1.3-6,1.3h0ZM1010.2,1541.6c1.4,0,2.7-.3,3.6-1,1-.7,1.8-1.6,2.4-2.8v-12.2c-.6-1.1-1.4-2-2.4-2.7s-2.2-1-3.6-1-2.8.4-3.8,1.3-1.8,2.1-2.3,3.6-.8,3.3-.8,5.3v.5c0,2.7.6,4.8,1.7,6.4s2.8,2.4,5.1,2.4v.2ZM1020.3,1522.5l-1.9-3.9h5.9v3.1l-4,.9h0Z"
      />
      <path
        class="st5"
        d="M1026.1,1545v-3.1l4-.7v-30.5l-4-.7v-3.1h8.8v15.2c.9-1.3,2-2.3,3.3-3s2.8-1,4.4-1c2.8,0,5,.8,6.6,2.5s2.3,4.3,2.3,7.8v12.8l4,.7v3.1h-12.8v-3.1l4-.7v-12.8c0-2.2-.5-3.8-1.4-4.8s-2.3-1.6-4.2-1.6-2.5.3-3.6.9-2,1.5-2.7,2.6v15.7l4,.7v3.1h-12.8,0Z"
      />
      <path
        class="st5"
        d="M1067.3,1545.4c-2,0-3.5-.6-4.7-1.7-1.1-1.1-1.7-3-1.7-5.5v-16h-4.2v-3.6h4.2v-6.4h4.8v6.4h5.7v3.6h-5.7v16c0,1.3.3,2.2.8,2.8.5.6,1.2.9,2,.9s1.2,0,1.9-.2c.7,0,1.2-.2,1.6-.3l.7,3.1c-.7.2-1.6.4-2.6.6s-2,.2-2.8.2h0Z"
      />
    </g>
    <image
      class="st3"
      width="1444"
      height="1084"
      transform="translate(1475.8 925.4) scale(.5)"
      xlink:href="5.webp"
    />
    <rect x="1475.6" y="925.4" width="325" height="80" />
    <g>
      <path
        class="st5"
        d="M1495.6,984.8v-3.1l4-.7v-28l-4-.7v-3.1h26.7v8.5h-3.9l-.5-4.8h-13.5v12.3h13v3.8h-13v12l4,.7v3.1h-12.8,0Z"
      />
      <path
        class="st5"
        d="M1536.9,985.3c-2.4,0-4.5-.6-6.3-1.7-1.8-1.1-3.1-2.7-4.1-4.8-1-2-1.4-4.3-1.4-6.9v-.5c0-2.6.5-4.9,1.4-6.9,1-2,2.3-3.6,4.1-4.8,1.8-1.2,3.9-1.7,6.3-1.7s4.5.6,6.3,1.7c1.8,1.2,3.1,2.7,4.1,4.8,1,2,1.4,4.3,1.4,7v.5c0,2.6-.5,4.9-1.4,7-1,2-2.3,3.6-4.1,4.7-1.8,1.1-3.8,1.7-6.3,1.7h0ZM1536.9,981.6c1.5,0,2.8-.4,3.8-1.3,1-.8,1.8-2,2.3-3.4.5-1.5.8-3.1.8-5v-.5c0-1.9-.3-3.5-.8-5s-1.3-2.6-2.4-3.4c-1-.8-2.3-1.3-3.9-1.3s-2.8.4-3.9,1.3c-1,.8-1.8,2-2.3,3.4-.5,1.5-.8,3.1-.8,5v.5c0,1.9.3,3.5.8,5s1.3,2.6,2.4,3.4c1.1.8,2.3,1.3,3.9,1.3h0Z"
      />
      <path
        class="st5"
        d="M1562.6,984.8l-9.4-22.9-2.7-.4v-3.1h11.1v3.1l-3.4.5,5.9,15,.7,2.1h0l.8-2.1,5.4-15-3.5-.5v-3.1h11.1v3.1l-2.8.4-8.9,22.9h-4.4Z"
      />
      <path
        class="st5"
        d="M1592.6,985.3c-2.4,0-4.6-.6-6.4-1.7-1.8-1.1-3.2-2.7-4.2-4.7s-1.5-4.3-1.5-6.9v-1.1c0-2.5.5-4.7,1.5-6.7s2.4-3.5,4.1-4.7c1.7-1.1,3.6-1.7,5.6-1.7s4.4.5,6,1.5,2.8,2.3,3.6,4.1c.8,1.8,1.2,3.8,1.2,6.2v3h-17.2c0,1.8.3,3.3.9,4.6s1.4,2.3,2.4,3.1c1.1.7,2.3,1.1,3.8,1.1s3.1-.2,4.3-.7c1.2-.5,2.3-1.1,3.2-1.9l1.9,3.1c-.9.9-2.2,1.7-3.7,2.3-1.6.6-3.4.9-5.6.9v.2ZM1585.7,969h12.2v-.6c0-1.3-.2-2.4-.7-3.4-.4-1-1.1-1.8-2-2.4-.9-.6-2-.9-3.3-.9s-2.1.3-2.9.9c-.9.6-1.6,1.5-2.2,2.6s-.9,2.3-1.1,3.7h0Z"
      />
      <path
        class="st5"
        d="M1615,985.3c-2.8,0-4.8-.7-6.3-2-1.4-1.3-2.1-3.2-2.1-5.7s1-4.5,3.1-6,4.9-2.3,8.5-2.3h4.7v-2.6c0-1.6-.5-2.8-1.5-3.7s-2.3-1.3-4.1-1.3-2.1,0-2.9.4c-.8.3-1.6.6-2.2,1.1l-.5,3.7h-3.7v-6.1c1.2-1,2.6-1.7,4.2-2.2s3.3-.7,5.2-.7c3.2,0,5.7.8,7.5,2.3s2.7,3.7,2.7,6.6v14.7l2.6.3v3.1h-6.9c0-.7-.3-1.4-.3-1.9s0-1.1-.2-1.7c-.9,1.2-2.1,2.2-3.5,3s-2.9,1.2-4.5,1.2l.2-.2ZM1615.7,981.3c1.6,0,3.1-.4,4.4-1.1,1.3-.8,2.3-1.7,2.8-2.8v-4.8h-4.9c-2.2,0-3.9.5-5,1.6s-1.7,2.2-1.7,3.5.4,2,1.1,2.6,1.8.9,3.2.9h0Z"
      />
      <path
        class="st5"
        d="M1657.6,985.3c-2.2,0-4.1-.4-5.8-1.2-1.7-.8-3-1.9-4-3.4-.9-1.5-1.4-3.2-1.3-5.2h0c0,0,4.6,0,4.6,0,0,1.2.3,2.3.8,3.2s1.3,1.6,2.2,2.1c1,.5,2.1.8,3.4.8,2,0,3.6-.6,4.8-1.7,1.2-1.1,1.7-2.7,1.7-4.9s-.5-3.8-1.5-4.9c-1-1-2.6-1.6-4.9-1.6h-4.2v-3.8h4.2c1.4,0,2.6-.2,3.4-.7.9-.5,1.5-1.2,1.9-2.1.4-.9.6-2,.6-3.3,0-2-.5-3.6-1.5-4.6-1-1.1-2.5-1.6-4.5-1.6s-2.3.2-3.3.7c-.9.5-1.7,1.2-2.2,2.1-.5.9-.8,2-.8,3.2h-4.7c0-1.9.4-3.6,1.3-5,.9-1.5,2.2-2.6,3.8-3.5,1.7-.9,3.6-1.3,5.7-1.3,3.3,0,5.9.9,7.9,2.6,2,1.8,2.9,4.2,2.9,7.5s-.4,2.9-1.3,4.4-2.2,2.6-4,3.3c2.1.7,3.6,1.8,4.5,3.3s1.3,3.2,1.3,5-.5,4-1.5,5.6-2.3,2.8-4,3.6-3.7,1.3-5.9,1.3l.4.2Z"
      />
      <path
        class="st5"
        d="M1686.1,984.8v-3.1l4-.7v-28l-4-.7v-3.1h12.8v3.1l-4,.7v28.1h12.6l.6-5.6h3.7v9.3h-25.7Z"
      />
      <path
        class="st5"
        d="M1727.5,985.3c-2.4,0-4.6-.6-6.4-1.7-1.8-1.1-3.2-2.7-4.2-4.7s-1.5-4.3-1.5-6.9v-1.1c0-2.5.5-4.7,1.6-6.7,1-2,2.4-3.5,4.1-4.7,1.7-1.1,3.6-1.7,5.6-1.7s4.4.5,6,1.5,2.8,2.3,3.6,4.1c.8,1.8,1.2,3.8,1.2,6.2v3h-17.2c0,1.8.3,3.3.9,4.6s1.4,2.3,2.4,3.1c1.1.7,2.3,1.1,3.8,1.1s3.1-.2,4.3-.7c1.2-.5,2.3-1.1,3.2-1.9l1.9,3.1c-.9.9-2.2,1.7-3.7,2.3-1.6.6-3.4.9-5.6.9v.2ZM1720.6,969h12.2v-.6c0-1.3-.2-2.4-.7-3.4-.4-1-1.1-1.8-2-2.4-.9-.6-2-.9-3.3-.9s-2.1.3-2.9.9c-.9.6-1.6,1.5-2.2,2.6s-.9,2.3-1.1,3.7h0Z"
      />
      <path
        class="st5"
        d="M1741.2,984.8v-3.1l4-.7v-19.1h-4.1v-3.6h4.1v-3.3c0-2.8.7-5,2.2-6.5s3.5-2.3,6.2-2.3,1.2,0,1.8,0c.6,0,1.3.2,2,.4l-.6,3.7c-.3,0-.7,0-1.2-.2h-1.4c-1.4,0-2.5.4-3.1,1.3-.7.8-1,2.1-1,3.6v3.3h5.8v3.6h-5.8v19.1l4.5.7v3.1h-13.4Z"
      />
      <path
        class="st5"
        d="M1768.3,985.2c-2,0-3.5-.6-4.7-1.7-1.1-1.1-1.7-3-1.7-5.5v-16h-4.2v-3.6h4.2v-6.4h4.8v6.4h5.7v3.6h-5.7v16c0,1.3.3,2.2.8,2.8s1.2.9,2,.9,1.2,0,1.9-.2c.7,0,1.2-.2,1.6-.3l.7,3.1c-.7.2-1.6.4-2.6.6-1,.2-2,.2-2.8.2h0Z"
      />
    </g>
    <image
      class="st3"
      width="1444"
      height="1085"
      transform="translate(1475.9 1485.5) scale(.5)"
      xlink:href="6.webp"
    />
    <rect x="1475.6" y="1485.5" width="360" height="80" />
    <g>
      <path
        class="st5"
        d="M1495.6,1545v-3.1l4-.7v-28l-4-.7v-3.1h26.7v8.5h-3.9l-.5-4.8h-13.5v12.3h13v3.8h-13v12l4,.7v3.1h-12.8,0Z"
      />
      <path
        class="st5"
        d="M1536.9,1545.5c-2.4,0-4.5-.6-6.3-1.7s-3.1-2.7-4.1-4.8c-1-2-1.4-4.3-1.4-6.9v-.5c0-2.6.5-4.9,1.4-6.9,1-2,2.3-3.6,4.1-4.8,1.8-1.2,3.9-1.7,6.3-1.7s4.5.6,6.3,1.7c1.8,1.2,3.1,2.7,4.1,4.8,1,2,1.4,4.3,1.4,7v.5c0,2.6-.5,4.9-1.4,7-1,2-2.3,3.6-4.1,4.7-1.8,1.1-3.8,1.7-6.3,1.7h0ZM1536.9,1541.7c1.5,0,2.8-.4,3.8-1.3,1-.8,1.8-2,2.3-3.4.5-1.5.8-3.1.8-5v-.5c0-1.9-.3-3.5-.8-5s-1.3-2.6-2.4-3.4c-1-.8-2.3-1.3-3.9-1.3s-2.8.4-3.9,1.3c-1,.8-1.8,2-2.3,3.4-.5,1.5-.8,3.1-.8,5v.5c0,1.9.3,3.5.8,5s1.3,2.6,2.4,3.4,2.3,1.3,3.9,1.3h0Z"
      />
      <path
        class="st5"
        d="M1562.6,1545l-9.4-22.9-2.7-.4v-3.1h11.1v3.1l-3.4.5,5.9,15,.7,2.1h0l.8-2.1,5.4-15-3.5-.5v-3.1h11.1v3.1l-2.8.4-8.9,22.9h-4.4Z"
      />
      <path
        class="st5"
        d="M1592.6,1545.5c-2.4,0-4.6-.6-6.4-1.7s-3.2-2.7-4.2-4.7-1.5-4.3-1.5-6.9v-1.1c0-2.5.5-4.7,1.5-6.7s2.4-3.5,4.1-4.7c1.7-1.1,3.6-1.7,5.6-1.7s4.4.5,6,1.5,2.8,2.3,3.6,4.1c.8,1.8,1.2,3.8,1.2,6.2v3h-17.2c0,1.8.3,3.3.9,4.6.6,1.3,1.4,2.3,2.4,3.1,1.1.7,2.3,1.1,3.8,1.1s3.1-.2,4.3-.7c1.2-.5,2.3-1.1,3.2-1.9l1.9,3.1c-.9.9-2.2,1.7-3.7,2.3-1.6.6-3.4.9-5.6.9v.2ZM1585.7,1529.1h12.2v-.6c0-1.3-.2-2.4-.7-3.4-.4-1-1.1-1.8-2-2.4s-2-.9-3.3-.9-2.1.3-2.9.9c-.9.6-1.6,1.5-2.2,2.6s-.9,2.3-1.1,3.7h0Z"
      />
      <path
        class="st5"
        d="M1615,1545.5c-2.8,0-4.8-.7-6.3-2-1.4-1.3-2.1-3.2-2.1-5.7s1-4.5,3.1-6,4.9-2.3,8.5-2.3h4.7v-2.6c0-1.6-.5-2.8-1.5-3.7s-2.3-1.3-4.1-1.3-2.1,0-2.9.4-1.6.6-2.2,1.1l-.5,3.7h-3.7v-6.1c1.2-1,2.6-1.7,4.2-2.2s3.3-.7,5.2-.7c3.2,0,5.7.8,7.5,2.3s2.7,3.7,2.7,6.6v14.7l2.6.3v3.1h-6.9c0-.7-.3-1.4-.3-1.9s0-1.1-.2-1.7c-.9,1.2-2.1,2.2-3.5,3s-2.9,1.2-4.5,1.2l.2-.2ZM1615.7,1541.5c1.6,0,3.1-.4,4.4-1.1,1.3-.8,2.3-1.7,2.8-2.8v-4.8h-4.9c-2.2,0-3.9.5-5,1.6s-1.7,2.2-1.7,3.5.4,2,1.1,2.6,1.8.9,3.2.9h0Z"
      />
      <path
        class="st5"
        d="M1657.6,1545.5c-2.2,0-4.1-.4-5.8-1.2-1.7-.8-3-1.9-4-3.4-.9-1.5-1.4-3.2-1.3-5.2h0c0,0,4.6,0,4.6,0,0,1.2.3,2.3.8,3.2.5.9,1.3,1.6,2.2,2.1,1,.5,2.1.8,3.4.8,2,0,3.6-.6,4.8-1.7,1.2-1.1,1.7-2.7,1.7-4.9s-.5-3.8-1.5-4.9c-1-1-2.6-1.6-4.9-1.6h-4.2v-3.8h4.2c1.4,0,2.6-.2,3.4-.7.9-.5,1.5-1.2,1.9-2.1s.6-2,.6-3.3c0-2-.5-3.6-1.5-4.6-1-1.1-2.5-1.6-4.5-1.6s-2.3.2-3.3.7c-.9.5-1.7,1.2-2.2,2.1s-.8,2-.8,3.2h-4.7c0-1.9.4-3.6,1.3-5,.9-1.5,2.2-2.6,3.8-3.5,1.7-.9,3.6-1.3,5.7-1.3,3.3,0,5.9.9,7.9,2.6,2,1.8,2.9,4.2,2.9,7.5s-.4,2.9-1.3,4.4-2.2,2.6-4,3.3c2.1.7,3.6,1.8,4.5,3.3s1.3,3.2,1.3,5-.5,4-1.5,5.6-2.3,2.8-4,3.6c-1.7.8-3.7,1.3-5.9,1.3l.4.2Z"
      />
      <path
        class="st5"
        d="M1686.1,1545v-3.1l4-.7v-28l-4-.7v-3.1h15.8c2.6,0,4.8.4,6.6,1.2,1.8.8,3.1,1.9,4.1,3.4s1.4,3.3,1.4,5.4-.5,3.8-1.4,5.2c-.9,1.4-2.2,2.5-3.8,3.2-1.7.7-3.6,1.1-5.9,1.2h-8v12.3l4,.7v3.1h-12.8,0ZM1694.9,1525.3h6.6c2.7,0,4.6-.5,5.9-1.5s1.8-2.5,1.8-4.5-.6-3.4-1.8-4.4c-1.2-1.1-3-1.6-5.4-1.6h-7.1v12.1h0ZM1709.6,1545l-7.9-17.7h4.8l6.6,14.2,2.5.4v3.1h-6Z"
      />
      <path
        class="st5"
        d="M1719.6,1545v-3.1l4-.7v-18.9l-4-.7v-3.1h8.8v22.7l4,.7v3.1h-12.8ZM1723.3,1512.1v-5.2h5.1v5.2h-5.1Z"
      />
      <path
        class="st5"
        d="M1747.2,1555.7c-1.3,0-2.6-.2-4.1-.5-1.5-.4-2.8-.8-3.9-1.4l1.2-3.7c.9.5,2,.9,3.2,1.2,1.2.3,2.4.5,3.6.5,2.1,0,3.7-.6,4.7-1.8,1-1.2,1.5-2.9,1.5-5.2v-2.5c-.9,1.1-1.9,1.9-3.1,2.5s-2.6.9-4.2.9-4-.5-5.6-1.6-2.8-2.6-3.6-4.5c-.8-1.9-1.3-4.1-1.3-6.7v-.5c0-2.8.4-5.3,1.3-7.4.8-2.1,2-3.8,3.6-5s3.4-1.8,5.6-1.8,3.1.3,4.4,1,2.3,1.6,3.1,2.8l.4-3.3h4.1v26.1c0,2.3-.4,4.2-1.3,5.9-.9,1.6-2.1,2.9-3.7,3.8s-3.6,1.3-6,1.3h.1ZM1747.4,1541.6c1.4,0,2.7-.3,3.6-1,1-.7,1.8-1.6,2.4-2.8v-12.2c-.6-1.1-1.4-2-2.4-2.7s-2.2-1-3.6-1-2.8.4-3.8,1.3-1.8,2.1-2.3,3.6-.8,3.3-.8,5.3v.5c0,2.7.6,4.8,1.7,6.4s2.8,2.4,5.1,2.4v.2ZM1757.5,1522.5l-1.9-3.9h5.9v3.1l-4,.9h0Z"
      />
      <path
        class="st5"
        d="M1763.3,1545v-3.1l4-.7v-30.5l-4-.7v-3.1h8.8v15.2c.9-1.3,2-2.3,3.3-3s2.8-1,4.4-1c2.8,0,5,.8,6.6,2.5s2.3,4.3,2.3,7.8v12.8l4,.7v3.1h-12.8v-3.1l4-.7v-12.8c0-2.2-.5-3.8-1.4-4.8s-2.3-1.6-4.2-1.6-2.5.3-3.6.9-2,1.5-2.7,2.6v15.7l4,.7v3.1h-12.8,0Z"
      />
      <path
        class="st5"
        d="M1804.5,1545.4c-2,0-3.5-.6-4.7-1.7-1.1-1.1-1.7-3-1.7-5.5v-16h-4.2v-3.6h4.2v-6.4h4.8v6.4h5.7v3.6h-5.7v16c0,1.3.3,2.2.8,2.8.5.6,1.2.9,2,.9s1.2,0,1.9-.2c.7,0,1.2-.2,1.6-.3l.7,3.1c-.7.2-1.6.4-2.6.6s-2,.2-2.8.2h0Z"
      />
    </g>
    <image
      class="st3"
      width="1445"
      height="1084"
      transform="translate(2213.5 925.6) scale(.5)"
      xlink:href="7.webp"
    />
    <rect x="2213.4" y="925.4" width="325" height="80" />
    <g>
      <path
        class="st5"
        d="M2233.4,984.8v-3.1l4-.7v-28l-4-.7v-3.1h26.7v8.5h-3.9l-.5-4.8h-13.5v12.3h13v3.8h-13v12l4,.7v3.1h-12.8Z"
      />
      <path
        class="st5"
        d="M2274.7,985.3c-2.4,0-4.5-.6-6.3-1.7-1.8-1.1-3.1-2.7-4.1-4.8-1-2-1.4-4.3-1.4-6.9v-.5c0-2.6.5-4.9,1.4-6.9,1-2,2.3-3.6,4.1-4.8s3.9-1.7,6.3-1.7,4.5.6,6.3,1.7c1.8,1.2,3.1,2.7,4.1,4.8,1,2,1.4,4.3,1.4,7v.5c0,2.6-.5,4.9-1.4,7-1,2-2.3,3.6-4.1,4.7-1.8,1.1-3.8,1.7-6.3,1.7h0ZM2274.7,981.6c1.5,0,2.8-.4,3.8-1.3,1-.8,1.8-2,2.3-3.4.5-1.5.8-3.1.8-5v-.5c0-1.9-.3-3.5-.8-5s-1.3-2.6-2.4-3.4c-1-.8-2.3-1.3-3.9-1.3s-2.8.4-3.9,1.3c-1,.8-1.8,2-2.3,3.4-.5,1.5-.8,3.1-.8,5v.5c0,1.9.3,3.5.8,5s1.3,2.6,2.4,3.4c1,.8,2.3,1.3,3.9,1.3h0Z"
      />
      <path
        class="st5"
        d="M2300.4,984.8l-9.4-22.9-2.7-.4v-3.1h11.1v3.1l-3.4.5,5.9,15,.7,2.1h.1l.8-2.1,5.4-15-3.5-.5v-3.1h11.1v3.1l-2.8.4-8.9,22.9h-4.4Z"
      />
      <path
        class="st5"
        d="M2330.4,985.3c-2.4,0-4.6-.6-6.4-1.7-1.8-1.1-3.2-2.7-4.2-4.7s-1.5-4.3-1.5-6.9v-1.1c0-2.5.5-4.7,1.6-6.7,1-2,2.4-3.5,4.1-4.7,1.7-1.1,3.6-1.7,5.6-1.7s4.4.5,6,1.5,2.8,2.3,3.6,4.1,1.2,3.8,1.2,6.2v3h-17.2c0,1.8.3,3.3.9,4.6.6,1.3,1.4,2.3,2.4,3.1,1.1.7,2.3,1.1,3.8,1.1s3.1-.2,4.3-.7,2.3-1.1,3.2-1.9l1.9,3.1c-.9.9-2.2,1.7-3.7,2.3-1.6.6-3.4.9-5.6.9v.2ZM2323.5,969h12.2v-.6c0-1.3-.2-2.4-.7-3.4-.4-1-1.1-1.8-2-2.4-.9-.6-2-.9-3.3-.9s-2.1.3-2.9.9c-.9.6-1.6,1.5-2.2,2.6-.6,1.1-.9,2.3-1.1,3.7h0Z"
      />
      <path
        class="st5"
        d="M2352.8,985.3c-2.8,0-4.8-.7-6.3-2-1.4-1.3-2.1-3.2-2.1-5.7s1-4.5,3.1-6,4.9-2.3,8.5-2.3h4.7v-2.6c0-1.6-.5-2.8-1.5-3.7s-2.3-1.3-4.1-1.3-2.1,0-2.9.4c-.8.3-1.6.6-2.2,1.1l-.5,3.7h-3.7v-6.1c1.2-1,2.6-1.7,4.2-2.2,1.6-.5,3.3-.7,5.2-.7,3.2,0,5.7.8,7.5,2.3s2.7,3.7,2.7,6.6v14.7l2.6.3v3.1h-6.9c-.1-.7-.3-1.4-.3-1.9s-.1-1.1-.2-1.7c-.9,1.2-2.1,2.2-3.5,3s-2.9,1.2-4.5,1.2l.2-.2ZM2353.5,981.3c1.6,0,3.1-.4,4.4-1.1,1.3-.8,2.3-1.7,2.8-2.8v-4.8h-4.9c-2.2,0-3.9.5-5,1.6s-1.7,2.2-1.7,3.5.4,2,1.1,2.6c.7.6,1.8.9,3.2.9h0Z"
      />
      <path
        class="st5"
        d="M2396,984.8v-3.1l4-.7v-4.4h-16v-2.7l15.7-24.6h5.1v23.6h4.9v3.8h-4.9v4.4l4,.7v3.1h-12.8ZM2389.2,972.9h10.8v-16.7h-.1l-.5,1.2-10.2,15.5Z"
      />
      <path
        class="st5"
        d="M2425.9,984.8v-3.1l4-.7v-28l-4-.7v-3.1h12.8v3.1l-4,.7v28.1h12.6l.6-5.6h3.7v9.3h-25.7Z"
      />
      <path
        class="st5"
        d="M2467.3,985.3c-2.4,0-4.6-.6-6.4-1.7-1.8-1.1-3.2-2.7-4.2-4.7s-1.5-4.3-1.5-6.9v-1.1c0-2.5.5-4.7,1.6-6.7,1-2,2.4-3.5,4.1-4.7,1.7-1.1,3.6-1.7,5.6-1.7s4.4.5,6,1.5,2.8,2.3,3.6,4.1,1.2,3.8,1.2,6.2v3h-17.2c0,1.8.3,3.3.9,4.6.6,1.3,1.4,2.3,2.4,3.1,1.1.7,2.3,1.1,3.8,1.1s3.1-.2,4.3-.7,2.3-1.1,3.2-1.9l1.9,3.1c-.9.9-2.2,1.7-3.7,2.3-1.6.6-3.4.9-5.6.9v.2ZM2460.4,969h12.2v-.6c0-1.3-.2-2.4-.7-3.4-.4-1-1.1-1.8-2-2.4-.9-.6-2-.9-3.3-.9s-2.1.3-2.9.9c-.9.6-1.6,1.5-2.2,2.6-.6,1.1-.9,2.3-1.1,3.7h0Z"
      />
      <path
        class="st5"
        d="M2481,984.8v-3.1l4-.7v-19.1h-4.1v-3.6h4.1v-3.3c0-2.8.7-5,2.2-6.5s3.5-2.3,6.2-2.3,1.2,0,1.8,0c.6,0,1.3.2,2,.4l-.6,3.7c-.3,0-.7,0-1.2-.2s-1,0-1.4,0c-1.4,0-2.5.4-3.1,1.3-.7.8-1,2.1-1,3.6v3.3h5.8v3.6h-5.8v19.1l4.5.7v3.1h-13.4Z"
      />
      <path
        class="st5"
        d="M2508.1,985.2c-2,0-3.5-.6-4.7-1.7-1.1-1.1-1.7-3-1.7-5.5v-16h-4.2v-3.6h4.2v-6.4h4.8v6.4h5.7v3.6h-5.7v16c0,1.3.3,2.2.8,2.8s1.2.9,2,.9,1.2,0,1.9-.2c.7,0,1.2-.2,1.6-.3l.7,3.1c-.7.2-1.6.4-2.6.6-1,.2-2,.2-2.8.2h0Z"
      />
    </g>
    <image
      class="st3"
      width="1445"
      height="1085"
      transform="translate(2213.6 1485.6) scale(.5)"
      xlink:href="8.webp"
    />
    <rect x="2213.4" y="1485.5" width="360" height="80" />
    <g>
      <path
        class="st5"
        d="M2233.4,1545v-3.1l4-.7v-28l-4-.7v-3.1h26.7v8.5h-3.9l-.5-4.8h-13.5v12.3h13v3.8h-13v12l4,.7v3.1h-12.8Z"
      />
      <path
        class="st5"
        d="M2274.7,1545.5c-2.4,0-4.5-.6-6.3-1.7s-3.1-2.7-4.1-4.8c-1-2-1.4-4.3-1.4-6.9v-.5c0-2.6.5-4.9,1.4-6.9,1-2,2.3-3.6,4.1-4.8,1.8-1.2,3.9-1.7,6.3-1.7s4.5.6,6.3,1.7c1.8,1.2,3.1,2.7,4.1,4.8,1,2,1.4,4.3,1.4,7v.5c0,2.6-.5,4.9-1.4,7-1,2-2.3,3.6-4.1,4.7s-3.8,1.7-6.3,1.7h0ZM2274.7,1541.7c1.5,0,2.8-.4,3.8-1.3,1-.8,1.8-2,2.3-3.4.5-1.5.8-3.1.8-5v-.5c0-1.9-.3-3.5-.8-5s-1.3-2.6-2.4-3.4c-1-.8-2.3-1.3-3.9-1.3s-2.8.4-3.9,1.3c-1,.8-1.8,2-2.3,3.4-.5,1.5-.8,3.1-.8,5v.5c0,1.9.3,3.5.8,5s1.3,2.6,2.4,3.4c1,.8,2.3,1.3,3.9,1.3h0Z"
      />
      <path
        class="st5"
        d="M2300.4,1545l-9.4-22.9-2.7-.4v-3.1h11.1v3.1l-3.4.5,5.9,15,.7,2.1h.1l.8-2.1,5.4-15-3.5-.5v-3.1h11.1v3.1l-2.8.4-8.9,22.9h-4.4Z"
      />
      <path
        class="st5"
        d="M2330.4,1545.5c-2.4,0-4.6-.6-6.4-1.7-1.8-1.1-3.2-2.7-4.2-4.7s-1.5-4.3-1.5-6.9v-1.1c0-2.5.5-4.7,1.6-6.7,1-2,2.4-3.5,4.1-4.7,1.7-1.1,3.6-1.7,5.6-1.7s4.4.5,6,1.5,2.8,2.3,3.6,4.1c.8,1.8,1.2,3.8,1.2,6.2v3h-17.2c0,1.8.3,3.3.9,4.6.6,1.3,1.4,2.3,2.4,3.1,1.1.7,2.3,1.1,3.8,1.1s3.1-.2,4.3-.7,2.3-1.1,3.2-1.9l1.9,3.1c-.9.9-2.2,1.7-3.7,2.3-1.6.6-3.4.9-5.6.9v.2ZM2323.5,1529.1h12.2v-.6c0-1.3-.2-2.4-.7-3.4-.4-1-1.1-1.8-2-2.4s-2-.9-3.3-.9-2.1.3-2.9.9c-.9.6-1.6,1.5-2.2,2.6-.6,1.1-.9,2.3-1.1,3.7h0Z"
      />
      <path
        class="st5"
        d="M2352.8,1545.5c-2.8,0-4.8-.7-6.3-2-1.4-1.3-2.1-3.2-2.1-5.7s1-4.5,3.1-6,4.9-2.3,8.5-2.3h4.7v-2.6c0-1.6-.5-2.8-1.5-3.7s-2.3-1.3-4.1-1.3-2.1,0-2.9.4c-.8.3-1.6.6-2.2,1.1l-.5,3.7h-3.7v-6.1c1.2-1,2.6-1.7,4.2-2.2,1.6-.5,3.3-.7,5.2-.7,3.2,0,5.7.8,7.5,2.3s2.7,3.7,2.7,6.6v14.7l2.6.3v3.1h-6.9c-.1-.7-.3-1.4-.3-1.9s-.1-1.1-.2-1.7c-.9,1.2-2.1,2.2-3.5,3s-2.9,1.2-4.5,1.2l.2-.2ZM2353.5,1541.5c1.6,0,3.1-.4,4.4-1.1,1.3-.8,2.3-1.7,2.8-2.8v-4.8h-4.9c-2.2,0-3.9.5-5,1.6s-1.7,2.2-1.7,3.5.4,2,1.1,2.6c.7.6,1.8.9,3.2.9h0Z"
      />
      <path
        class="st5"
        d="M2396,1545v-3.1l4-.7v-4.4h-16v-2.7l15.7-24.6h5.1v23.6h4.9v3.8h-4.9v4.4l4,.7v3.1h-12.8ZM2389.2,1533h10.8v-16.7h-.1l-.5,1.2-10.2,15.5Z"
      />
      <path
        class="st5"
        d="M2425.9,1545v-3.1l4-.7v-28l-4-.7v-3.1h15.8c2.6,0,4.8.4,6.6,1.2,1.8.8,3.1,1.9,4.1,3.4s1.4,3.3,1.4,5.4-.5,3.8-1.4,5.2-2.2,2.5-3.8,3.2c-1.7.7-3.6,1.1-5.9,1.2h-8v12.3l4,.7v3.1h-12.8ZM2434.7,1525.3h6.6c2.7,0,4.6-.5,5.9-1.5s1.8-2.5,1.8-4.5-.6-3.4-1.8-4.4c-1.2-1.1-3-1.6-5.4-1.6h-7.1v12.1h0ZM2449.3,1545l-7.9-17.7h4.8l6.6,14.2,2.5.4v3.1h-6Z"
      />
      <path
        class="st5"
        d="M2459.3,1545v-3.1l4-.7v-18.9l-4-.7v-3.1h8.8v22.7l4,.7v3.1h-12.8ZM2463.1,1512.1v-5.2h5.1v5.2h-5.1Z"
      />
      <path
        class="st5"
        d="M2487,1555.7c-1.3,0-2.6-.2-4.1-.5-1.5-.4-2.8-.8-3.9-1.4l1.2-3.7c.9.5,2,.9,3.2,1.2,1.2.3,2.4.5,3.6.5,2.1,0,3.7-.6,4.7-1.8,1-1.2,1.5-2.9,1.5-5.2v-2.5c-.9,1.1-1.9,1.9-3.1,2.5-1.2.6-2.6.9-4.2.9s-4-.5-5.6-1.6-2.8-2.6-3.6-4.5-1.3-4.1-1.3-6.7v-.5c0-2.8.4-5.3,1.3-7.4.8-2.1,2-3.8,3.6-5s3.4-1.8,5.6-1.8,3.1.3,4.4,1c1.3.7,2.3,1.6,3.1,2.8l.4-3.3h4.1v26.1c0,2.3-.4,4.2-1.3,5.9-.9,1.6-2.1,2.9-3.7,3.8-1.6.9-3.6,1.3-6,1.3h.1ZM2487.2,1541.6c1.4,0,2.7-.3,3.6-1,1-.7,1.8-1.6,2.4-2.8v-12.2c-.6-1.1-1.4-2-2.4-2.7s-2.2-1-3.6-1-2.8.4-3.8,1.3-1.8,2.1-2.3,3.6-.8,3.3-.8,5.3v.5c0,2.7.6,4.8,1.7,6.4s2.8,2.4,5.1,2.4v.2ZM2497.3,1522.5l-1.9-3.9h5.9v3.1l-4,.9h0Z"
      />
      <path
        class="st5"
        d="M2503.1,1545v-3.1l4-.7v-30.5l-4-.7v-3.1h8.8v15.2c.9-1.3,2-2.3,3.3-3s2.8-1,4.4-1c2.8,0,5,.8,6.6,2.5s2.3,4.3,2.3,7.8v12.8l4,.7v3.1h-12.8v-3.1l4-.7v-12.8c0-2.2-.5-3.8-1.4-4.8s-2.3-1.6-4.2-1.6-2.5.3-3.6.9-2,1.5-2.7,2.6v15.7l4,.7v3.1h-12.8,0Z"
      />
      <path
        class="st5"
        d="M2544.3,1545.4c-2,0-3.5-.6-4.7-1.7s-1.7-3-1.7-5.5v-16h-4.2v-3.6h4.2v-6.4h4.8v6.4h5.7v3.6h-5.7v16c0,1.3.3,2.2.8,2.8.5.6,1.2.9,2,.9s1.2,0,1.9-.2c.7,0,1.2-.2,1.6-.3l.7,3.1c-.7.2-1.6.4-2.6.6s-2,.2-2.8.2h0Z"
      />
    </g>
    <g class="st6">
      <g>
        <image
          class="st3"
          width="1454"
          height="1090"
          transform="translate(-567.2 -938.2) scale(2.45)"
          xlink:href="9.webp"
        />
        <rect class="st1" x="351.2" y="252.3" width="358.2" height="268.6" />
        <rect class="st1" x="957.9" y="252.3" width="358.2" height="268.6" />
        <rect class="st1" x="1564.4" y="252.3" width="358.2" height="268.6" />
        <g class="st3">
          <text class="st4" transform="translate(472 731.8)">
            <tspan x="0" y="0">1</tspan>
          </text>
        </g>
        <path
          class="st2"
          d="M550,731.8v-139.2h-22.4c-.7,5.3-2.5,9.7-4.9,13.3-2.5,3.6-5.5,6.4-9.2,8.6s-7.8,3.7-12.3,4.6-9.4,1.2-14.2,1.1v21.3h35v90.3h28.2-.1Z"
        />
        <g class="st3">
          <text class="st4" transform="translate(1078.5 731.8)">
            <tspan x="0" y="0">2</tspan>
          </text>
        </g>
        <path
          class="st2"
          d="M1085.9,646.1h27.1c0-3.7.4-7.5,1.1-11.2.7-3.8,2-7.3,3.7-10.4s4.1-5.7,6.9-7.5c2.8-2,6.3-2.8,10.5-2.8,6.2,0,11.1,1.8,15,5.7s5.9,9,5.9,15.8-1,8-2.8,11.3c-2,3.3-4.3,6.3-7.1,9s-6,5.1-9.5,7.3c-3.5,2.2-6.7,4.3-9.7,6.4-5.9,4.1-11.6,8.1-17,12.2-5.4,3.9-10.1,8.4-14,13.1-3.9,4.7-7.1,10.1-9.5,16-2.3,5.9-3.5,13.1-3.5,21.1h102.3v-24.3h-65.9c3.5-4.8,7.4-9,12-12.6,4.6-3.6,9.1-6.9,13.9-10.1,4.8-3.1,9.5-6.3,14.2-9.5s8.9-6.8,12.7-10.6c3.7-3.9,6.7-8.4,9-13.4,2.2-5.1,3.3-11.1,3.3-18.1s-1.2-12.8-3.8-18.4c-2.6-5.4-6-10-10.5-13.7s-9.5-6.5-15.3-8.5c-5.8-2-11.8-3-18.2-3s-15.8,1.5-22.2,4.3-11.8,6.8-16,12c-4.2,5.1-7.4,11.1-9.6,17.9-2.2,6.8-3.1,14.2-2.8,22.2h0Z"
        />
        <g class="st3">
          <text class="st4" transform="translate(1685.1 732.1)">
            <tspan x="0" y="0">3</tspan>
          </text>
        </g>
        <path
          class="st2"
          d="M1730.5,649v19.8c3.5,0,7,0,10.8.2,3.8.2,7.3,1,10.5,2.2s5.8,3.3,7.9,6,3.1,6.8,3.1,12.2-2.2,12.1-6.5,16c-4.4,3.9-9.7,5.9-16.1,5.9s-7.6-.7-10.6-2.2-5.4-3.5-7.5-5.9c-2-2.5-3.6-5.4-4.6-8.7-1.1-3.3-1.6-6.9-1.8-10.6h-26.9c-.1,8.1,1,15.3,3.5,21.4,2.5,6.3,5.9,11.5,10.5,15.8,4.6,4.3,10,7.6,16.4,9.9,6.4,2.2,13.6,3.3,21.4,3.3s13.3-1,19.5-3c6.3-2,11.7-4.9,16.5-8.7s8.6-8.6,11.5-14.3,4.3-12.2,4.3-19.5-2.2-14.8-6.5-20.5c-4.3-5.7-10.5-9.4-18.1-11.1v-.4c6.5-1.8,11.3-5.4,14.7-10.6,3.2-5.2,4.9-11.1,4.9-17.9s-1.4-11.7-4.2-16.5-6.4-8.9-10.8-12.2c-4.4-3.3-9.5-5.8-15-7.5s-11.1-2.5-16.8-2.5-13.7,1.1-19.5,3.5c-5.8,2.3-10.8,5.5-15,9.9-4.2,4.2-7.4,9.4-9.7,15.3-2.3,5.9-3.6,12.4-3.8,19.6h26.9c-.1-7.1,1.6-13.1,5.3-17.9,3.7-4.7,9-7,16.3-7s9.7,1.6,13.7,4.8,5.9,7.8,5.9,13.7-1,7.1-2.8,9.6c-2,2.3-4.4,4.2-7.4,5.4s-6.2,2-9.6,2.3c-3.5.2-6.7.2-9.7,0h-.2Z"
        />
        <rect class="st1" x="2171" y="252.3" width="358.2" height="268.6" />
        <g class="st3">
          <text class="st4" transform="translate(2291.6 732.1)">
            <tspan x="0" y="0">4</tspan>
          </text>
        </g>
        <path
          class="st2"
          d="M2353.7,699.8v32.3h26.9v-32.3h18.5v-23.3h-18.5v-83.8h-25.3l-60.5,81.2v25.9h58.9ZM2353.7,628.2v48.3h-36.6l36-48.3h.6Z"
        />
      </g>
    </g>
  </g>
</svg>
