<?xml version="1.0" encoding="UTF-8"?>
<svg
  id="extrinsic-calib-regression"
  xmlns="http://www.w3.org/2000/svg"
  version="1.1"
  viewBox="0 0 2520 2520"
>
  <defs>
    <style>
      .st0 {
        stroke-dasharray: 16 8;
      }
      .st0,
      .st1,
      .st2,
      .st3,
      .st5 {
        fill: none;
      }
      .st0,
      .st1,
      .st2,
      .st5 {
        stroke: currentColor;
      }
      .st0,
      .st3 {
        stroke-width: 3px;
      }
      .st6,
      .st5 {
        stroke-miterlimit: 10;
      }
      .st8 {
        letter-spacing: 0em;
      }
      .st8,
      .st9,
      .st3,
      .st10,
      .st11 {
        isolation: isolate;
      }
      .st8,
      .st10,
      .st11 {
        font-size: 60px;
      }
      .st8,
      .st11 {
        font-family: TimesNewRomanPSMT, "Times New Roman";
      }
      .points.blue circle,
      .points.red circle {
        r: 10px;
      }
      .points.mea circle {
        r: 20px;
        fill: none;
        stroke: currentColor;
        stroke-width: 4px;
      }
      .points.red circle {
        fill: red;
      }
      :root.dark .points.red circle {
        fill: #F40;
      }
      .points.blue circle {
        fill: blue;
      }
      :root.dark .points.blue circle {
        fill: #08F;
      }
      .st1 {
        stroke-width: 5px;
      }
      .st1,
      .st2,
      .st3 {
        stroke-linejoin: round;
      }
      .st2 {
        stroke-width: 4px;
      }
      .st3 {
        opacity: 0.5;
        stroke: currentColor;
        stroke-dasharray: 12 8;
      }
      .st5 {
        stroke-linecap: square;
      }
      .st5 {
        stroke-width: 4px;
      }
      .st10 {
        font-family: Times-Bold, Times;
        font-weight: 700;
      }
      .sample-traces polyline {
        isolation: isolate;
        stroke: currentColor;
        stroke-linejoin: round;
        stroke-linecap: round;
        opacity: 0.2;
        stroke-width: 8px;
        fill: none;
      }
      .text {
        fill: currentColor;
      }
    </style>
  </defs>
  <g class="axes-grid">
    <line class="st3" x1="192.5" y1="2391.8" x2="192.5" y2="1362" />
    <line class="st3" x1="450" y1="2391.8" x2="450" y2="1362" />
    <line class="st3" x1="707.4" y1="2391.8" x2="707.4" y2="1362" />
    <line class="st3" x1="964.9" y1="2391.8" x2="964.9" y2="1362" />
    <line class="st3" x1="1222.3" y1="2391.8" x2="1222.3" y2="1362" />
    <line class="st3" x1="192.5" y1="2391.8" x2="1222.3" y2="2391.8" />
    <line class="st3" x1="192.5" y1="2134.4" x2="1222.3" y2="2134.4" />
    <line class="st3" x1="192.5" y1="1876.9" x2="1222.3" y2="1876.9" />
    <line class="st3" x1="192.5" y1="1619.5" x2="1222.3" y2="1619.5" />
    <line class="st3" x1="192.5" y1="1362" x2="1222.3" y2="1362" />
    <line class="st3" x1="1428.3" y1="2391.8" x2="1428.3" y2="1362" />
    <line class="st3" x1="1685.7" y1="2391.8" x2="1685.7" y2="1362" />
    <line class="st3" x1="1943.2" y1="2391.8" x2="1943.2" y2="1362" />
    <line class="st3" x1="2200.6" y1="2391.8" x2="2200.6" y2="1362" />
    <line class="st3" x1="2458.1" y1="2391.8" x2="2458.1" y2="1362" />
    <line class="st3" x1="1428.3" y1="2391.8" x2="2458.1" y2="2391.8" />
    <line class="st3" x1="1428.3" y1="2134.4" x2="2458.1" y2="2134.4" />
    <line class="st3" x1="1428.3" y1="1876.9" x2="2458.1" y2="1876.9" />
    <line class="st3" x1="1428.3" y1="1619.5" x2="2458.1" y2="1619.5" />
    <line class="st3" x1="1428.3" y1="1362" x2="2458.1" y2="1362" />
    <line class="st3" x1="214.6" y1="1032.7" x2="214.6" y2="18.2" />
    <line class="st3" x1="468.2" y1="1032.7" x2="468.2" y2="18.2" />
    <line class="st3" x1="721.8" y1="1032.7" x2="721.8" y2="18.2" />
    <line class="st3" x1="975.5" y1="1032.7" x2="975.5" y2="18.2" />
    <line class="st3" x1="1229.1" y1="1032.7" x2="1229.1" y2="18.2" />
    <line class="st3" x1="214.6" y1="1032.7" x2="1229.1" y2="1032.7" />
    <line class="st3" x1="214.6" y1="779.1" x2="1229.1" y2="779.1" />
    <line class="st3" x1="214.6" y1="525.5" x2="1229.1" y2="525.5" />
    <line class="st3" x1="214.6" y1="271.9" x2="1229.1" y2="271.9" />
    <line class="st3" x1="1432" y1="1032.7" x2="1432" y2="18.2" />
    <line class="st3" x1="1685.6" y1="1032.7" x2="1685.6" y2="18.2" />
    <line class="st3" x1="1939.2" y1="1032.7" x2="1939.2" y2="18.2" />
    <line class="st3" x1="2192.9" y1="1032.7" x2="2192.9" y2="18.2" />
    <line class="st3" x1="2446.5" y1="1032.7" x2="2446.5" y2="18.2" />
    <line class="st3" x1="1432" y1="1032.7" x2="2446.5" y2="1032.7" />
    <line class="st3" x1="1432" y1="779.1" x2="2446.5" y2="779.1" />
    <line class="st3" x1="1432" y1="525.5" x2="2446.5" y2="525.5" />
    <line class="st3" x1="1432" y1="271.9" x2="2446.5" y2="271.9" />
    <line class="st3" x1="1432" y1="18.2" x2="2446.5" y2="18.2" />
  </g>
  <g class="sample-traces">
    <polyline points="1164.3 1485.2 1049.5 1485 934.7 1484.8 819.8 1484.6 705 1484.4 590.2 1484.2 475.4 1483.9 360.5 1483.7 245.7 1483.5 245.3 1580.4 359.9 1581.1 474.5 1581.8 589.2 1582.5 703.8 1583.1 818.4 1583.8 933 1584.5 1047.7 1585.1 1162.3 1585.8 1160.2 1686.4 1045.8 1685.3 931.4 1684.1 817 1683 702.6 1681.9 588.1 1680.7 473.7 1679.6 359.3 1678.5 244.9 1677.4 244.5 1774.3 358.7 1775.9 472.9 1777.5 587.1 1779 701.3 1780.6 815.6 1782.2 929.8 1783.8 1044 1785.4 1158.2 1787 1156.2 1887.6 1042.2 1885.5 928.1 1883.5 814.1 1881.4 700.1 1879.4 586.1 1877.3 472.1 1875.3 358.1 1873.2 244.1 1871.2 243.7 1968.1 357.5 1970.6 471.3 1973.1 585.1 1975.6 698.9 1978.1 812.7 1980.6 926.5 1983.1 1040.3 1985.6 1154.1 1988.1 1152.1 2088.7 1038.5 2085.8 924.9 2082.8 811.3 2079.8 697.7 2076.9 584.1 2073.9 470.5 2071 356.9 2068 243.3 2065 242.9 2162 356.3 2165.4 469.7 2168.8 583.1 2172.2 696.5 2175.6 809.9 2179.1 923.3 2182.5 1036.7 2185.9 1150.1 2189.3 1148 2289.9 1034.8 2286 921.6 2282.1 808.4 2278.3 695.2 2274.4 582 2270.5 468.8 2266.6 355.6 2262.8 242.4 2258.9"/>
    <polyline points="2400.1 1485.2 2285.2 1485 2170.4 1484.8 2055.6 1484.6 1940.8 1484.4 1825.9 1484.2 1711.1 1483.9 1596.3 1483.7 1481.5 1483.5 1481.1 1580.4 1595.7 1581.1 1710.3 1581.8 1824.9 1582.5 1939.5 1583.1 2054.2 1583.8 2168.8 1584.5 2283.4 1585.1 2398 1585.8 2396 1686.4 2281.6 1685.3 2167.2 1684.1 2052.7 1683 1938.3 1681.9 1823.9 1680.7 1709.5 1679.6 1595.1 1678.5 1480.6 1677.4 1480.2 1774.3 1594.5 1775.9 1708.7 1777.5 1822.9 1779 1937.1 1780.6 2051.3 1782.2 2165.5 1783.8 2279.8 1785.4 2394 1787 2391.9 1887.6 2277.9 1885.5 2163.9 1883.5 2049.9 1881.4 1935.9 1879.4 1821.9 1877.3 1707.9 1875.3 1593.8 1873.2 1479.8 1871.2 1479.4 1968.1 1593.2 1970.6 1707 1973.1 1820.9 1975.6 1934.7 1978.1 2048.5 1980.6 2162.3 1983.1 2276.1 1985.6 2389.9 1988.1 2387.9 2088.7 2274.3 2085.8 2160.6 2082.8 2047 2079.8 1933.4 2076.9 1819.8 2073.9 1706.2 2071 1592.6 2068 1479 2065 1478.6 2162 1592 2165.4 1705.4 2168.8 1818.8 2172.2 1932.2 2175.6 2045.6 2179.1 2159 2182.5 2272.4 2185.9 2385.8 2189.3 2383.8 2289.9 2270.6 2286 2157.4 2282.1 2044.2 2278.3 1931 2274.4 1817.8 2270.5 1704.6 2266.6 1591.4 2262.8 1478.2 2258.9"/>
    <polyline points="1194.6 87.1 1062.8 83.2 944.1 78.4 837.1 73.7 730.7 69.1 624.9 64.8 518.3 60.5 401.2 56.4 266.2 52.6 260.1 185.3 393.1 187.5 510.8 190.2 617 193.2 722.9 196.2 828.9 199.4 935.4 202.6 1052.5 206.1 1186.1 209.8 1180.9 319.3 1049.8 319 933.8 319.1 827.4 318.1 721.9 316.9 616.4 315 510.3 313.1 392.6 311 256.7 308.5 255 414.5 388.3 415.5 506.4 416.8 611.9 418.1 717.5 419.4 822.9 420.6 928.7 421.6 1044.5 422.8 1176 423.9 1175.8 528 1046.5 530.2 931 531.3 825.3 531.9 720.2 532.1 614.7 531.8 509.6 531.1 391.9 530 256.3 528.9 258.9 633.4 391.2 633.4 509 634 614 634.1 718.9 633.9 824.4 632.9 929.4 632.2 1045.3 631.2 1176.6 630.2 1181.6 733.3 1051.6 738.1 935.6 741 830.5 742.7 725.1 744.1 620.2 744.9 515.6 745.9 398.8 746.7 264.9 746.7 271.7 862.9 402 861.1 518.2 859.8 622.6 859 727.5 857.8 833.3 855.6 938.1 852.4 1054.2 849.1 1187.3 845.4 1197.2 971.7 1065.4 981.2 948.2 987.6 843 991.8 737.5 995.2 632.7 998.2 528.6 1000.5 413.6 1001.1 282.2 1001.1"/>
    <polyline points="2365.5 54.2 2241 63 2129.3 70.7 2026.4 78.5 1922.6 86.4 1820.5 94.4 1716.9 102.4 1600.5 110.7 1465.6 118.9 1473.3 229.9 1604.5 223.9 1719.9 218.3 1822.8 212.9 1925.1 207.6 2028.3 202.5 2131.3 197.5 2243 192.7 2370.7 188 2375.2 305.6 2248.9 310.4 2137.2 315.2 2034.2 319 1931.6 322.4 1829.4 325.3 1727 328.2 1612.4 331 1479.8 333.5 1483.1 424.6 1612.5 423 1726.7 421.8 1828.5 420.8 1930.8 419.7 2033.3 418.7 2136 417.7 2248 416.9 2375.4 416 2375.3 525.4 2250 527.3 2138.3 528 2035.8 528.2 1933.5 528.1 1831.2 527.4 1729.9 526.5 1616 525.3 1484.7 524.3 1483.3 614.4 1612.1 616.5 1726.1 619.5 1827.3 622 1929 624.5 2031.6 626.3 2133.2 628.4 2244.8 630.4 2371.5 632.4 2366.8 740.5 2242.6 740 2131.9 737.4 2030.5 733.4 1927.9 729.4 1826.6 725 1725.4 721 1611.3 716.8 1479.9 712 1473.7 809.7 1603.4 815.6 1718.2 822.4 1819.3 829.6 1920.2 836.8 2023 843.6 2123.9 849.4 2232.9 855.3 2358.2 860.9 2348.5 998.6 2226.4 995.3 2118.6 988.3 2018.1 979.2 1915.5 969.4 1814.9 959.7 1713.6 949.6 1598.3 938.1 1465.7 926.5"/>
  </g>
  <g class="ticks">
    <line class="st2" x1="192.5" y1="2391.8" x2="192.5" y2="2409.6" />
    <line class="st2" x1="450" y1="2391.8" x2="450" y2="2409.6" />
    <line class="st2" x1="707.4" y1="2391.8" x2="707.4" y2="2409.6" />
    <line class="st2" x1="964.9" y1="2391.8" x2="964.9" y2="2409.6" />
    <line class="st2" x1="1222.3" y1="2391.8" x2="1222.3" y2="2409.6" />
    <line class="st2" x1="192.5" y1="2391.8" x2="174.8" y2="2391.8" />
    <line class="st2" x1="192.5" y1="2134.4" x2="174.8" y2="2134.4" />
    <line class="st2" x1="192.5" y1="1876.9" x2="174.8" y2="1876.9" />
    <line class="st2" x1="192.5" y1="1619.5" x2="174.8" y2="1619.5" />
    <line class="st2" x1="192.5" y1="1362" x2="174.8" y2="1362" />
    <line class="st2" x1="1428.3" y1="2391.8" x2="1428.3" y2="2409.6" />
    <line class="st2" x1="1685.7" y1="2391.8" x2="1685.7" y2="2409.6" />
    <line class="st2" x1="1943.2" y1="2391.8" x2="1943.2" y2="2409.6" />
    <line class="st2" x1="2200.6" y1="2391.8" x2="2200.6" y2="2409.6" />
    <line class="st2" x1="2458.1" y1="2391.8" x2="2458.1" y2="2409.6" />
    <line class="st2" x1="1428.3" y1="2391.8" x2="1410.5" y2="2391.8" />
    <line class="st2" x1="1428.3" y1="2134.4" x2="1410.5" y2="2134.4" />
    <line class="st2" x1="1428.3" y1="1876.9" x2="1410.5" y2="1876.9" />
    <line class="st2" x1="1428.3" y1="1619.5" x2="1410.5" y2="1619.5" />
    <line class="st2" x1="1428.3" y1="1362" x2="1410.5" y2="1362" />
    <line class="st2" x1="214.6" y1="1032.7" x2="214.6" y2="1050.2" />
    <line class="st2" x1="468.2" y1="1032.7" x2="468.2" y2="1050.2" />
    <line class="st2" x1="721.8" y1="1032.7" x2="721.8" y2="1050.2" />
    <line class="st2" x1="975.5" y1="1032.7" x2="975.5" y2="1050.2" />
    <line class="st2" x1="1229.1" y1="1032.7" x2="1229.1" y2="1050.2" />
    <line class="st2" x1="214.6" y1="1032.7" x2="197.1" y2="1032.7" />
    <line class="st2" x1="214.6" y1="779.1" x2="197.1" y2="779.1" />
    <line class="st2" x1="214.6" y1="525.5" x2="197.1" y2="525.5" />
    <line class="st2" x1="214.6" y1="271.9" x2="197.1" y2="271.9" />
    <line class="st2" x1="214.6" y1="18.2" x2="197.1" y2="18.2" />
    <line class="st2" x1="1432" y1="1032.7" x2="1432" y2="1050.2" />
    <line class="st2" x1="1685.6" y1="1032.7" x2="1685.6" y2="1050.2" />
    <line class="st2" x1="1939.2" y1="1032.7" x2="1939.2" y2="1050.2" />
    <line class="st2" x1="2192.9" y1="1032.7" x2="2192.9" y2="1050.2" />
    <line class="st2" x1="2446.5" y1="1032.7" x2="2446.5" y2="1050.2" />
    <line class="st2" x1="1432" y1="1032.7" x2="1414.5" y2="1032.7" />
    <line class="st2" x1="1432" y1="779.1" x2="1414.5" y2="779.1" />
    <line class="st2" x1="1432" y1="525.5" x2="1414.5" y2="525.5" />
    <line class="st2" x1="1432" y1="271.9" x2="1414.5" y2="271.9" />
    <line class="st2" x1="1432" y1="18.2" x2="1414.5" y2="18.2" />
  </g>
  <g class="axes-box">
    <line class="st5" x1="192.5" y1="2391.8" x2="192.5" y2="1362" />
    <line class="st5" x1="1222.3" y1="2391.8" x2="1222.3" y2="1362" />
    <line class="st5" x1="192.5" y1="2391.8" x2="1222.3" y2="2391.8" />
    <line class="st5" x1="192.5" y1="1362" x2="1222.3" y2="1362" />
    <line class="st5" x1="1428.3" y1="2391.8" x2="1428.3" y2="1362" />
    <line class="st5" x1="2458.1" y1="2391.8" x2="2458.1" y2="1362" />
    <line class="st5" x1="1428.3" y1="2391.8" x2="2458.1" y2="2391.8" />
    <line class="st5" x1="1428.3" y1="1362" x2="2458.1" y2="1362" />
    <line class="st5" x1="214.6" y1="1032.7" x2="214.6" y2="18.2" />
    <line class="st5" x1="1229.1" y1="1032.7" x2="1229.1" y2="18.2" />
    <line class="st5" x1="214.6" y1="1032.7" x2="1229.1" y2="1032.7" />
    <line class="st5" x1="214.6" y1="18.2" x2="1229.1" y2="18.2" />
    <line class="st5" x1="1432" y1="1032.7" x2="1432" y2="18.2" />
    <line class="st5" x1="2446.5" y1="1032.7" x2="2446.5" y2="18.2" />
    <line class="st5" x1="1432" y1="1032.7" x2="2446.5" y2="1032.7" />
    <line class="st5" x1="1432" y1="18.2" x2="2446.5" y2="18.2" />
  </g>
  <line class="st0" y1="1310" x2="2520" y2="1310" />
  <line class="st0" y1="1191" x2="2520" y2="1191" />
  <g class="text">
    <path d="M187.4,2432.3l8.2-4h.8v28.4c0,1.9,0,3.1.3,3.6.2.5.5.8,1,1.1s1.5.4,3,.4v.9h-12.6v-.9c1.6,0,2.6-.2,3-.4.5-.2.8-.6,1-1s.3-1.6.3-3.7v-18.1c0-2.4-.1-4-.3-4.7-.1-.5-.3-.9-.6-1.2-.3-.2-.7-.4-1.1-.4-.6,0-1.5.3-2.5.8l-.4-.8h0Z"/>
    <path d="M213.5,2446.6c0,4.7.6,8.4,1.7,11.3.9,2.5,2.3,3.7,4.2,3.7s1.8-.4,2.7-1.2c1-.8,1.7-2.1,2.2-4.1.8-2.8,1.2-6.9,1.2-12s-.4-7-1.2-9.6c-.6-1.9-1.4-3.2-2.3-4-.7-.6-1.5-.9-2.5-.9s-2.1.5-3,1.5c-1.2,1.4-2,3.6-2.4,6.5s-.6,5.8-.6,8.7h0ZM208.7,2446c0-3.8.6-7.1,1.7-9.9,1.1-2.7,2.7-4.8,4.6-6.2,1.5-1.1,3-1.6,4.6-1.6,2.5,0,4.9,1.3,7,4,2.5,3.2,3.8,7.7,3.8,13.2s-.6,7.2-1.7,9.9c-1.1,2.7-2.6,4.7-4.3,5.9s-3.4,1.8-5,1.8c-3.2,0-5.9-1.9-8-5.6-1.8-3.1-2.7-7-2.7-11.5h0Z"/>
    <path d="M473.6,2429l-1.9,4.2h-10.1l-2.2,4.5c4.4.7,7.9,2.3,10.4,4.9,2.2,2.2,3.3,4.9,3.3,7.9s-.4,3.4-1.1,4.9-1.6,2.8-2.7,3.9c-1.1,1.1-2.3,1.9-3.6,2.5-1.9.9-3.9,1.3-5.8,1.3s-3.5-.4-4.4-1c-.9-.7-1.4-1.4-1.4-2.2s.2-.9.6-1.2c.4-.4.8-.6,1.4-.6s.8.1,1.1.2c.3.2.9.5,1.7,1,1.2.9,2.5,1.3,3.8,1.3,1.9,0,3.6-.7,5.1-2.2,1.5-1.4,2.2-3.2,2.2-5.3s-.7-3.9-2-5.7c-1.3-1.7-3.1-3.1-5.4-4.1-1.8-.7-4.3-1.2-7.4-1.3l6.4-13h12Z"/>
    <path d="M701.4,2446.6c0,4.7.6,8.4,1.7,11.3.9,2.5,2.3,3.7,4.2,3.7s1.8-.4,2.7-1.2c1-.8,1.7-2.1,2.2-4.1.8-2.8,1.2-6.9,1.2-12s-.4-7-1.2-9.6c-.6-1.9-1.4-3.2-2.3-4-.7-.6-1.5-.9-2.5-.9s-2.1.5-3,1.5c-1.2,1.4-2,3.6-2.4,6.5s-.6,5.8-.6,8.7h0ZM696.6,2446c0-3.8.6-7.1,1.7-9.9,1.1-2.7,2.7-4.8,4.6-6.2,1.5-1.1,3-1.6,4.6-1.6,2.5,0,4.9,1.3,7,4,2.5,3.2,3.8,7.7,3.8,13.2s-.6,7.2-1.7,9.9c-1.1,2.7-2.6,4.7-4.3,5.9s-3.4,1.8-5,1.8c-3.2,0-5.9-1.9-8-5.6-1.8-3.1-2.7-7-2.7-11.5h0Z"/>
    <path d="M974.2,2429l-1.9,4.2h-10.1l-2.2,4.5c4.4.7,7.9,2.3,10.4,4.9,2.2,2.2,3.3,4.9,3.3,7.9s-.4,3.4-1.1,4.9c-.7,1.5-1.6,2.8-2.7,3.9-1.1,1.1-2.3,1.9-3.6,2.5-1.9.9-3.9,1.3-5.8,1.3s-3.5-.4-4.4-1c-.9-.7-1.4-1.4-1.4-2.2s.2-.9.6-1.2c.4-.4.8-.6,1.4-.6s.8.1,1.1.2c.3.2.9.5,1.7,1,1.2.9,2.5,1.3,3.8,1.3,1.9,0,3.6-.7,5.1-2.2,1.5-1.4,2.2-3.2,2.2-5.3s-.7-3.9-2-5.7c-1.3-1.7-3.1-3.1-5.4-4.1-1.8-.7-4.3-1.2-7.4-1.3l6.4-13h12Z"/>
    <path d="M1202.9,2432.3l8.2-4h.8v28.4c0,1.9,0,3.1.3,3.6.2.5.5.8,1,1.1s1.5.4,3,.4v.9h-12.6v-.9c1.6,0,2.6-.2,3-.4.5-.2.8-.6,1-1s.3-1.6.3-3.7v-18.1c0-2.4,0-4-.3-4.7,0-.5-.3-.9-.6-1.2-.3-.2-.7-.4-1.1-.4-.6,0-1.5.3-2.5.8l-.4-.8h-.1Z"/>
    <path d="M1229,2446.6c0,4.7.6,8.4,1.7,11.3.9,2.5,2.3,3.7,4.2,3.7s1.8-.4,2.7-1.2c1-.8,1.7-2.1,2.2-4.1.8-2.8,1.2-6.9,1.2-12s-.4-7-1.2-9.6c-.6-1.9-1.4-3.2-2.3-4-.7-.6-1.5-.9-2.5-.9s-2.1.5-3,1.5c-1.2,1.4-2,3.6-2.4,6.5s-.6,5.8-.6,8.7h0ZM1224.2,2446c0-3.8.6-7.1,1.7-9.9,1.1-2.7,2.7-4.8,4.6-6.2,1.5-1.1,3-1.6,4.6-1.6,2.5,0,4.9,1.3,7,4,2.5,3.2,3.8,7.7,3.8,13.2s-.6,7.2-1.7,9.9-2.6,4.7-4.3,5.9c-1.7,1.2-3.4,1.8-5,1.8-3.2,0-5.9-1.9-8-5.6-1.8-3.1-2.7-7-2.7-11.5h0Z"/>
    <path d="M609.1,2484.9l7.2,10.8c2,3,3.5,4.9,4.5,5.6,1,.8,2.2,1.2,3.7,1.3v.9h-14.4v-.9c1,0,1.7-.1,2.1-.3.4-.1.7-.4.9-.7s.4-.6.4-1,0-.7-.3-1.1c0-.3-.6-1-1.4-2.2l-5.7-8.6-7.1,9c-.7,1-1.2,1.6-1.3,1.9-.2.3-.2.7-.2,1,0,.6.2,1,.7,1.3.4.4,1.3.6,2.5.6v.9h-11.9v-.9c.8-.1,1.6-.3,2.2-.5,1-.4,2-1,2.9-1.7s1.9-1.8,3.1-3.3l8-10-6.6-9.7c-1.8-2.6-3.3-4.3-4.6-5.1s-2.7-1.3-4.3-1.3v-.9h15.5v.9c-1.3,0-2.2.3-2.7.7s-.7.8-.7,1.3.4,1.5,1.2,2.6l5.2,7.7,5.9-7.6c.7-.9,1.1-1.5,1.3-1.8s.3-.7.3-1,0-.6-.3-.9c-.3-.3-.6-.6-.9-.7-.4-.2-1.2-.3-2.4-.3v-.9h11.9v.9c-1,0-1.7.2-2.3.5-.9.4-1.7.9-2.4,1.5-.8.7-1.8,1.8-3.1,3.6l-6.7,8.5h-.2Z"/>
    <path d="M653.5,2513.5v.9c-2.5-1.3-4.6-2.7-6.2-4.4-2.4-2.4-4.3-5.2-5.5-8.4-1.3-3.2-1.9-6.6-1.9-10.2,0-5.1,1.2-9.7,3.8-14,2.5-4.2,5.8-7.2,9.9-9v1c-2.1,1.1-3.8,2.7-5.1,4.6-1.3,2-2.3,4.5-2.9,7.4-.7,3-1,6.1-1,9.4s.3,6.7.8,9.6c.4,2.3,1,4.1,1.6,5.4.6,1.4,1.4,2.7,2.4,4s2.4,2.5,4.1,3.7h0Z"/>
    <path d="M672.2,2499.3v-11.7c0-1.1-.4-2.1-.9-3s-1.1-1.6-1.9-2.1c-.8-.5-1.6-.7-2.4-.7-1.5,0-2.8.7-3.9,2-1.5,1.7-2.2,4.3-2.2,7.5s.7,5.9,2.1,7.7c1.4,1.8,3,2.6,4.9,2.6s2.9-.7,4.4-2.2h0ZM672.2,2501c-1.1,1.2-2.2,2-3.2,2.5-1.1.5-2.2.7-3.4.7-2.5,0-4.7-1-6.5-3.1-1.9-2-2.8-4.7-2.8-8s1-6.2,3-8.9,4.7-4.1,8-4.1,3.6.7,4.9,1.9v-4.2c0-2.6,0-4.2-.2-4.8,0-.6-.3-1-.6-1.2s-.6-.3-1-.3-1,.2-1.7.4l-.4-.9,6.8-2.7h1.1v26.2c0,2.6,0,4.3.2,4.9s.3,1,.6,1.2c.3.3.6.4,1,.4s1-.2,1.8-.5l.3.9-6.7,2.8h-1.2v-3.2h0Z"/>
    <path d="M685.4,2488h10.5c0-1.4-.3-2.5-.5-3.1-.4-.9-1-1.6-1.8-2.1s-1.7-.8-2.6-.8c-1.4,0-2.6.6-3.7,1.6-1.1,1.1-1.7,2.5-1.9,4.4h0ZM685.4,2489.4c0,3.4.8,6,2.5,8,1.6,1.9,3.6,2.8,5.8,2.8s2.7-.4,3.8-1.2,2-2.2,2.8-4.2l.8.5c-.4,2.3-1.4,4.4-3,6.2-1.7,1.8-3.8,2.7-6.3,2.7s-5.1-1-7-3.1-2.9-5-2.9-8.6,1-6.9,3-9.1c2-2.1,4.5-3.2,7.5-3.2s4.6.9,6.2,2.5c1.6,1.7,2.5,3.9,2.5,6.7h-15.7,0Z"/>
    <path d="M709.9,2503.6c-.8.8-1.4,1.6-1.8,2.3-.4.7-.6,1.4-.6,2s.5,1.5,1.4,2.1c1.6,1,4,1.5,7.2,1.5s5.1-.6,6.5-1.6c1.4-1.1,2.1-2.2,2.1-3.3s-.4-1.5-1.2-1.8c-.9-.4-2.6-.6-5.1-.7-3.8-.1-6.6-.3-8.6-.5h0ZM714.5,2481.4c-1.2,0-2.3.5-3.1,1.5s-1.2,2.5-1.2,4.5.6,4.7,1.7,6.1c.8,1.1,1.9,1.6,3.3,1.6s2.2-.5,3-1.4,1.2-2.4,1.2-4.4-.6-4.7-1.7-6.2c-.9-1.1-1.9-1.6-3.2-1.6h0ZM710.2,2495.3c-1.4-.7-2.5-1.6-3.2-2.8-.8-1.2-1.1-2.5-1.1-4,0-2.2.8-4.2,2.5-5.8s3.9-2.4,6.5-2.4,4,.6,5.6,1.6h6c0,0,.2.1.3.2,0,.2.2.5.2.8s0,.7-.2.9c0,.1-.2.2-.3.3h-4.1c.9,1.2,1.4,2.7,1.4,4.6s-.8,3.9-2.4,5.4c-1.6,1.5-3.8,2.2-6.5,2.2s-2.3-.2-3.5-.5c-.8.7-1.3,1.2-1.5,1.7-.3.5-.4.9-.4,1.2s0,.6.4.9c.3.3.8.5,1.6.6.4.1,1.6.2,3.5.2,3.4.1,5.6.3,6.6.4,1.5.2,2.8.8,3.7,1.7s1.4,2,1.4,3.4-.9,3.6-2.6,5.3c-2.6,2.4-5.9,3.6-10,3.6s-5.9-.8-8.1-2.2c-1.2-.8-1.8-1.7-1.8-2.5s0-.8.3-1.2c.3-.6.8-1.5,1.7-2.5,0-.2,1-1.1,2.5-2.6-.9-.5-1.5-1-1.8-1.4-.4-.4-.5-.9-.5-1.4s.2-1.2.7-2,1.5-1.9,3.2-3.3v-.4Z"/>
    <path d="M736.1,2480.2v5.1c1.9-3.3,3.8-5.1,5.8-5.1s1.6.3,2.2.8c.6.6.9,1.2.9,1.9s-.3,1.2-.7,1.6c-.4.5-.9.7-1.5.7s-1.2-.3-1.9-.9c-.7-.6-1.3-.9-1.6-.9s-.7.2-1,.5c-.8.7-1.5,1.8-2.3,3.3v10.9c0,1.3.2,2.2.5,2.8.2.5.6.8,1.2,1.1.5.3,1.3.4,2.3.4v.9h-11.6v-.9c1.1,0,2-.2,2.6-.5.4-.3.7-.7.9-1.3s.2-1.1.2-2.4v-8.8c0-2.6,0-4.2-.2-4.7,0-.5-.3-.9-.6-1.1-.3-.2-.7-.4-1.1-.4s-1.1.2-1.7.4l-.3-.9,6.9-2.7h1v.2Z"/>
    <path d="M750.2,2488h10.5c0-1.4-.3-2.5-.5-3.1-.4-.9-1-1.6-1.8-2.1s-1.7-.8-2.6-.8c-1.4,0-2.6.6-3.7,1.6-1.1,1.1-1.7,2.5-1.9,4.4h0ZM750.2,2489.4c0,3.4.8,6,2.5,8,1.6,1.9,3.6,2.8,5.8,2.8s2.7-.4,3.8-1.2,2-2.2,2.8-4.2l.8.5c-.4,2.3-1.4,4.4-3,6.2-1.7,1.8-3.8,2.7-6.3,2.7s-5.1-1-7-3.1-2.9-5-2.9-8.6,1-6.9,3-9.1c2-2.1,4.5-3.2,7.5-3.2s4.6.9,6.2,2.5c1.6,1.7,2.5,3.9,2.5,6.7h-15.7,0Z"/>
    <path d="M772.7,2488h10.5c0-1.4-.3-2.5-.5-3.1-.4-.9-1-1.6-1.8-2.1s-1.7-.8-2.6-.8c-1.4,0-2.6.6-3.7,1.6-1.1,1.1-1.7,2.5-1.9,4.4h0ZM772.7,2489.4c0,3.4.8,6,2.5,8,1.6,1.9,3.6,2.8,5.8,2.8s2.7-.4,3.8-1.2,2-2.2,2.8-4.2l.8.5c-.4,2.3-1.4,4.4-3,6.2-1.7,1.8-3.8,2.7-6.3,2.7s-5.1-1-7-3.1-2.9-5-2.9-8.6,1-6.9,3-9.1c2-2.1,4.5-3.2,7.5-3.2s4.6.9,6.2,2.5c1.6,1.7,2.5,3.9,2.5,6.7h-15.7,0Z"/>
    <path d="M806.1,2480.2v7.7h-.8c-.6-2.4-1.4-4.1-2.4-5s-2.2-1.3-3.8-1.3-2.1.3-2.8.9c-.7.6-1.1,1.3-1.1,2s.3,1.8.8,2.4c.5.7,1.5,1.4,3.1,2.2l3.6,1.7c3.3,1.7,5,3.9,5,6.5s-.8,3.8-2.3,5c-1.6,1.2-3.3,1.9-5.2,1.9s-3-.3-4.8-.7c-.6-.2-1-.3-1.4-.3s-.7.2-.9.6h-.8v-8.1h.8c.5,2.3,1.3,4.1,2.6,5.3s2.8,1.7,4.4,1.7,2-.3,2.7-1,1.1-1.5,1.1-2.4-.4-2-1.2-2.8-2.4-1.7-4.8-2.9c-2.4-1.2-4-2.2-4.7-3.2-.8-.9-1.1-2.1-1.1-3.6s.6-3.4,1.9-4.7c1.3-1.2,2.9-1.9,5-1.9s1.9.2,3.2.6c.8.3,1.4.4,1.7.4s.5,0,.6-.2c0-.1.3-.4.5-.8h1.1Z"/>
    <path d="M810.7,2469.4v-1c2.5,1.2,4.6,2.7,6.3,4.4,2.3,2.4,4.2,5.2,5.5,8.5,1.3,3.2,1.9,6.6,1.9,10.2,0,5.2-1.3,9.8-3.8,14s-5.8,7.2-9.9,9v-.9c2-1.2,3.7-2.7,5-4.7,1.3-1.9,2.3-4.4,2.9-7.4.6-2.9,1-6.1,1-9.3s-.3-6.7-.8-9.6c-.5-2.2-1-4.1-1.6-5.4s-1.5-2.7-2.5-4-2.4-2.5-4.1-3.7h0Z"/>
    <path d="M112.2,2379.1l8.2-4h.8v28.4c0,1.9,0,3.1.3,3.6.2.5.5.8,1,1.1s1.5.4,3,.4v.9h-12.6v-.9c1.6,0,2.6-.2,3-.4.5-.2.8-.6,1-1s.3-1.6.3-3.7v-18.1c0-2.4,0-4-.3-4.7,0-.5-.3-.9-.6-1.2-.3-.2-.7-.4-1.1-.4-.6,0-1.5.3-2.5.8l-.4-.8h-.1Z"/>
    <path d="M138.3,2393.5c0,4.7.6,8.4,1.7,11.3.9,2.5,2.3,3.7,4.2,3.7s1.8-.4,2.7-1.2c1-.8,1.7-2.1,2.2-4.1.8-2.8,1.2-6.9,1.2-12s-.4-7-1.2-9.6c-.6-1.9-1.4-3.2-2.3-4-.7-.6-1.5-.9-2.5-.9s-2.1.5-3,1.5c-1.2,1.4-2,3.6-2.4,6.5s-.6,5.8-.6,8.7h0ZM133.4,2392.8c0-3.8.6-7.1,1.7-9.9,1.1-2.7,2.7-4.8,4.6-6.2,1.5-1.1,3-1.6,4.6-1.6,2.5,0,4.9,1.3,7,4,2.5,3.2,3.8,7.7,3.8,13.2s-.6,7.2-1.7,9.9-2.6,4.7-4.3,5.9-3.4,1.8-5,1.8c-3.2,0-5.9-1.9-8-5.6-1.8-3.1-2.7-7-2.7-11.5h0Z"/>
    <path d="M153.6,2118.4l-1.9,4.2h-10.1l-2.2,4.5c4.4.7,7.9,2.3,10.4,4.9,2.2,2.2,3.3,4.9,3.3,7.9s-.4,3.4-1.1,4.9c-.7,1.5-1.6,2.8-2.7,3.9-1.1,1.1-2.3,1.9-3.6,2.5-1.9.9-3.9,1.3-5.8,1.3s-3.5-.4-4.4-1c-.9-.7-1.4-1.4-1.4-2.2s.2-.9.6-1.2c.4-.4.8-.6,1.4-.6s.8.1,1.1.2c.3.2.9.5,1.7,1,1.2.9,2.5,1.3,3.8,1.3,1.9,0,3.6-.7,5.1-2.2,1.5-1.4,2.2-3.2,2.2-5.3s-.7-3.9-2-5.7c-1.3-1.7-3.1-3.1-5.4-4.1-1.8-.7-4.3-1.2-7.4-1.3l6.4-13h12,0Z"/>
    <path d="M138.3,1878.6c0,4.7.6,8.4,1.7,11.3.9,2.5,2.3,3.7,4.2,3.7s1.8-.4,2.7-1.2c1-.8,1.7-2.1,2.2-4.1.8-2.8,1.2-6.9,1.2-12s-.4-7-1.2-9.6c-.6-1.9-1.4-3.2-2.3-4-.7-.6-1.5-.9-2.5-.9s-2.1.5-3,1.5c-1.2,1.4-2,3.6-2.4,6.5s-.6,5.8-.6,8.7h0ZM133.4,1877.9c0-3.8.6-7.1,1.7-9.9,1.1-2.7,2.7-4.8,4.6-6.2,1.5-1.1,3-1.6,4.6-1.6,2.5,0,4.9,1.3,7,4,2.5,3.2,3.8,7.7,3.8,13.2s-.6,7.2-1.7,9.9c-1.1,2.7-2.6,4.7-4.3,5.9-1.7,1.2-3.4,1.8-5,1.8-3.2,0-5.9-1.9-8-5.6-1.8-3.1-2.7-7-2.7-11.5h0Z"/>
    <path d="M153.6,1603.5l-1.9,4.2h-10.1l-2.2,4.5c4.4.7,7.9,2.3,10.4,4.9,2.2,2.2,3.3,4.9,3.3,7.9s-.4,3.4-1.1,4.9c-.7,1.5-1.6,2.8-2.7,3.9-1.1,1.1-2.3,1.9-3.6,2.5-1.9.9-3.9,1.3-5.8,1.3s-3.5-.4-4.4-1c-.9-.7-1.4-1.4-1.4-2.2s.2-.9.6-1.2c.4-.4.8-.6,1.4-.6s.8,0,1.1.2c.3.2.9.5,1.7,1,1.2.9,2.5,1.3,3.8,1.3,1.9,0,3.6-.7,5.1-2.2,1.5-1.4,2.2-3.2,2.2-5.3s-.7-3.9-2-5.7c-1.3-1.7-3.1-3.1-5.4-4.1-1.8-.7-4.3-1.2-7.4-1.3l6.4-13h12,0Z"/>
    <path d="M112.2,1349.3l8.2-4h.8v28.4c0,1.9,0,3.1.3,3.6.2.5.5.8,1,1.1s1.5.4,3,.4v.9h-12.6v-.9c1.6,0,2.6-.2,3-.4.5-.2.8-.6,1-1s.3-1.6.3-3.7v-18.1c0-2.4,0-4-.3-4.7,0-.5-.3-.9-.6-1.2-.3-.2-.7-.4-1.1-.4-.6,0-1.5.3-2.5.8l-.4-.8h-.1Z"/>
    <path d="M138.3,1363.7c0,4.7.6,8.4,1.7,11.3.9,2.5,2.3,3.7,4.2,3.7s1.8-.4,2.7-1.2c1-.8,1.7-2.1,2.2-4.1.8-2.8,1.2-6.9,1.2-12s-.4-7-1.2-9.6c-.6-1.9-1.4-3.2-2.3-4-.7-.6-1.5-.9-2.5-.9s-2.1.5-3,1.5c-1.2,1.4-2,3.6-2.4,6.5s-.6,5.8-.6,8.7h0ZM133.4,1363c0-3.8.6-7.1,1.7-9.9,1.1-2.7,2.7-4.8,4.6-6.2,1.5-1.1,3-1.6,4.6-1.6,2.5,0,4.9,1.3,7,4,2.5,3.2,3.8,7.7,3.8,13.2s-.6,7.2-1.7,9.9c-1.1,2.7-2.6,4.7-4.3,5.9-1.7,1.2-3.4,1.8-5,1.8-3.2,0-5.9-1.9-8-5.6-1.8-3.1-2.7-7-2.7-11.5h0Z"/>
    <path d="M38.2,1970.8v-11.7h.9v.7c0,.5.2,1.1.6,1.9.4.8.9,1.6,1.6,2.2.7.7,1.9,1.5,3.5,2.5l12.7,8.1h8.4c2.1,0,3.3-.2,3.9-.7.7-.6,1.1-1.6,1.1-3v-1.1h.9v14.3h-.9v-1.2c0-1.4-.4-2.4-1.3-3-.5-.4-1.7-.6-3.7-.6h-7.9l-14.1,9.2c-1.6,1.1-2.7,1.8-3.1,2.2-.4.4-.9,1.2-1.5,2.4-.2.4-.3.9-.3,1.5h-.9v-14.4h.9v.7c0,.8.2,1.5.6,2.2.4.7.9,1,1.6,1s1.7-.5,3.2-1.5l10.9-7-10.4-6.6c-1.5-1-2.7-1.5-3.5-1.5s-.8.2-1.2.4c-.4.3-.7.6-.9,1-.2.5-.3,1.1-.3,2h-.9.1Z"/>
    <path d="M81.6,1931.7h.9c-1.3,2.5-2.7,4.6-4.4,6.2-2.4,2.4-5.2,4.3-8.4,5.5-3.2,1.3-6.6,1.9-10.2,1.9-5.1,0-9.7-1.2-14-3.8-4.2-2.5-7.2-5.8-9-9.9h1c1.1,2.1,2.7,3.8,4.6,5.1,2,1.3,4.5,2.3,7.4,2.9,3,.7,6.1,1,9.4,1s6.7-.3,9.6-.8c2.3-.4,4.1-1,5.4-1.6,1.4-.6,2.7-1.4,4-2.4s2.5-2.4,3.7-4.1h0Z"/>
    <path d="M67.5,1913h-11.7c-1.1,0-2.1.4-3,.9s-1.6,1.1-2.1,1.9-.7,1.6-.7,2.4c0,1.5.7,2.8,2,3.9,1.7,1.5,4.3,2.2,7.5,2.2s5.9-.7,7.7-2.1c1.8-1.4,2.6-3,2.6-4.9s-.7-2.9-2.2-4.4h0ZM69.2,1913c1.2,1.1,2,2.2,2.5,3.2.5,1.1.7,2.2.7,3.4,0,2.5-1,4.7-3.1,6.5-2,1.9-4.7,2.8-8,2.8s-6.2-1-8.9-3-4.1-4.7-4.1-8,.7-3.6,1.9-4.9h-4.2c-2.6,0-4.2,0-4.8.2s-1,.3-1.2.6c-.2.3-.3.6-.3,1s.2,1,.4,1.7l-.9.4-2.7-6.8v-1.1h26.2c2.6,0,4.3,0,4.9-.2s1-.3,1.2-.6c.3-.3.4-.6.4-1s-.2-1-.5-1.8l.9-.3,2.8,6.7v1.2h-3.2Z"/>
    <path d="M56.2,1899.9v-10.5c-1.4,0-2.5.3-3.1.5-.9.4-1.6,1-2.1,1.8s-.8,1.7-.8,2.6c0,1.4.6,2.6,1.6,3.7,1.1,1.1,2.5,1.7,4.4,1.9ZM57.6,1899.9c3.4,0,6-.8,8-2.5,1.9-1.6,2.8-3.6,2.8-5.8s-.4-2.7-1.2-3.8c-.8-1.1-2.2-2-4.2-2.8l.5-.8c2.3.4,4.4,1.4,6.2,3,1.8,1.7,2.7,3.8,2.7,6.3s-1,5.1-3.1,7-5,2.9-8.6,2.9-6.9-1-9.1-3c-2.1-2-3.2-4.5-3.2-7.5s.9-4.6,2.5-6.2c1.7-1.6,3.9-2.5,6.7-2.5v15.7h0Z"/>
    <path d="M71.8,1875.3c.8.8,1.6,1.4,2.3,1.8.7.4,1.4.6,2,.6s1.5-.5,2.1-1.4c1-1.6,1.5-4,1.5-7.2s-.6-5.1-1.6-6.5c-1.1-1.4-2.2-2.1-3.3-2.1s-1.5.4-1.8,1.2c-.4.9-.6,2.6-.7,5.1,0,3.8-.3,6.6-.5,8.6h0ZM49.6,1870.7c0,1.2.5,2.3,1.5,3.1,1,.8,2.5,1.2,4.5,1.2s4.7-.6,6.1-1.7c1.1-.8,1.6-1.9,1.6-3.3s-.5-2.2-1.4-3-2.4-1.2-4.4-1.2-4.7.6-6.2,1.7c-1.1.9-1.6,1.9-1.6,3.2h0ZM63.5,1875c-.7,1.4-1.6,2.5-2.8,3.2-1.2.8-2.5,1.1-4,1.1-2.2,0-4.2-.8-5.8-2.5s-2.4-3.9-2.4-6.5.6-4,1.6-5.6v-6c0,0,0-.2.2-.3.2,0,.5-.2.8-.2s.7,0,.9.2c0,0,.2.2.3.3v4.1c1.2-.9,2.7-1.4,4.6-1.4s3.9.8,5.4,2.4,2.2,3.8,2.2,6.5-.2,2.3-.5,3.5c.7.8,1.2,1.3,1.7,1.5.5.3.9.4,1.2.4s.6,0,.9-.4.5-.8.6-1.6c0-.4.2-1.6.2-3.5,0-3.4.3-5.6.4-6.6.2-1.5.8-2.8,1.7-3.7s2-1.4,3.4-1.4,3.6.9,5.3,2.6c2.4,2.6,3.6,5.9,3.6,10s-.8,5.9-2.2,8.1c-.8,1.2-1.7,1.8-2.5,1.8s-.8,0-1.2-.3c-.6-.3-1.5-.8-2.5-1.7-.2,0-1.1-1-2.6-2.5-.5.9-1,1.5-1.4,1.8-.4.4-.9.5-1.4.5s-1.2-.2-2-.7-1.9-1.5-3.3-3.2h-.4Z"/>
    <path d="M48.4,1849.1h5.1c-3.3-1.9-5.1-3.8-5.1-5.8s.3-1.6.8-2.2c.6-.6,1.2-.9,1.9-.9s1.2.3,1.6.7c.5.4.7.9.7,1.5s-.3,1.2-.9,1.9c-.6.7-.9,1.3-.9,1.6s.2.7.5,1c.7.8,1.8,1.5,3.3,2.3h10.9c1.3,0,2.2-.2,2.8-.5.5-.2.8-.6,1.1-1.2.3-.5.4-1.3.4-2.3h.9v11.6h-.9c0-1.1-.2-2-.5-2.6-.3-.4-.7-.7-1.3-.9-.3,0-1.1-.2-2.4-.2h-8.8c-2.6,0-4.2,0-4.7.2s-.9.3-1.1.6c-.2.3-.4.7-.4,1.1s.2,1.1.4,1.7l-.9.3-2.7-6.9v-1h.2Z"/>
    <path d="M56.2,1835v-10.5c-1.4,0-2.5.3-3.1.5-.9.4-1.6,1-2.1,1.8s-.8,1.7-.8,2.6c0,1.4.6,2.6,1.6,3.7,1.1,1.1,2.5,1.7,4.4,1.9ZM57.6,1835c3.4,0,6-.8,8-2.5,1.9-1.6,2.8-3.6,2.8-5.8s-.4-2.7-1.2-3.8c-.8-1.1-2.2-2-4.2-2.8l.5-.8c2.3.4,4.4,1.4,6.2,3,1.8,1.7,2.7,3.8,2.7,6.3s-1,5.1-3.1,7-5,2.9-8.6,2.9-6.9-1-9.1-3c-2.1-2-3.2-4.5-3.2-7.5s.9-4.6,2.5-6.2c1.7-1.6,3.9-2.5,6.7-2.5v15.7h0Z"/>
    <path d="M56.2,1812.5v-10.5c-1.4,0-2.5.3-3.1.5-.9.4-1.6,1-2.1,1.8s-.8,1.7-.8,2.6c0,1.4.6,2.6,1.6,3.7,1.1,1.1,2.5,1.7,4.4,1.9ZM57.6,1812.5c3.4,0,6-.8,8-2.5,1.9-1.6,2.8-3.6,2.8-5.8s-.4-2.7-1.2-3.8c-.8-1.1-2.2-2-4.2-2.8l.5-.8c2.3.4,4.4,1.4,6.2,3,1.8,1.7,2.7,3.8,2.7,6.3s-1,5.1-3.1,7-5,2.9-8.6,2.9-6.9-1-9.1-3c-2.1-2-3.2-4.5-3.2-7.5s.9-4.6,2.5-6.2c1.7-1.6,3.9-2.5,6.7-2.5v15.7h0Z"/>
    <path d="M48.4,1779.1h7.7v.8c-2.4.6-4.1,1.4-5,2.4s-1.3,2.2-1.3,3.8.3,2.1.9,2.8c.6.7,1.3,1.1,2,1.1s1.8-.3,2.4-.8c.7-.5,1.4-1.5,2.2-3.1l1.7-3.6c1.7-3.3,3.9-5,6.5-5s3.8.8,5,2.3c1.2,1.6,1.9,3.3,1.9,5.2s-.3,3-.7,4.8c-.2.6-.3,1-.3,1.4s.2.7.6.9v.8h-8.1v-.8c2.3-.5,4.1-1.3,5.3-2.6s1.7-2.8,1.7-4.4-.3-2-1-2.7-1.5-1.1-2.4-1.1-2,.4-2.8,1.2c-.8.8-1.7,2.4-2.9,4.8s-2.2,4-3.2,4.7c-.9.8-2.1,1.1-3.6,1.1s-3.4-.6-4.7-1.9c-1.2-1.3-1.9-2.9-1.9-5s.2-1.9.6-3.2c.3-.8.4-1.4.4-1.7s0-.5-.2-.6c0,0-.4-.3-.8-.5v-1.1Z"/>
    <path d="M37.5,1774.5h-1c1.2-2.5,2.7-4.6,4.4-6.3,2.4-2.3,5.2-4.2,8.5-5.5,3.2-1.3,6.6-1.9,10.2-1.9,5.2,0,9.8,1.3,14,3.8,4.2,2.5,7.2,5.8,9,9.9h-.9c-1.2-2-2.7-3.7-4.7-5-1.9-1.3-4.4-2.3-7.4-2.9-2.9-.6-6.1-1-9.3-1s-6.7.3-9.6.8c-2.2.5-4.1,1-5.4,1.6-1.4.6-2.7,1.5-4,2.5s-2.5,2.4-3.7,4.1h-.1Z"/>
    <path d="M1423.2,2432.3l8.2-4h.8v28.4c0,1.9,0,3.1.3,3.6.2.5.5.8,1,1.1s1.5.4,3,.4v.9h-12.6v-.9c1.6,0,2.6-.2,3-.4.5-.2.8-.6,1-1s.3-1.6.3-3.7v-18.1c0-2.4,0-4-.3-4.7,0-.5-.3-.9-.6-1.2-.3-.2-.7-.4-1.1-.4-.6,0-1.5.3-2.5.8l-.4-.8h-.1Z"/>
    <path d="M1449.3,2446.6c0,4.7.6,8.4,1.7,11.3.9,2.5,2.3,3.7,4.2,3.7s1.8-.4,2.7-1.2c1-.8,1.7-2.1,2.2-4.1.8-2.8,1.2-6.9,1.2-12s-.4-7-1.2-9.6c-.6-1.9-1.4-3.2-2.3-4-.7-.6-1.5-.9-2.5-.9s-2.1.5-3,1.5c-1.2,1.4-2,3.6-2.4,6.5s-.6,5.8-.6,8.7h0ZM1444.4,2446c0-3.8.6-7.1,1.7-9.9,1.1-2.7,2.7-4.8,4.6-6.2,1.5-1.1,3-1.6,4.6-1.6,2.5,0,4.9,1.3,7,4,2.5,3.2,3.8,7.7,3.8,13.2s-.6,7.2-1.7,9.9-2.6,4.7-4.3,5.9c-1.7,1.2-3.4,1.8-5,1.8-3.2,0-5.9-1.9-8-5.6-1.8-3.1-2.7-7-2.7-11.5h0Z"/>
    <path d="M1709.4,2429l-1.9,4.2h-10.1l-2.2,4.5c4.4.7,7.9,2.3,10.4,4.9,2.2,2.2,3.3,4.9,3.3,7.9s-.4,3.4-1.1,4.9-1.6,2.8-2.7,3.9c-1.1,1.1-2.3,1.9-3.6,2.5-1.9.9-3.9,1.3-5.8,1.3s-3.5-.4-4.4-1c-.9-.7-1.4-1.4-1.4-2.2s.2-.9.6-1.2c.4-.4.8-.6,1.4-.6s.8.1,1.1.2c.3.2.9.5,1.7,1,1.2.9,2.5,1.3,3.8,1.3,1.9,0,3.6-.7,5.1-2.2,1.5-1.4,2.2-3.2,2.2-5.3s-.7-3.9-2-5.7c-1.3-1.7-3.1-3.1-5.4-4.1-1.8-.7-4.3-1.2-7.4-1.3l6.4-13h12Z"/>
    <path d="M1937.2,2446.6c0,4.7.6,8.4,1.7,11.3.9,2.5,2.3,3.7,4.2,3.7s1.8-.4,2.7-1.2c1-.8,1.7-2.1,2.2-4.1.8-2.8,1.2-6.9,1.2-12s-.4-7-1.2-9.6c-.6-1.9-1.4-3.2-2.3-4-.7-.6-1.5-.9-2.5-.9s-2.1.5-3,1.5c-1.2,1.4-2,3.6-2.4,6.5s-.6,5.8-.6,8.7h0ZM1932.3,2446c0-3.8.6-7.1,1.7-9.9,1.1-2.7,2.7-4.8,4.6-6.2,1.5-1.1,3-1.6,4.6-1.6,2.5,0,4.9,1.3,7,4,2.5,3.2,3.8,7.7,3.8,13.2s-.6,7.2-1.7,9.9-2.6,4.7-4.3,5.9c-1.7,1.2-3.4,1.8-5,1.8-3.2,0-5.9-1.9-8-5.6-1.8-3.1-2.7-7-2.7-11.5h0Z"/>
    <path d="M2210,2429l-1.9,4.2h-10.1l-2.2,4.5c4.4.7,7.9,2.3,10.4,4.9,2.2,2.2,3.3,4.9,3.3,7.9s-.4,3.4-1.1,4.9c-.7,1.5-1.6,2.8-2.7,3.9s-2.3,1.9-3.6,2.5c-1.9.9-3.9,1.3-5.8,1.3s-3.5-.4-4.4-1c-.9-.7-1.4-1.4-1.4-2.2s.2-.9.6-1.2c.4-.4.8-.6,1.4-.6s.8.1,1.1.2c.3.2.9.5,1.7,1,1.2.9,2.5,1.3,3.8,1.3,1.9,0,3.6-.7,5.1-2.2,1.5-1.4,2.2-3.2,2.2-5.3s-.7-3.9-2-5.7c-1.3-1.7-3.1-3.1-5.4-4.1-1.8-.7-4.3-1.2-7.4-1.3l6.4-13h12,0Z"/>
    <path d="M2438.6,2432.3l8.2-4h.8v28.4c0,1.9,0,3.1.3,3.6.2.5.5.8,1,1.1s1.5.4,3,.4v.9h-12.6v-.9c1.6,0,2.6-.2,3-.4.5-.2.8-.6,1-1s.3-1.6.3-3.7v-18.1c0-2.4-.1-4-.3-4.7-.1-.5-.3-.9-.6-1.2-.3-.2-.7-.4-1.1-.4-.6,0-1.5.3-2.5.8l-.4-.8h0Z"/>
    <path d="M2464.8,2446.6c0,4.7.6,8.4,1.7,11.3.9,2.5,2.3,3.7,4.2,3.7s1.8-.4,2.7-1.2c1-.8,1.7-2.1,2.2-4.1.8-2.8,1.2-6.9,1.2-12s-.4-7-1.2-9.6c-.6-1.9-1.4-3.2-2.3-4-.7-.6-1.5-.9-2.5-.9s-2.1.5-3,1.5c-1.2,1.4-2,3.6-2.4,6.5s-.6,5.8-.6,8.7h0ZM2459.9,2446c0-3.8.6-7.1,1.7-9.9,1.1-2.7,2.7-4.8,4.6-6.2,1.5-1.1,3-1.6,4.6-1.6,2.5,0,4.9,1.3,7,4,2.5,3.2,3.8,7.7,3.8,13.2s-.6,7.2-1.7,9.9c-1.1,2.7-2.6,4.7-4.3,5.9s-3.4,1.8-5,1.8c-3.2,0-5.9-1.9-8-5.6-1.8-3.1-2.7-7-2.7-11.5h0Z"/>
    <path d="M1844.9,2484.9l7.2,10.8c2,3,3.5,4.9,4.5,5.6,1,.8,2.2,1.2,3.7,1.3v.9h-14.4v-.9c1,0,1.7-.1,2.1-.3.4-.1.7-.4.9-.7s.4-.6.4-1,0-.7-.3-1.1c0-.3-.6-1-1.4-2.2l-5.7-8.6-7.1,9c-.7,1-1.2,1.6-1.3,1.9s-.2.7-.2,1c0,.6.2,1,.7,1.3.4.4,1.3.6,2.5.6v.9h-11.9v-.9c.8-.1,1.6-.3,2.2-.5,1-.4,2-1,2.9-1.7s1.9-1.8,3.1-3.3l8-10-6.6-9.7c-1.8-2.6-3.4-4.3-4.6-5.1-1.3-.8-2.7-1.3-4.3-1.3v-.9h15.5v.9c-1.3,0-2.2.3-2.7.7s-.7.8-.7,1.3.4,1.5,1.2,2.6l5.2,7.7,5.9-7.6c.7-.9,1.1-1.5,1.3-1.8.2-.3.3-.7.3-1s0-.6-.3-.9c-.3-.3-.6-.6-.9-.7-.4-.2-1.2-.3-2.4-.3v-.9h11.9v.9c-1,0-1.7.2-2.3.5-.9.4-1.7.9-2.4,1.5-.8.7-1.8,1.8-3.1,3.6l-6.7,8.5h-.2Z"/>
    <path d="M1889.3,2513.5v.9c-2.5-1.3-4.6-2.7-6.2-4.4-2.4-2.4-4.3-5.2-5.5-8.4-1.3-3.2-1.9-6.6-1.9-10.2,0-5.1,1.2-9.7,3.8-14,2.5-4.2,5.8-7.2,9.9-9v1c-2.1,1.1-3.8,2.7-5.1,4.6-1.3,2-2.3,4.5-2.9,7.4-.7,3-1,6.1-1,9.4s.3,6.7.8,9.6c.4,2.3,1,4.1,1.6,5.4.6,1.4,1.4,2.7,2.4,4s2.4,2.5,4.1,3.7h0Z"/>
    <path d="M1908,2499.3v-11.7c0-1.1-.4-2.1-.9-3s-1.1-1.6-1.9-2.1-1.6-.7-2.4-.7c-1.5,0-2.8.7-3.9,2-1.5,1.7-2.2,4.3-2.2,7.5s.7,5.9,2.1,7.7,3,2.6,4.9,2.6,2.9-.7,4.4-2.2h0ZM1908,2501c-1.1,1.2-2.2,2-3.2,2.5-1.1.5-2.2.7-3.4.7-2.5,0-4.7-1-6.5-3.1-1.9-2-2.8-4.7-2.8-8s1-6.2,3-8.9,4.7-4.1,8-4.1,3.6.7,4.9,1.9v-4.2c0-2.6,0-4.2-.2-4.8s-.3-1-.6-1.2c-.3-.2-.6-.3-1-.3s-1,.2-1.7.4l-.4-.9,6.8-2.7h1.1v26.2c0,2.6,0,4.3.2,4.9,0,.6.3,1,.6,1.2.3.3.6.4,1,.4s1-.2,1.8-.5l.3.9-6.7,2.8h-1.2v-3.2h0Z"/>
    <path d="M1921.1,2488h10.5c0-1.4-.3-2.5-.5-3.1-.4-.9-1-1.6-1.8-2.1s-1.7-.8-2.6-.8c-1.4,0-2.6.6-3.7,1.6-1.1,1.1-1.7,2.5-1.9,4.4h0ZM1921.1,2489.4c0,3.4.8,6,2.5,8,1.6,1.9,3.6,2.8,5.8,2.8s2.7-.4,3.8-1.2c1.1-.8,2-2.2,2.8-4.2l.8.5c-.4,2.3-1.4,4.4-3,6.2-1.7,1.8-3.8,2.7-6.3,2.7s-5.1-1-7-3.1-2.9-5-2.9-8.6,1-6.9,3-9.1c2-2.1,4.5-3.2,7.5-3.2s4.6.9,6.2,2.5c1.6,1.7,2.5,3.9,2.5,6.7h-15.7Z"/>
    <path d="M1945.7,2503.6c-.8.8-1.4,1.6-1.8,2.3s-.6,1.4-.6,2,.5,1.5,1.4,2.1c1.6,1,4,1.5,7.2,1.5s5.1-.6,6.5-1.6c1.4-1.1,2.1-2.2,2.1-3.3s-.4-1.5-1.2-1.8c-.9-.4-2.6-.6-5.1-.7-3.8-.1-6.6-.3-8.6-.5h0ZM1950.3,2481.4c-1.2,0-2.3.5-3.1,1.5-.8,1-1.2,2.5-1.2,4.5s.6,4.7,1.7,6.1c.8,1.1,1.9,1.6,3.3,1.6s2.2-.5,3-1.4,1.2-2.4,1.2-4.4-.6-4.7-1.7-6.2c-.9-1.1-1.9-1.6-3.2-1.6h0ZM1946,2495.3c-1.4-.7-2.5-1.6-3.2-2.8-.8-1.2-1.1-2.5-1.1-4,0-2.2.8-4.2,2.5-5.8s3.9-2.4,6.5-2.4,4,.6,5.6,1.6h6c0,0,.2.1.3.2,0,.2.2.5.2.8s0,.7-.2.9c0,.1-.2.2-.3.3h-4.1c.9,1.2,1.4,2.7,1.4,4.6s-.8,3.9-2.4,5.4-3.8,2.2-6.5,2.2-2.3-.2-3.5-.5c-.8.7-1.3,1.2-1.5,1.7-.3.5-.4.9-.4,1.2s0,.6.4.9c.3.3.8.5,1.6.6.4.1,1.6.2,3.5.2,3.4.1,5.6.3,6.6.4,1.5.2,2.8.8,3.7,1.7.9.9,1.4,2,1.4,3.4s-.9,3.6-2.6,5.3c-2.6,2.4-5.9,3.6-10,3.6s-5.9-.8-8.1-2.2c-1.2-.8-1.8-1.7-1.8-2.5s0-.8.3-1.2c.3-.6.8-1.5,1.7-2.5,0-.2,1-1.1,2.5-2.6-.9-.5-1.5-1-1.8-1.4-.4-.4-.5-.9-.5-1.4s.2-1.2.7-2,1.5-1.9,3.2-3.3v-.4Z"/>
    <path d="M1971.9,2480.2v5.1c1.9-3.3,3.8-5.1,5.8-5.1s1.6.3,2.2.8c.6.6.9,1.2.9,1.9s-.3,1.2-.7,1.6c-.4.5-.9.7-1.5.7s-1.2-.3-1.9-.9c-.7-.6-1.3-.9-1.6-.9s-.7.2-1,.5c-.8.7-1.5,1.8-2.3,3.3v10.9c0,1.3.2,2.2.5,2.8.2.5.6.8,1.2,1.1.5.3,1.3.4,2.3.4v.9h-11.6v-.9c1.1,0,2-.2,2.6-.5.4-.3.7-.7.9-1.3,0-.3.2-1.1.2-2.4v-8.8c0-2.6,0-4.2-.2-4.7s-.3-.9-.6-1.1c-.3-.2-.7-.4-1.1-.4s-1.1.2-1.7.4l-.3-.9,6.9-2.7h1v.2Z"/>
    <path d="M1986,2488h10.5c0-1.4-.3-2.5-.5-3.1-.4-.9-1-1.6-1.8-2.1s-1.7-.8-2.6-.8c-1.4,0-2.6.6-3.7,1.6-1.1,1.1-1.7,2.5-1.9,4.4h0ZM1986,2489.4c0,3.4.8,6,2.5,8,1.6,1.9,3.6,2.8,5.8,2.8s2.7-.4,3.8-1.2c1.1-.8,2-2.2,2.8-4.2l.8.5c-.4,2.3-1.4,4.4-3,6.2-1.7,1.8-3.8,2.7-6.3,2.7s-5.1-1-7-3.1-2.9-5-2.9-8.6,1-6.9,3-9.1c2-2.1,4.5-3.2,7.5-3.2s4.6.9,6.2,2.5c1.6,1.7,2.5,3.9,2.5,6.7h-15.7Z"/>
    <path d="M2008.5,2488h10.5c0-1.4-.3-2.5-.5-3.1-.4-.9-1-1.6-1.8-2.1s-1.7-.8-2.6-.8c-1.4,0-2.6.6-3.7,1.6-1.1,1.1-1.7,2.5-1.9,4.4h0ZM2008.5,2489.4c0,3.4.8,6,2.5,8,1.6,1.9,3.6,2.8,5.8,2.8s2.7-.4,3.8-1.2c1.1-.8,2-2.2,2.8-4.2l.8.5c-.4,2.3-1.4,4.4-3,6.2-1.7,1.8-3.8,2.7-6.3,2.7s-5.1-1-7-3.1-2.9-5-2.9-8.6,1-6.9,3-9.1c2-2.1,4.5-3.2,7.5-3.2s4.6.9,6.2,2.5c1.6,1.7,2.5,3.9,2.5,6.7h-15.7Z"/>
    <path d="M2041.9,2480.2v7.7h-.8c-.6-2.4-1.4-4.1-2.4-5s-2.2-1.3-3.8-1.3-2.1.3-2.8.9c-.7.6-1.1,1.3-1.1,2s.3,1.8.8,2.4c.5.7,1.5,1.4,3.1,2.2l3.6,1.7c3.3,1.7,5,3.9,5,6.5s-.8,3.8-2.3,5c-1.6,1.2-3.3,1.9-5.2,1.9s-3-.3-4.8-.7c-.6-.2-1-.3-1.4-.3s-.7.2-.9.6h-.8v-8.1h.8c.5,2.3,1.3,4.1,2.6,5.3,1.3,1.2,2.8,1.7,4.4,1.7s2-.3,2.7-1,1.1-1.5,1.1-2.4-.4-2-1.2-2.8c-.8-.8-2.4-1.7-4.8-2.9s-4-2.2-4.7-3.2c-.8-.9-1.1-2.1-1.1-3.6s.6-3.4,1.9-4.7c1.3-1.2,2.9-1.9,5-1.9s1.9.2,3.2.6c.8.3,1.4.4,1.7.4s.5,0,.6-.2c0-.1.3-.4.5-.8h1.1Z"/>
    <path d="M2046.5,2469.4v-1c2.5,1.2,4.6,2.7,6.3,4.4,2.3,2.4,4.2,5.2,5.5,8.5,1.3,3.2,1.9,6.6,1.9,10.2,0,5.2-1.3,9.8-3.8,14s-5.8,7.2-9.9,9v-.9c2-1.2,3.7-2.7,5-4.7,1.3-1.9,2.3-4.4,2.9-7.4.6-2.9,1-6.1,1-9.3s-.3-6.7-.8-9.6c-.5-2.2-1-4.1-1.6-5.4-.6-1.4-1.5-2.7-2.5-4s-2.4-2.5-4.1-3.7h.1Z"/>
    <path d="M197,1072.6l8-4h.8v27.9c0,1.9,0,3.1.2,3.5.2.5.4.8.9,1.1s1.5.4,3,.4v.9h-12.4v-.9c1.5,0,2.5-.2,3-.4.4-.2.7-.6.9-.9.2-.4.3-1.6.3-3.6v-17.8c0-2.4-.1-3.9-.2-4.6-.1-.5-.3-.9-.6-1.2-.3-.2-.7-.3-1.1-.3-.6,0-1.4.2-2.5.8l-.4-.8h.1Z"/>
    <path d="M226.9,1086.7c-1.4,1.1-2.4,2.4-3,3.8-.6,1.3-.9,2.8-.9,4.3s.6,3.8,1.7,5c1.1,1.2,2.6,1.9,4.4,1.9s3.1-.5,4.2-1.5c1-1,1.6-2.2,1.6-3.7s-.4-2.2-.9-3.1c-1.2-1.7-3.5-4-7-6.8h-.1ZM229.6,1083.1c1.9-1.7,3.1-3.1,3.6-4.2.5-1,.8-2.2.8-3.4s-.5-3-1.4-4c-1-.9-2.2-1.4-3.9-1.4s-3,.5-4,1.4c-1.1.9-1.6,2.1-1.6,3.3s.2,1.7.7,2.5c.4.8,1,1.6,1.8,2.4l4,3.3h0ZM225.8,1085.8c-2.6-2.2-4.3-3.9-5.1-5.2-.8-1.3-1.1-2.6-1.1-4,0-2.1.8-4,2.4-5.5,1.6-1.5,3.8-2.3,6.6-2.3s4.8.8,6.4,2.2c1.6,1.4,2.4,3.1,2.4,4.9s-.4,2.5-1.4,3.8c-.9,1.3-2.7,2.8-5.4,4.5,2.8,2.2,4.7,4,5.6,5.2,1.2,1.7,1.9,3.5,1.9,5.2s-.9,4.4-2.6,6c-1.8,1.7-4.1,2.4-6.9,2.4s-5.6-.9-7.3-2.9c-1.4-1.6-2.1-3.3-2.1-5.2s.4-2.9,1.4-4.3,2.7-3,5.1-4.8h.1Z"/>
    <path d="M247.8,1086.7c0,4.6.6,8.3,1.7,11.1.9,2.5,2.2,3.7,4.1,3.7s1.7-.3,2.7-1.2c1-.8,1.6-2.1,2.1-4,.8-2.8,1.1-6.8,1.1-11.8s-.4-6.9-1.2-9.4c-.6-1.8-1.3-3.2-2.2-3.9-.7-.6-1.5-.9-2.4-.9s-2.1.5-2.9,1.5c-1.2,1.4-2,3.5-2.4,6.4s-.6,5.8-.6,8.6h0ZM243,1086.1c0-3.8.6-7,1.7-9.8,1.1-2.7,2.6-4.7,4.5-6.1,1.4-1,2.9-1.6,4.5-1.6,2.5,0,4.8,1.3,6.8,3.9,2.5,3.2,3.7,7.5,3.7,13s-.6,7.1-1.6,9.8c-1.1,2.7-2.5,4.6-4.2,5.8-1.7,1.2-3.3,1.8-4.9,1.8-3.2,0-5.8-1.8-7.9-5.5-1.8-3.1-2.6-6.9-2.6-11.4h0Z"/>
    <path d="M475.1,1086.1c.3-2.1.4-3.8.4-5s-.3-3.3-.8-5.1c-.5-1.8-1.3-3.2-2.3-4.2s-2.1-1.5-3.3-1.5-2.7.7-3.8,2c-1.1,1.3-1.6,3.2-1.6,5.8s.7,6.2,2.2,8.1c1,1.4,2.3,2.1,3.9,2.1s1.7-.2,2.6-.5c1-.3,1.9-.8,2.7-1.6h0ZM460,1103.1v-.8c2.1,0,4-.5,5.9-1.5,1.8-.9,3.6-2.6,5.3-5,1.7-2.3,2.8-4.9,3.5-7.8-2.6,1.7-4.9,2.5-6.9,2.5s-4.3-.9-6-2.7c-1.6-1.8-2.4-4.2-2.4-7.2s.8-5.4,2.4-7.7c2-2.8,4.6-4.2,7.8-4.2s5,1.2,7,3.4c2.3,2.8,3.5,6.2,3.5,10.3s-.9,7.1-2.7,10.3c-1.8,3.2-4.3,5.8-7.5,7.9-2.6,1.7-5.5,2.5-8.5,2.5h-1.4,0Z"/>
    <path d="M488.9,1086.7c0,4.6.5,8.3,1.7,11.1.9,2.5,2.2,3.7,4.1,3.7s1.7-.3,2.7-1.2c.9-.8,1.6-2.1,2.1-4,.8-2.8,1.2-6.8,1.2-11.8s-.4-6.9-1.2-9.4c-.6-1.8-1.3-3.2-2.2-3.9-.7-.6-1.5-.9-2.4-.9s-2.1.5-2.9,1.5c-1.2,1.4-2,3.5-2.4,6.4s-.6,5.8-.6,8.6h-.1ZM484.1,1086.1c0-3.8.6-7,1.7-9.8,1.1-2.7,2.6-4.7,4.5-6.1,1.4-1,2.9-1.6,4.5-1.6,2.5,0,4.8,1.3,6.8,3.9,2.5,3.2,3.7,7.5,3.7,13s-.5,7.1-1.6,9.8c-1.1,2.7-2.5,4.6-4.2,5.8-1.7,1.2-3.3,1.8-4.9,1.8-3.2,0-5.8-1.8-7.9-5.5-1.8-3.1-2.6-6.9-2.6-11.4h0Z"/>
    <path d="M715.9,1086.7c0,4.6.5,8.3,1.7,11.1.9,2.5,2.2,3.7,4.1,3.7s1.8-.3,2.7-1.2c1-.8,1.7-2.1,2.1-4,.8-2.8,1.2-6.8,1.2-11.8s-.4-6.9-1.2-9.4c-.6-1.8-1.3-3.2-2.2-3.9-.7-.6-1.5-.9-2.4-.9s-2.1.5-2.9,1.5c-1.2,1.4-2,3.5-2.4,6.4s-.6,5.8-.6,8.6h0ZM711.1,1086.1c0-3.8.5-7,1.7-9.8,1.1-2.7,2.6-4.7,4.5-6.1,1.4-1,2.9-1.6,4.5-1.6,2.5,0,4.8,1.3,6.8,3.9,2.5,3.2,3.7,7.5,3.7,13s-.5,7.1-1.6,9.8c-1.1,2.7-2.5,4.6-4.2,5.8-1.7,1.2-3.3,1.8-4.9,1.8-3.2,0-5.8-1.8-7.9-5.5-1.8-3.1-2.6-6.9-2.6-11.4h0Z"/>
    <path d="M968.2,1086.1c.3-2.1.5-3.8.5-5s-.3-3.3-.8-5.1c-.5-1.8-1.3-3.2-2.3-4.2s-2.1-1.5-3.3-1.5-2.7.7-3.8,2-1.6,3.2-1.6,5.8.7,6.2,2.2,8.1c1,1.4,2.3,2.1,3.9,2.1s1.7-.2,2.6-.5c1-.3,1.9-.8,2.7-1.6h-.1ZM953.1,1103.1v-.8c2.1,0,4-.5,5.9-1.5,1.8-.9,3.6-2.6,5.3-5,1.7-2.3,2.8-4.9,3.5-7.8-2.6,1.7-4.9,2.5-6.9,2.5s-4.3-.9-6-2.7c-1.6-1.8-2.4-4.2-2.4-7.2s.8-5.4,2.4-7.7c2-2.8,4.6-4.2,7.8-4.2s5,1.2,7,3.4c2.3,2.8,3.5,6.2,3.5,10.3s-.9,7.1-2.7,10.3c-1.8,3.2-4.3,5.8-7.5,7.9-2.6,1.7-5.5,2.5-8.5,2.5h-1.4,0Z"/>
    <path d="M982.1,1086.7c0,4.6.5,8.3,1.7,11.1.9,2.5,2.2,3.7,4.1,3.7s1.7-.3,2.7-1.2c.9-.8,1.6-2.1,2.1-4,.8-2.8,1.1-6.8,1.1-11.8s-.4-6.9-1.2-9.4c-.6-1.8-1.3-3.2-2.2-3.9-.7-.6-1.5-.9-2.4-.9s-2.1.5-2.9,1.5c-1.2,1.4-2,3.5-2.4,6.4s-.6,5.8-.6,8.6h0ZM977.3,1086.1c0-3.8.6-7,1.7-9.8,1.1-2.7,2.6-4.7,4.5-6.1,1.4-1,2.9-1.6,4.5-1.6,2.5,0,4.8,1.3,6.8,3.9,2.5,3.2,3.7,7.5,3.7,13s-.5,7.1-1.7,9.8c-1.1,2.7-2.5,4.6-4.2,5.8-1.7,1.2-3.3,1.8-4.9,1.8-3.2,0-5.8-1.8-7.9-5.5-1.8-3.1-2.6-6.9-2.6-11.4h.1Z"/>
    <path d="M1197.4,1072.6l8-4h.8v27.9c0,1.9,0,3.1.2,3.5.2.5.5.8,1,1.1s1.5.4,3,.4v.9h-12.4v-.9c1.5,0,2.5-.2,3-.4.4-.2.7-.6.9-.9.2-.4.3-1.6.3-3.6v-17.8c0-2.4,0-3.9-.2-4.6,0-.5-.3-.9-.6-1.2-.3-.2-.7-.3-1.1-.3-.6,0-1.4.2-2.5.8l-.4-.8h0Z"/>
    <path d="M1227.3,1086.7c-1.4,1.1-2.4,2.4-3.1,3.8-.6,1.3-.9,2.8-.9,4.3s.6,3.8,1.7,5c1.2,1.2,2.6,1.9,4.4,1.9s3.2-.5,4.2-1.5c1.1-1,1.6-2.2,1.6-3.7s-.3-2.2-.9-3.1c-1.2-1.7-3.5-4-7-6.8h0ZM1230,1083.1c1.9-1.7,3.2-3.1,3.7-4.2.5-1,.8-2.2.8-3.4s-.5-3-1.5-4-2.2-1.4-3.9-1.4-3,.5-4,1.4c-1.1.9-1.6,2.1-1.6,3.3s.2,1.7.7,2.5c.4.8,1,1.6,1.8,2.4l4,3.3h0ZM1226.2,1085.8c-2.7-2.2-4.3-3.9-5.1-5.2-.8-1.3-1.1-2.6-1.1-4,0-2.1.8-4,2.4-5.5,1.7-1.5,3.8-2.3,6.6-2.3s4.8.8,6.4,2.2c1.6,1.4,2.5,3.1,2.5,4.9s-.5,2.5-1.4,3.8-2.7,2.8-5.4,4.5c2.8,2.2,4.7,4,5.7,5.2,1.2,1.7,1.8,3.5,1.8,5.2s-.9,4.4-2.7,6c-1.8,1.7-4.1,2.4-6.9,2.4s-5.6-.9-7.3-2.9c-1.4-1.6-2.1-3.3-2.1-5.2s.4-2.9,1.4-4.3,2.7-3,5.1-4.8h0Z"/>
    <path d="M1248.2,1086.7c0,4.6.6,8.3,1.7,11.1.9,2.5,2.2,3.7,4.2,3.7s1.7-.3,2.7-1.2c1-.8,1.7-2.1,2.2-4,.8-2.8,1.2-6.8,1.2-11.8s-.4-6.9-1.2-9.4c-.6-1.8-1.4-3.2-2.2-3.9-.7-.6-1.5-.9-2.4-.9s-2.1.5-2.9,1.5c-1.2,1.4-2,3.5-2.4,6.4s-.6,5.8-.6,8.6h-.3ZM1243.4,1086.1c0-3.8.6-7,1.7-9.8,1.1-2.7,2.7-4.7,4.5-6.1,1.5-1,3-1.6,4.6-1.6,2.5,0,4.8,1.3,6.8,3.9,2.5,3.2,3.8,7.5,3.8,13s-.6,7.1-1.7,9.8-2.5,4.6-4.2,5.8c-1.7,1.2-3.3,1.8-4.9,1.8-3.2,0-5.8-1.8-7.9-5.5-1.8-3.1-2.7-6.9-2.7-11.4h0Z"/>
    <path d="M652.7,1124.5l7.1,10.6c1.9,3,3.4,4.8,4.4,5.6.9.8,2.1,1.2,3.6,1.3v.9h-14.2v-.9c.9,0,1.6,0,2.1-.3.3,0,.6-.3.8-.7.2-.3.3-.6.3-.9s0-.7-.2-1.1c0-.2-.5-.9-1.3-2.1l-5.6-8.5-6.9,8.9c-.7,1-1.1,1.6-1.3,1.9s-.2.7-.2,1c0,.5.2,1,.7,1.3.4.3,1.2.6,2.5.6v.9h-11.7v-.9c.8,0,1.5-.2,2.1-.5,1-.4,2-1,2.9-1.7s1.9-1.8,3.1-3.3l7.8-9.9-6.5-9.5c-1.8-2.5-3.3-4.2-4.5-5s-2.6-1.2-4.2-1.3v-.9h15.3v.9c-1.3,0-2.2.2-2.7.7-.5.4-.7.8-.7,1.2s.3,1.5,1.1,2.6l5.1,7.6,5.8-7.4c.7-.8,1.1-1.5,1.2-1.8,0-.3.2-.7.2-1s0-.6-.3-.9-.6-.5-.9-.7c-.4-.2-1.2-.2-2.3-.2v-.9h11.7v.9c-1,0-1.7.2-2.2.4-.9.4-1.7.9-2.4,1.5-.7.7-1.8,1.8-3.1,3.5l-6.6,8.4v-.3Z"/>
    <path d="M696.4,1152.6v.9c-2.5-1.2-4.5-2.7-6.1-4.3-2.4-2.4-4.2-5.1-5.4-8.3-1.3-3.2-1.9-6.5-1.9-10,0-5,1.2-9.6,3.7-13.8,2.5-4.2,5.7-7.1,9.8-8.9v1c-2,1.1-3.7,2.7-5,4.6s-2.2,4.4-2.8,7.3-.9,6.1-.9,9.2.2,6.7.8,9.4c.4,2.2.9,4,1.5,5.4.6,1.3,1.4,2.6,2.4,3.9,1,1.2,2.3,2.4,4,3.6h0Z"/>
    <path d="M697.9,1120.5h10.5v.9h-.7c-.6,0-1.1.2-1.4.4-.3.3-.5.8-.5,1.2s.2,1.2.5,2.1l5.2,12.3,5.2-12.8c.4-.9.6-1.6.6-2.1s0-.4-.2-.6c-.2-.2-.4-.3-.7-.4s-.8-.2-1.6-.2v-.9h7.3v.9c-.9,0-1.4.2-1.7.5-.6.5-1.2,1.3-1.5,2.4l-7.9,19.2h-1l-8-18.8c-.4-.8-.7-1.5-1-1.8-.4-.4-.8-.7-1.2-1-.3,0-.8-.2-1.6-.4v-.9h-.3Z"/>
    <path d="M734.3,1121.4c-.9,0-1.7.3-2.6.8-.9.5-1.6,1.4-2.1,2.7-.5,1.3-.8,2.9-.8,4.9,0,3.2.6,6.1,1.9,8.4,1.3,2.4,3,3.6,5.1,3.6s2.8-.7,3.9-2c1-1.3,1.5-3.5,1.5-6.7s-.9-7.1-2.6-9.4c-1.2-1.6-2.6-2.3-4.4-2.3h0ZM735,1119.8c3.4,0,6.1,1.3,8.1,3.8,1.7,2.2,2.6,4.8,2.6,7.6s-.5,4.1-1.4,6.1c-.9,2.1-2.2,3.6-3.9,4.6s-3.5,1.6-5.6,1.6c-3.4,0-6-1.3-8-4-1.7-2.2-2.5-4.8-2.5-7.6s.5-4.1,1.5-6.1,2.3-3.5,4-4.5,3.4-1.4,5.3-1.4h0Z"/>
    <path d="M756.8,1108.1v29.6c0,1.4,0,2.3.3,2.8.2.5.5.8,1,1,.4.2,1.2.3,2.3.3v.9h-10.9v-.9c1,0,1.7,0,2.1-.3.4-.2.7-.6.9-1.1s.3-1.4.3-2.8v-20.3c0-2.5,0-4-.2-4.7,0-.6-.3-1-.5-1.2s-.5-.3-1-.3-.9.2-1.6.4l-.4-.9,6.6-2.7h1.1v.2Z"/>
    <path d="M769.5,1113.1v7.3h5.2v1.7h-5.2v14.5c0,1.5.2,2.5.6,3s1,.8,1.7.8,1-.2,1.5-.5.8-.8,1.2-1.5h.9c-.6,1.6-1.4,2.8-2.4,3.6-1,.8-2.1,1.2-3.2,1.2s-1.5-.2-2.2-.6-1.2-1-1.5-1.8c-.4-.8-.5-2-.5-3.6v-15.1h-3.5v-.8c.9-.3,1.8-1,2.7-1.8s1.8-1.8,2.5-3c.3-.6.8-1.8,1.5-3.4h.7Z"/>
    <path d="M791.3,1119.8v7.6h-.8c-.6-2.4-1.4-4-2.3-4.9-1-.9-2.2-1.3-3.7-1.3s-2.1.3-2.8.9-1,1.3-1,2,.2,1.8.8,2.3c.5.7,1.5,1.4,3.1,2.2l3.5,1.7c3.3,1.7,4.9,3.8,4.9,6.4s-.8,3.7-2.3,4.9c-1.5,1.2-3.2,1.8-5.1,1.8s-2.9-.2-4.7-.7c-.6-.2-1-.2-1.3-.2s-.7.2-.9.6h-.8v-8h.8c.5,2.3,1.3,4.1,2.6,5.2s2.7,1.7,4.3,1.7,2-.3,2.7-1,1.1-1.4,1.1-2.4-.4-2-1.2-2.8-2.4-1.7-4.7-2.9c-2.3-1.2-3.9-2.2-4.6-3.2-.8-.9-1.1-2.1-1.1-3.5s.6-3.4,1.9-4.6c1.2-1.2,2.9-1.8,4.9-1.8s1.9.2,3.2.5c.8.2,1.3.3,1.6.3s.5,0,.6-.2c0,0,.3-.3.5-.7h.8Z"/>
    <path d="M795.9,1109.1v-1c2.5,1.2,4.5,2.7,6.2,4.3,2.3,2.4,4.1,5.1,5.4,8.3,1.2,3.2,1.9,6.5,1.9,10,0,5.1-1.2,9.7-3.7,13.8-2.5,4.1-5.7,7.1-9.7,8.9v-.9c2-1.2,3.6-2.7,4.9-4.6,1.3-1.9,2.2-4.3,2.9-7.2.6-2.9.9-6,.9-9.2s-.3-6.6-.8-9.5c-.4-2.2-.9-4-1.5-5.3-.6-1.4-1.4-2.7-2.4-4-1-1.2-2.3-2.4-4-3.6h-.1Z"/>
    <path d="M110.4,1020.2l8-4h.8v27.9c0,1.9,0,3,.2,3.5.2.4.4.8.9,1s1.5.4,3,.4v.9h-12.4v-.9c1.6,0,2.5-.2,3-.4.4-.2.8-.5.9-.9.2-.4.3-1.6.3-3.6v-17.8c0-2.4,0-4-.2-4.7,0-.5-.3-.9-.6-1.2-.3-.2-.7-.3-1.1-.3-.6,0-1.5.2-2.5.8l-.4-.8h0Z"/>
    <path d="M140.3,1034.3c-1.4,1.2-2.4,2.4-3,3.8-.6,1.3-.9,2.8-.9,4.3s.6,3.8,1.7,5.1c1.1,1.2,2.6,1.8,4.4,1.8s3.1-.5,4.2-1.5c1.1-1,1.6-2.2,1.6-3.6s-.4-2.2-.9-3.2c-1.2-1.7-3.5-4-7-6.8h-.1ZM143,1030.8c1.9-1.7,3.1-3.1,3.6-4.1s.8-2.2.8-3.5-.5-3-1.4-4c-.9-.9-2.2-1.4-3.9-1.4s-3,.5-4,1.4c-1,1-1.5,2.1-1.5,3.3s.2,1.7.7,2.6c.4.8,1,1.7,1.8,2.4l4,3.3h-.1ZM139.2,1033.4c-2.6-2.2-4.3-3.9-5.1-5.2-.8-1.3-1.1-2.7-1.1-4.1,0-2.2.8-4,2.4-5.5,1.6-1.6,3.8-2.4,6.6-2.4s4.8.8,6.4,2.2c1.6,1.4,2.5,3.1,2.5,4.9s-.5,2.5-1.4,3.8-2.7,2.8-5.4,4.5c2.8,2.2,4.7,4,5.6,5.2,1.2,1.7,1.8,3.4,1.8,5.2s-.9,4.3-2.6,5.9c-1.8,1.7-4.1,2.4-6.9,2.4s-5.6-.9-7.3-2.9c-1.4-1.6-2.1-3.3-2.1-5.2s.4-2.9,1.4-4.3,2.7-3,5.1-4.8v.3Z"/>
    <path d="M161.2,1034.3c0,4.6.5,8.3,1.7,11.2.9,2.4,2.2,3.6,4.1,3.6s1.7-.3,2.7-1.1c.9-.8,1.6-2.1,2.1-4,.7-2.8,1.1-6.8,1.1-11.9s-.4-6.9-1.2-9.4c-.6-1.8-1.4-3.2-2.2-3.9-.7-.6-1.5-.8-2.4-.8s-2.1.5-2.9,1.5c-1.2,1.4-2,3.5-2.4,6.4-.4,2.9-.6,5.7-.6,8.5h0ZM156.4,1033.7c0-3.8.6-7,1.7-9.7,1.1-2.7,2.6-4.8,4.5-6.1,1.4-1.1,2.9-1.6,4.5-1.6,2.5,0,4.8,1.3,6.8,3.9,2.5,3.2,3.7,7.6,3.7,13s-.6,7.1-1.7,9.8c-1.1,2.7-2.5,4.6-4.2,5.8-1.7,1.2-3.3,1.8-4.9,1.8-3.2,0-5.8-1.8-7.9-5.5-1.8-3.1-2.7-6.9-2.7-11.3h.2Z"/>
    <path d="M147.3,780.1c.3-2.1.4-3.7.4-5s-.3-3.3-.8-5.1c-.6-1.8-1.3-3.2-2.3-4.2s-2.1-1.5-3.3-1.5-2.7.7-3.8,2-1.6,3.2-1.6,5.8.7,6.1,2.2,8c1.1,1.4,2.3,2.1,3.9,2.1s1.6-.2,2.6-.5,1.9-.8,2.7-1.6h0ZM132.2,797.1v-.8c2.1,0,4-.5,5.9-1.5,1.8-.9,3.6-2.6,5.3-5,1.7-2.3,2.8-4.9,3.5-7.8-2.6,1.7-4.9,2.5-6.9,2.5s-4.3-.9-6-2.7-2.4-4.1-2.4-7.1.8-5.5,2.4-7.8c2-2.8,4.6-4.2,7.8-4.2s5,1.2,7,3.4c2.3,2.8,3.5,6.2,3.5,10.3s-.9,7.1-2.7,10.3-4.3,5.8-7.5,7.9c-2.6,1.7-5.5,2.5-8.5,2.5h-1.4Z"/>
    <path d="M161.2,780.7c0,4.6.5,8.3,1.7,11.2.9,2.5,2.2,3.7,4.1,3.7s1.7-.3,2.7-1.2c.9-.8,1.6-2.1,2.1-4,.7-2.8,1.1-6.8,1.1-11.8s-.4-6.9-1.2-9.4c-.6-1.8-1.4-3.2-2.2-4-.7-.5-1.5-.8-2.4-.8s-2.1.5-2.9,1.5c-1.2,1.4-2,3.5-2.4,6.4s-.6,5.7-.6,8.5h0ZM156.4,780.1c0-3.7.6-7,1.7-9.7,1.1-2.7,2.6-4.8,4.5-6.1,1.4-1,2.9-1.6,4.5-1.6,2.5,0,4.8,1.3,6.8,3.9,2.5,3.2,3.7,7.5,3.7,13s-.6,7.1-1.7,9.8c-1.1,2.7-2.5,4.6-4.2,5.8s-3.3,1.8-4.9,1.8c-3.2,0-5.8-1.8-7.9-5.6-1.8-3.1-2.7-6.9-2.7-11.3h.2Z"/>
    <path d="M161.2,527.1c0,4.6.5,8.3,1.7,11.2.9,2.4,2.2,3.7,4.1,3.7s1.8-.4,2.7-1.2,1.7-2.1,2.2-4c.7-2.8,1.1-6.8,1.1-11.8s-.4-6.9-1.2-9.5c-.6-1.8-1.4-3.1-2.2-3.9-.7-.6-1.5-.8-2.4-.8s-2.1.5-2.9,1.5c-1.2,1.4-2,3.5-2.4,6.4s-.6,5.8-.6,8.5h-.1ZM156.4,526.5c0-3.7.6-7,1.7-9.7,1.1-2.7,2.6-4.8,4.5-6.1,1.4-1.1,2.9-1.6,4.5-1.6,2.5,0,4.8,1.3,6.8,3.9,2.5,3.2,3.7,7.6,3.7,13s-.5,7.1-1.6,9.8-2.5,4.6-4.2,5.8-3.3,1.8-4.9,1.8c-3.2,0-5.8-1.9-7.9-5.6-1.8-3.1-2.6-6.9-2.6-11.3Z"/>
    <path d="M147.3,272.9c.3-2.1.4-3.8.4-5.1s-.3-3.3-.8-5.1c-.6-1.8-1.3-3.2-2.3-4.2s-2.1-1.5-3.3-1.5-2.7.7-3.8,1.9c-1.1,1.3-1.6,3.2-1.6,5.8s.7,6.2,2.2,8.1c1.1,1.4,2.3,2.1,3.9,2.1s1.6-.2,2.6-.5,1.9-.8,2.7-1.5h0ZM132.2,289.9v-.9c2.1,0,4-.5,5.9-1.5,1.8-.9,3.6-2.6,5.3-5,1.7-2.3,2.8-4.9,3.5-7.8-2.6,1.7-4.9,2.5-6.9,2.5s-4.3-.9-6-2.7c-1.7-1.8-2.4-4.1-2.4-7.1s.8-5.4,2.4-7.8c2-2.8,4.6-4.1,7.8-4.1s5,1.1,7,3.4c2.3,2.8,3.5,6.2,3.5,10.3s-.9,7.1-2.7,10.3c-1.8,3.2-4.3,5.8-7.5,7.9-2.6,1.7-5.5,2.6-8.5,2.6h-1.4Z"/>
    <path d="M161.2,273.5c0,4.6.5,8.3,1.7,11.1.9,2.4,2.2,3.6,4.1,3.6s1.8-.3,2.7-1.1c.9-.8,1.7-2.1,2.2-4,.7-2.8,1.1-6.8,1.1-11.8s-.4-6.9-1.2-9.4c-.6-1.9-1.4-3.1-2.2-3.9-.7-.6-1.5-.9-2.4-.9s-2.1.5-2.9,1.5c-1.2,1.4-2,3.5-2.4,6.4s-.6,5.8-.6,8.5h-.1ZM156.4,272.9c0-3.8.6-7,1.7-9.8,1.1-2.7,2.6-4.8,4.5-6.1,1.4-1.1,2.9-1.6,4.5-1.6,2.5,0,4.8,1.3,6.8,3.9,2.5,3.2,3.7,7.6,3.7,13.1s-.5,7.1-1.6,9.8c-1.1,2.7-2.5,4.6-4.2,5.8-1.7,1.2-3.3,1.8-4.9,1.8-3.2,0-5.8-1.8-7.9-5.6-1.8-3.1-2.6-6.9-2.6-11.3h0Z"/>
    <path d="M110.4,5.7l8-4h.8v27.9c0,1.9,0,3,.2,3.5.2.4.5.8,1,1s1.5.4,3,.4v.9h-12.4v-.9c1.6,0,2.5-.2,3-.4s.8-.5,1-.9.3-1.6.3-3.6V11.9c0-2.4,0-3.9-.2-4.6,0-.5-.3-.9-.6-1.2-.3-.2-.7-.3-1.1-.3-.6,0-1.4.2-2.5.8l-.4-.8h-.1Z"/>
    <path d="M140.3,19.8c-1.4,1.2-2.4,2.4-3,3.7-.6,1.4-.9,2.8-.9,4.4s.6,3.8,1.7,5.1c1.1,1.2,2.6,1.8,4.4,1.8s3.1-.4,4.2-1.4c1.1-1,1.6-2.2,1.6-3.6s-.3-2.2-.9-3.2c-1.2-1.7-3.5-3.9-7-6.7h-.1ZM143,16.3c1.9-1.7,3.1-3.1,3.6-4.1s.8-2.1.8-3.4-.5-3-1.4-4c-.9-.9-2.2-1.4-3.9-1.4s-3,.5-4,1.4-1.5,2.1-1.5,3.3.2,1.7.6,2.6c.4.9,1,1.7,1.8,2.4l4,3.3h0ZM139.2,18.9c-2.6-2.2-4.3-3.9-5.1-5.2s-1.1-2.7-1.1-4.1c0-2.2.8-4,2.4-5.6,1.6-1.6,3.8-2.4,6.6-2.4s4.8.8,6.4,2.2c1.6,1.4,2.4,3.1,2.4,4.9s-.4,2.5-1.3,3.8c-.9,1.3-2.7,2.8-5.4,4.5,2.8,2.2,4.7,4,5.6,5.2,1.2,1.7,1.8,3.4,1.8,5.2s-.9,4.3-2.6,5.9c-1.8,1.6-4.1,2.4-6.9,2.4s-5.6-.9-7.3-2.9c-1.4-1.6-2.1-3.3-2.1-5.2s.5-2.9,1.5-4.3,2.7-3,5.1-4.7v.3Z"/>
    <path d="M161.2,19.8c0,4.6.5,8.3,1.7,11.1.9,2.4,2.2,3.6,4.1,3.6s1.8-.4,2.7-1.1c.9-.8,1.7-2.1,2.2-4,.7-2.8,1.1-6.8,1.1-11.8s-.4-6.9-1.2-9.4c-.6-1.9-1.4-3.2-2.2-3.9-.7-.6-1.5-.9-2.4-.9s-2.1.5-2.9,1.5c-1.2,1.4-2,3.5-2.4,6.4-.4,2.9-.6,5.8-.6,8.6h-.1ZM156.4,19.2c0-3.8.6-7,1.7-9.8,1.1-2.7,2.6-4.8,4.5-6.1,1.4-1.1,2.9-1.6,4.5-1.6,2.5,0,4.8,1.3,6.8,3.9,2.5,3.2,3.7,7.6,3.7,13.1s-.5,7.1-1.6,9.8c-1.1,2.7-2.5,4.6-4.2,5.8s-3.3,1.8-4.9,1.8c-3.2,0-5.8-1.9-7.9-5.6-1.8-3.1-2.6-6.9-2.6-11.3Z"/>
    <path d="M37.6,590.3v-11.5h.9v.6c0,.5.2,1.1.5,1.9.4.8.9,1.5,1.6,2.2.7.7,1.8,1.5,3.4,2.5l12.5,8h8.3c2,0,3.3-.2,3.8-.7.7-.6,1-1.6,1-2.9v-1.1h.9v14.1h-.9v-1.2c0-1.4-.4-2.4-1.2-3-.5-.3-1.7-.5-3.6-.5h-7.8l-13.9,9.1c-1.6,1.1-2.6,1.8-3,2.2s-.8,1.2-1.4,2.3c-.2.3-.2.8-.2,1.5h-.9v-14.1h.9v.7c0,.8.2,1.5.5,2.2s.9,1,1.6,1,1.6-.5,3.1-1.5l10.7-6.9-10.2-6.5c-1.5-1-2.6-1.5-3.4-1.5s-.8.2-1.2.4c-.3.2-.6.6-.8,1s-.3,1.1-.3,1.9h-.9v-.2Z"/>
    <path d="M80.4,551.8h.9c-1.2,2.5-2.7,4.5-4.3,6.1-2.4,2.4-5.1,4.2-8.3,5.5-3.2,1.3-6.5,1.9-10,1.9-5,0-9.6-1.2-13.8-3.7-4.1-2.5-7.1-5.8-8.9-9.8h1c1.1,2,2.6,3.7,4.5,5s4.4,2.2,7.3,2.8c2.9.7,6,.9,9.2.9s6.6-.2,9.4-.8c2.2-.4,4-1,5.3-1.6s2.6-1.4,3.9-2.4c1.2-1,2.4-2.3,3.6-4h.2Z"/>
    <path d="M48.3,550.3v-10.6h.9v.7c0,.6,0,1.1.4,1.4.3.3.7.5,1.2.5s1.2-.2,2-.5l12.3-5.2-12.8-5.2c-.9-.4-1.5-.6-2-.6s-.4,0-.6.2c-.2.2-.3.4-.4.7,0,.3,0,.8,0,1.7h-.9v-7.3h.9c0,.9.2,1.4.5,1.8.5.6,1.3,1.2,2.4,1.6l19.1,7.9v1l-18.8,8c-.8.3-1.4.7-1.8,1-.4.3-.7.8-1,1.2,0,.3-.2.8-.4,1.7h-.9Z"/>
    <path d="M49.2,513.9c0,.9.3,1.8.8,2.6.5.9,1.4,1.6,2.7,2.1,1.3.6,2.9.8,4.9.8,3.2,0,6-.6,8.4-1.9,2.4-1.3,3.5-3,3.5-5.2s-.6-2.8-1.9-3.9c-1.3-1-3.5-1.5-6.7-1.5s-7.1.9-9.4,2.6c-1.5,1.2-2.3,2.6-2.3,4.4h0ZM47.7,513.2c0-3.4,1.3-6.1,3.8-8.2,2.2-1.7,4.7-2.6,7.5-2.6s4,.5,6.1,1.4c2,1,3.6,2.2,4.6,4,1,1.7,1.5,3.5,1.5,5.6,0,3.4-1.3,6-4,8-2.2,1.7-4.8,2.5-7.6,2.5s-4.1-.5-6.1-1.5-3.5-2.3-4.5-4c-.9-1.6-1.4-3.4-1.4-5.3h.1Z"/>
    <path d="M36,491.4h29.6c1.4,0,2.3,0,2.8-.3.4-.2.8-.5,1-.9s.3-1.2.3-2.3h.9v10.9h-.9c0-1,0-1.7-.3-2.1-.2-.3-.5-.7-1-.8-.5-.2-1.4-.3-2.8-.3h-20.3c-2.5,0-4,0-4.6.2-.6,0-1,.3-1.2.6s-.3.5-.3.9.2.9.3,1.6l-.8.4-2.7-6.6v-1.3Z"/>
    <path d="M41,478.7h7.3v-5.2h1.7v5.2h14.5c1.4,0,2.4-.2,2.9-.6s.7-.9.7-1.6,0-1.1-.5-1.6c-.3-.5-.8-.8-1.5-1.2v-.9c1.6.6,2.8,1.4,3.6,2.4.8,1,1.1,2.1,1.1,3.2s-.2,1.6-.6,2.2c-.4.7-.9,1.2-1.7,1.6-.7.3-1.9.5-3.5.5h-15v3.5h-.8c-.3-.9-.9-1.8-1.8-2.8-.8-.9-1.8-1.8-3-2.5-.6-.3-1.7-.8-3.4-1.5v-.8h0Z"/>
    <path d="M47.7,456.9h7.6v.8c-2.4.6-4,1.4-4.9,2.4-.8,1-1.3,2.2-1.3,3.7s.3,2.1.9,2.8c.6.7,1.3,1,2,1s1.7-.2,2.3-.8c.7-.5,1.4-1.5,2.1-3.1l1.7-3.6c1.6-3.3,3.8-4.9,6.4-4.9s3.7.8,4.9,2.3c1.2,1.6,1.8,3.2,1.8,5.1s-.2,2.9-.7,4.7c0,.6-.2,1-.2,1.4s.2.6.6.9v.8h-7.9v-.8c2.3-.5,4-1.3,5.2-2.6,1.1-1.3,1.7-2.8,1.7-4.4s-.3-2-1-2.7c-.6-.7-1.4-1.1-2.4-1.1s-2,.4-2.8,1.2c-.7.8-1.7,2.4-2.9,4.8-1.1,2.3-2.2,3.9-3.2,4.6-.9.8-2.1,1.1-3.5,1.1s-3.3-.6-4.6-1.9c-1.2-1.2-1.8-2.9-1.8-4.9s.2-1.9.5-3.2c.2-.8.3-1.4.3-1.6s0-.5,0-.6c0-.1-.3-.3-.7-.5v-.8h0Z"/>
    <path d="M37,452.3h-1c1.2-2.5,2.6-4.5,4.3-6.2,2.4-2.3,5.1-4.1,8.3-5.4,3.2-1.2,6.5-1.9,10-1.9,5.1,0,9.7,1.2,13.8,3.8,4.1,2.5,7.1,5.7,8.9,9.7h-.9c-1.1-2-2.7-3.6-4.6-4.9s-4.3-2.2-7.2-2.9c-2.9-.6-6-.9-9.2-.9s-6.6.3-9.5.8c-2.2.5-4,1-5.3,1.6s-2.6,1.4-3.9,2.4c-1.2,1-2.4,2.4-3.6,4h-.1Z"/>
    <path d="M1414.4,1072.6l8-4h.8v27.9c0,1.9,0,3.1.2,3.5.2.5.4.8.9,1.1s1.5.4,3,.4v.9h-12.4v-.9c1.6,0,2.6-.2,3-.4.4-.2.8-.6.9-.9.2-.4.3-1.6.3-3.6v-17.8c0-2.4,0-3.9-.2-4.6,0-.5-.3-.9-.6-1.2-.3-.2-.7-.3-1.1-.3-.6,0-1.5.2-2.5.8l-.4-.8h0Z"/>
    <path d="M1444.3,1086.7c-1.4,1.1-2.4,2.4-3,3.8-.7,1.3-1,2.8-1,4.3s.6,3.8,1.7,5,2.6,1.9,4.4,1.9,3.1-.5,4.2-1.5c1-1,1.6-2.2,1.6-3.7s-.3-2.2-1-3.1c-1.2-1.7-3.5-4-7-6.8h.1ZM1447,1083.1c1.9-1.7,3.2-3.1,3.7-4.2.5-1,.8-2.2.8-3.4s-.5-3-1.4-4c-1-.9-2.2-1.4-3.9-1.4s-3.1.5-4.1,1.4-1.5,2.1-1.5,3.3.2,1.7.7,2.5c.4.8,1,1.6,1.8,2.4l4.1,3.3h-.2ZM1443.2,1085.8c-2.7-2.2-4.4-3.9-5.1-5.2-.7-1.3-1.1-2.6-1.1-4,0-2.1.8-4,2.4-5.5s3.8-2.3,6.6-2.3,4.8.8,6.5,2.2c1.6,1.4,2.4,3.1,2.4,4.9s-.4,2.5-1.3,3.8-2.7,2.8-5.4,4.5c2.8,2.2,4.7,4,5.6,5.2,1.2,1.7,1.9,3.5,1.9,5.2s-.9,4.4-2.7,6c-1.8,1.7-4.1,2.4-7,2.4s-5.6-.9-7.3-2.9c-1.4-1.6-2.1-3.3-2.1-5.2s.5-2.9,1.4-4.3c1-1.4,2.7-3,5.1-4.8h0Z"/>
    <path d="M1465.2,1086.7c0,4.6.6,8.3,1.7,11.1.9,2.5,2.2,3.7,4.2,3.7s1.8-.3,2.7-1.2c.9-.8,1.7-2.1,2.2-4,.8-2.8,1.2-6.8,1.2-11.8s-.4-6.9-1.2-9.4c-.6-1.8-1.3-3.2-2.2-3.9-.7-.6-1.5-.9-2.4-.9s-2.1.5-3,1.5c-1.2,1.4-2,3.5-2.4,6.4s-.6,5.8-.6,8.6h-.2ZM1460.4,1086.1c0-3.8.6-7,1.7-9.8,1.1-2.7,2.6-4.7,4.5-6.1,1.4-1,2.9-1.6,4.5-1.6,2.5,0,4.8,1.3,6.9,3.9,2.5,3.2,3.8,7.5,3.8,13s-.6,7.1-1.7,9.8-2.6,4.6-4.2,5.8c-1.7,1.2-3.3,1.8-5,1.8-3.2,0-5.8-1.8-7.9-5.5-1.8-3.1-2.7-6.9-2.7-11.4h0Z"/>
    <path d="M1692.5,1086.1c.3-2.1.4-3.8.4-5s-.3-3.3-.8-5.1c-.6-1.8-1.3-3.2-2.3-4.2s-2.1-1.5-3.3-1.5-2.7.7-3.8,2c-1.1,1.3-1.6,3.2-1.6,5.8s.7,6.2,2.2,8.1c1.1,1.4,2.3,2.1,3.9,2.1s1.7-.2,2.6-.5c1-.3,1.9-.8,2.7-1.6h0ZM1677.4,1103.1v-.8c2.1,0,4-.5,5.9-1.5,1.8-.9,3.6-2.6,5.3-5,1.7-2.3,2.8-4.9,3.5-7.8-2.6,1.7-4.9,2.5-6.9,2.5s-4.3-.9-6-2.7c-1.6-1.8-2.4-4.2-2.4-7.2s.8-5.4,2.4-7.7c2-2.8,4.6-4.2,7.9-4.2s5,1.2,7,3.4c2.4,2.8,3.6,6.2,3.6,10.3s-.9,7.1-2.7,10.3c-1.8,3.2-4.4,5.8-7.5,7.9-2.7,1.7-5.5,2.5-8.5,2.5h-1.6Z"/>
    <path d="M1706.3,1086.7c0,4.6.6,8.3,1.7,11.1.9,2.5,2.2,3.7,4.2,3.7s1.8-.3,2.7-1.2c.9-.8,1.6-2.1,2.1-4,.8-2.8,1.2-6.8,1.2-11.8s-.4-6.9-1.2-9.4c-.6-1.8-1.3-3.2-2.2-3.9-.7-.6-1.5-.9-2.5-.9s-2.1.5-2.9,1.5c-1.2,1.4-2,3.5-2.4,6.4s-.6,5.8-.6,8.6h0ZM1701.5,1086.1c0-3.8.6-7,1.7-9.8,1.1-2.7,2.7-4.7,4.5-6.1,1.5-1,3-1.6,4.6-1.6,2.5,0,4.8,1.3,6.8,3.9,2.5,3.2,3.8,7.5,3.8,13s-.6,7.1-1.7,9.8-2.5,4.6-4.2,5.8c-1.7,1.2-3.3,1.8-4.9,1.8-3.2,0-5.8-1.8-7.9-5.5-1.8-3.1-2.7-6.9-2.7-11.4h0Z"/>
    <path d="M1933.3,1086.7c0,4.6.6,8.3,1.7,11.1.9,2.5,2.2,3.7,4.2,3.7s1.8-.3,2.7-1.2c.9-.8,1.6-2.1,2.1-4,.8-2.8,1.2-6.8,1.2-11.8s-.4-6.9-1.2-9.4c-.6-1.8-1.3-3.2-2.2-3.9-.7-.6-1.5-.9-2.5-.9s-2.1.5-2.9,1.5c-1.2,1.4-2,3.5-2.4,6.4s-.6,5.8-.6,8.6h0ZM1928.5,1086.1c0-3.8.6-7,1.7-9.8,1.1-2.7,2.7-4.7,4.5-6.1,1.5-1,3-1.6,4.6-1.6,2.5,0,4.8,1.3,6.8,3.9,2.5,3.2,3.7,7.5,3.7,13s-.5,7.1-1.6,9.8c-1.1,2.7-2.5,4.6-4.2,5.8-1.7,1.2-3.3,1.8-4.9,1.8-3.2,0-5.8-1.8-7.9-5.5-1.8-3.1-2.7-6.9-2.7-11.4h0Z"/>
    <path d="M2185.6,1086.1c.3-2.1.4-3.8.4-5s-.3-3.3-.8-5.1c-.5-1.8-1.3-3.2-2.3-4.2s-2.1-1.5-3.4-1.5-2.7.7-3.8,2-1.6,3.2-1.6,5.8.7,6.2,2.2,8.1c1.1,1.4,2.4,2.1,3.9,2.1s1.7-.2,2.7-.5,1.9-.8,2.7-1.6h0ZM2170.5,1103.1v-.8c2.1,0,4-.5,5.9-1.5,1.8-.9,3.6-2.6,5.3-5,1.7-2.3,2.8-4.9,3.5-7.8-2.6,1.7-4.9,2.5-6.9,2.5s-4.3-.9-6-2.7c-1.6-1.8-2.4-4.2-2.4-7.2s.8-5.4,2.4-7.7c2-2.8,4.6-4.2,7.8-4.2s5.1,1.2,7,3.4c2.3,2.8,3.6,6.2,3.6,10.3s-.9,7.1-2.7,10.3c-1.8,3.2-4.3,5.8-7.5,7.9-2.7,1.7-5.5,2.5-8.5,2.5h-1.5Z"/>
    <path d="M2199.5,1086.7c0,4.6.5,8.3,1.7,11.1.9,2.5,2.2,3.7,4.1,3.7s1.8-.3,2.7-1.2c1-.8,1.7-2.1,2.2-4,.8-2.8,1.1-6.8,1.1-11.8s-.4-6.9-1.2-9.4c-.6-1.8-1.4-3.2-2.2-3.9-.7-.6-1.5-.9-2.4-.9s-2.1.5-2.9,1.5c-1.2,1.4-2,3.5-2.4,6.4s-.6,5.8-.6,8.6h-.1ZM2194.7,1086.1c0-3.8.6-7,1.7-9.8,1.1-2.7,2.6-4.7,4.6-6.1,1.4-1,2.9-1.6,4.5-1.6,2.5,0,4.8,1.3,6.8,3.9,2.5,3.2,3.8,7.5,3.8,13s-.6,7.1-1.6,9.8c-1.1,2.7-2.6,4.6-4.2,5.8-1.7,1.2-3.4,1.8-4.9,1.8-3.2,0-5.8-1.8-7.9-5.5-1.8-3.1-2.6-6.9-2.6-11.4h-.2Z"/>
    <path d="M2414.9,1072.6l8.1-4h.8v27.9c0,1.9,0,3.1.2,3.5.1.5.4.8.9,1.1s1.5.4,3,.4v.9h-12.4v-.9c1.5,0,2.5-.2,3-.4.4-.2.8-.6.9-.9.2-.4.3-1.6.3-3.6v-17.8c0-2.4-.1-3.9-.2-4.6-.1-.5-.3-.9-.6-1.2-.3-.2-.7-.3-1.1-.3-.6,0-1.4.2-2.5.8l-.4-.8h0Z"/>
    <path d="M2444.8,1086.7c-1.4,1.1-2.4,2.4-3.1,3.8-.6,1.3-.9,2.8-.9,4.3s.6,3.8,1.7,5c1.2,1.2,2.6,1.9,4.4,1.9s3.1-.5,4.2-1.5c1.1-1,1.6-2.2,1.6-3.7s-.3-2.2-.9-3.1c-1.2-1.7-3.5-4-7-6.8h0ZM2447.5,1083.1c1.9-1.7,3.2-3.1,3.7-4.2.5-1,.8-2.2.8-3.4s-.5-3-1.5-4c-.9-.9-2.2-1.4-3.9-1.4s-3.1.5-4.1,1.4c-1.1.9-1.6,2.1-1.6,3.3s.2,1.7.7,2.5c.4.8,1,1.6,1.8,2.4l4,3.3h.1ZM2443.6,1085.8c-2.7-2.2-4.4-3.9-5.1-5.2-.8-1.3-1.1-2.6-1.1-4,0-2.1.8-4,2.4-5.5,1.6-1.5,3.8-2.3,6.6-2.3s4.8.8,6.4,2.2c1.6,1.4,2.5,3.1,2.5,4.9s-.5,2.5-1.4,3.8-2.7,2.8-5.4,4.5c2.8,2.2,4.7,4,5.6,5.2,1.2,1.7,1.9,3.5,1.9,5.2s-.9,4.4-2.7,6c-1.8,1.7-4.1,2.4-6.9,2.4s-5.6-.9-7.3-2.9c-1.4-1.6-2.1-3.3-2.1-5.2s.4-2.9,1.4-4.3,2.7-3,5.1-4.8h.1Z"/>
    <path d="M2465.6,1086.7c0,4.6.6,8.3,1.7,11.1.9,2.5,2.2,3.7,4.1,3.7s1.8-.3,2.7-1.2c.9-.8,1.6-2.1,2.1-4,.8-2.8,1.1-6.8,1.1-11.8s-.4-6.9-1.2-9.4c-.6-1.8-1.3-3.2-2.2-3.9-.7-.6-1.5-.9-2.4-.9s-2.1.5-2.9,1.5c-1.2,1.4-2,3.5-2.4,6.4s-.6,5.8-.6,8.6h0ZM2460.8,1086.1c0-3.8.6-7,1.7-9.8,1.1-2.7,2.7-4.7,4.6-6.1,1.4-1,2.9-1.6,4.6-1.6,2.5,0,4.8,1.3,6.8,3.9,2.5,3.2,3.7,7.5,3.7,13s-.6,7.1-1.6,9.8c-1.1,2.7-2.5,4.6-4.2,5.8-1.7,1.2-3.4,1.8-4.9,1.8-3.2,0-5.8-1.8-7.9-5.5-1.8-3.1-2.6-6.9-2.6-11.4h-.2Z"/>
    <path d="M1870.1,1124.5l7.1,10.6c1.9,3,3.4,4.8,4.4,5.6.9.8,2.1,1.2,3.6,1.3v.9h-14.2v-.9c1,0,1.7,0,2.1-.3.3,0,.6-.3.8-.7.2-.3.3-.6.3-.9s0-.7-.2-1.1c0-.2-.6-.9-1.3-2.1l-5.6-8.5-6.9,8.9c-.7,1-1.1,1.6-1.3,1.9-.2.3-.2.7-.2,1,0,.5.2,1,.7,1.3.4.3,1.2.6,2.5.6v.9h-11.7v-.9c.8,0,1.6-.2,2.2-.5,1-.4,2-1,2.9-1.7s1.9-1.8,3.1-3.3l7.8-9.9-6.5-9.5c-1.8-2.5-3.3-4.2-4.5-5s-2.7-1.2-4.2-1.3v-.9h15.3v.9c-1.3,0-2.2.2-2.7.7s-.7.8-.7,1.2.3,1.5,1.2,2.6l5.1,7.6,5.8-7.4c.7-.8,1.1-1.5,1.2-1.8.2-.3.2-.7.2-1s0-.6-.3-.9c-.2-.3-.6-.5-.9-.7-.4-.2-1.2-.2-2.3-.2v-.9h11.8v.9c-1,0-1.7.2-2.2.4-.9.4-1.7.9-2.4,1.5-.8.7-1.8,1.8-3.1,3.5l-6.6,8.4-.3-.3Z"/>
    <path d="M1913.8,1152.6v.9c-2.5-1.2-4.5-2.7-6.1-4.3-2.4-2.4-4.2-5.1-5.5-8.3-1.3-3.2-1.9-6.5-1.9-10,0-5,1.2-9.6,3.7-13.8,2.5-4.2,5.8-7.1,9.8-8.9v1c-2,1.1-3.7,2.7-5,4.6s-2.2,4.4-2.8,7.3c-.7,2.9-.9,6.1-.9,9.2s.2,6.7.8,9.4c.4,2.2,1,4,1.6,5.4.6,1.3,1.4,2.6,2.4,3.9,1,1.2,2.3,2.4,4,3.6h0Z"/>
    <path d="M1915.3,1120.5h10.6v.9h-.7c-.6,0-1.1.2-1.4.4-.3.3-.5.8-.5,1.2s.2,1.2.5,2.1l5.2,12.3,5.2-12.8c.4-.9.6-1.6.6-2.1s0-.4-.2-.6-.4-.3-.7-.4c-.3,0-.8-.2-1.7-.2v-.9h7.3v.9c-.9,0-1.4.2-1.8.5-.6.5-1.2,1.3-1.6,2.4l-7.9,19.2h-1l-8-18.8c-.3-.8-.7-1.5-1-1.8-.3-.4-.8-.7-1.2-1-.3,0-.8-.2-1.7-.4v-.9h0Z"/>
    <path d="M1951.7,1121.4c-.9,0-1.8.3-2.6.8-.9.5-1.6,1.4-2.1,2.7-.6,1.3-.8,2.9-.8,4.9,0,3.2.6,6.1,1.9,8.4,1.3,2.4,3,3.6,5.2,3.6s2.8-.7,3.9-2c1-1.3,1.5-3.5,1.5-6.7s-.9-7.1-2.6-9.4c-1.2-1.6-2.6-2.3-4.4-2.3ZM1952.4,1119.8c3.4,0,6.1,1.3,8.2,3.8,1.7,2.2,2.6,4.8,2.6,7.6s-.5,4.1-1.4,6.1c-1,2.1-2.2,3.6-4,4.6-1.7,1-3.5,1.6-5.6,1.6-3.4,0-6-1.3-8-4-1.7-2.2-2.5-4.8-2.5-7.6s.5-4.1,1.5-6.1,2.3-3.5,4-4.5c1.6-1,3.4-1.4,5.3-1.4h0Z"/>
    <path d="M1974.2,1108.1v29.6c0,1.4,0,2.3.3,2.8.2.5.5.8.9,1s1.2.3,2.3.3v.9h-10.9v-.9c1,0,1.7,0,2.1-.3.3-.2.7-.6.8-1.1.2-.5.3-1.4.3-2.8v-20.3c0-2.5,0-4-.2-4.7,0-.6-.3-1-.6-1.2s-.5-.3-.9-.3-.9.2-1.6.4l-.4-.9,6.6-2.7h1.1l.2.2Z"/>
    <path d="M1986.9,1113.1v7.3h5.2v1.7h-5.2v14.5c0,1.5.2,2.5.6,3s.9.8,1.6.8,1.1-.2,1.6-.5.8-.8,1.2-1.5h.9c-.6,1.6-1.4,2.8-2.4,3.6-1,.8-2.1,1.2-3.2,1.2s-1.6-.2-2.2-.6c-.7-.4-1.2-1-1.6-1.8-.3-.8-.5-2-.5-3.6v-15.1h-3.5v-.8c.9-.3,1.8-1,2.8-1.8.9-.8,1.8-1.8,2.5-3,.3-.6.8-1.8,1.5-3.4h.8-.1Z"/>
    <path d="M2008.7,1119.8v7.6h-.8c-.6-2.4-1.4-4-2.3-4.9-1-.9-2.2-1.3-3.7-1.3s-2.1.3-2.8.9c-.7.6-1.1,1.3-1.1,2s.2,1.8.8,2.3c.5.7,1.5,1.4,3.1,2.2l3.5,1.7c3.3,1.7,5,3.8,5,6.4s-.8,3.7-2.3,4.9c-1.5,1.2-3.2,1.8-5.2,1.8s-2.9-.2-4.7-.7c-.6-.2-1-.2-1.3-.2s-.7.2-.8.6h-.8v-8h.8c.4,2.3,1.3,4.1,2.6,5.2,1.3,1.2,2.8,1.7,4.3,1.7s2-.3,2.7-1,1.1-1.4,1.1-2.4-.4-2-1.2-2.8c-.8-.8-2.4-1.7-4.8-2.9-2.3-1.2-3.9-2.2-4.6-3.2-.8-.9-1.1-2.1-1.1-3.5s.6-3.4,1.9-4.6c1.2-1.2,2.9-1.8,4.9-1.8s1.9.2,3.2.5c.8.2,1.3.3,1.7.3s.4,0,.6-.2c0,0,.3-.3.5-.7h.8Z"/>
    <path d="M2013.3,1109.1v-1c2.5,1.2,4.6,2.7,6.2,4.3,2.3,2.4,4.1,5.1,5.4,8.3,1.2,3.2,1.9,6.5,1.9,10,0,5.1-1.2,9.7-3.8,13.8-2.5,4.1-5.7,7.1-9.7,8.9v-.9c2-1.2,3.7-2.7,4.9-4.6,1.3-1.9,2.2-4.3,2.9-7.2.6-2.9.9-6,.9-9.2s-.3-6.6-.8-9.5c-.4-2.2-.9-4-1.6-5.3-.6-1.4-1.4-2.7-2.4-4-1-1.2-2.3-2.4-4-3.6h0Z"/>
    <g class="st9">
      <text class="st11" transform="translate(248.2 1270.8)">
        <tspan x="0" y="0">Measurement (Ground</tspan>
      </text>
      <text class="st11" transform="translate(793 1270.8)">
        <tspan x="0" y="0"></tspan>
      </text>
      <text class="st11" transform="translate(807 1270.8)">
        <tspan x="0" y="0">T</tspan>
      </text>
      <text class="st11" transform="translate(841.5 1270.8)">
        <tspan x="0" y="0">ruth)</tspan>
      </text>
      <text class="st11" transform="translate(1135.7 1270.6)">
        <tspan x="0" y="0">[</tspan>
      </text>
      <text class="st8" transform="translate(1226.6 1270.6)">
        <tspan x="0" y="0">V</tspan>
      </text>
      <text class="st11" transform="translate(1262.3 1270.6)">
        <tspan x="0" y="0">olt</tspan>
      </text>
      <text class="st10" transform="translate(1340.5 1270.6)">
        <tspan x="0" y="0">/</tspan>
      </text>
      <text class="st11" transform="translate(1425.9 1270.6)">
        <tspan x="0" y="0">Angle ] Prediction (Regression)</tspan>
      </text>
    </g>
  </g>
  <g class="points blue">
    <circle cx="1193.4" cy="85.3"></circle>
    <circle cx="1061.8" cy="81.1"></circle>
    <circle cx="944.1" cy="76.9"></circle>
    <circle cx="835.6" cy="72.6"></circle>
    <circle cx="731.5" cy="68.4"></circle>
    <circle cx="627.1" cy="64.4"></circle>
    <circle cx="517.7" cy="60.6"></circle>
    <circle cx="398.7" cy="57.2"></circle>
    <circle cx="265.2" cy="54.2"></circle>
    <circle cx="260.5" cy="185.7"></circle>
    <circle cx="393.4" cy="188.3"></circle>
    <circle cx="512.0" cy="191.2"></circle>
    <circle cx="621.0" cy="194.3"></circle>
    <circle cx="725.1" cy="197.6"></circle>
    <circle cx="828.9" cy="200.9"></circle>
    <circle cx="937.2" cy="204.2"></circle>
    <circle cx="1054.6" cy="207.3"></circle>
    <circle cx="1185.8" cy="210.2"></circle>
    <circle cx="1180.4" cy="322.3"></circle>
    <circle cx="1049.5" cy="320.8"></circle>
    <circle cx="932.3" cy="319.0"></circle>
    <circle cx="824.3" cy="316.9"></circle>
    <circle cx="720.7" cy="314.6"></circle>
    <circle cx="616.9" cy="312.2"></circle>
    <circle cx="508.3" cy="309.8"></circle>
    <circle cx="390.1" cy="307.5"></circle>
    <circle cx="257.7" cy="305.4"></circle>
    <circle cx="256.8" cy="417.4"></circle>
    <circle cx="388.7" cy="418.9"></circle>
    <circle cx="506.5" cy="420.5"></circle>
    <circle cx="614.8" cy="422.0"></circle>
    <circle cx="718.4" cy="423.5"></circle>
    <circle cx="821.8" cy="424.7"></circle>
    <circle cx="929.6" cy="425.6"></circle>
    <circle cx="1046.6" cy="426.1"></circle>
    <circle cx="1177.2" cy="426.2"></circle>
    <circle cx="1176.3" cy="526.1"></circle>
    <circle cx="1045.8" cy="527.5"></circle>
    <circle cx="929.0" cy="528.3"></circle>
    <circle cx="821.3" cy="528.6"></circle>
    <circle cx="718.1" cy="528.5"></circle>
    <circle cx="614.8" cy="528.0"></circle>
    <circle cx="506.7" cy="527.3"></circle>
    <circle cx="389.2" cy="526.5"></circle>
    <circle cx="257.8" cy="525.6"></circle>
    <circle cx="260.7" cy="633.9"></circle>
    <circle cx="391.7" cy="634.2"></circle>
    <circle cx="508.9" cy="634.3"></circle>
    <circle cx="616.7" cy="634.2"></circle>
    <circle cx="719.9" cy="633.8"></circle>
    <circle cx="823.0" cy="632.9"></circle>
    <circle cx="930.6" cy="631.4"></circle>
    <circle cx="1047.3" cy="629.3"></circle>
    <circle cx="1177.6" cy="626.5"></circle>
    <circle cx="1181.2" cy="731.7"></circle>
    <circle cx="1051.0" cy="735.9"></circle>
    <circle cx="934.4" cy="739.2"></circle>
    <circle cx="826.9" cy="741.7"></circle>
    <circle cx="723.9" cy="743.5"></circle>
    <circle cx="620.8" cy="744.8"></circle>
    <circle cx="513.1" cy="745.6"></circle>
    <circle cx="396.2" cy="746.1"></circle>
    <circle cx="265.5" cy="746.2"></circle>
    <circle cx="272.4" cy="866.6"></circle>
    <circle cx="402.7" cy="866.1"></circle>
    <circle cx="519.4" cy="865.2"></circle>
    <circle cx="626.9" cy="863.8"></circle>
    <circle cx="729.9" cy="861.9"></circle>
    <circle cx="832.9" cy="859.2"></circle>
    <circle cx="940.3" cy="855.8"></circle>
    <circle cx="1056.9" cy="851.5"></circle>
    <circle cx="1187.0" cy="846.3"></circle>
    <circle cx="1195.2" cy="974.5"></circle>
    <circle cx="1065.1" cy="980.6"></circle>
    <circle cx="948.5" cy="985.7"></circle>
    <circle cx="841.0" cy="989.8"></circle>
    <circle cx="738.1" cy="993.0"></circle>
    <circle cx="635.1" cy="995.4"></circle>
    <circle cx="527.7" cy="997.1"></circle>
    <circle cx="411.2" cy="998.2"></circle>
    <circle cx="281.2" cy="998.8"></circle>
    <circle cx="2367.5" cy="55.4"></circle>
    <circle cx="2240.9" cy="63.2"></circle>
    <circle cx="2127.5" cy="70.8"></circle>
    <circle cx="2022.7" cy="78.2"></circle>
    <circle cx="1922.0" cy="85.5"></circle>
    <circle cx="1820.8" cy="93.0"></circle>
    <circle cx="1714.5" cy="100.8"></circle>
    <circle cx="1598.6" cy="108.8"></circle>
    <circle cx="1468.5" cy="117.4"></circle>
    <circle cx="1475.0" cy="231.5"></circle>
    <circle cx="1604.8" cy="225.4"></circle>
    <circle cx="1720.5" cy="219.7"></circle>
    <circle cx="1826.5" cy="214.3"></circle>
    <circle cx="1927.5" cy="209.0"></circle>
    <circle cx="2028.0" cy="203.7"></circle>
    <circle cx="2132.5" cy="198.3"></circle>
    <circle cx="2245.5" cy="192.8"></circle>
    <circle cx="2371.6" cy="186.8"></circle>
    <circle cx="2373.9" cy="305.7"></circle>
    <circle cx="2248.3" cy="309.9"></circle>
    <circle cx="2135.7" cy="313.7"></circle>
    <circle cx="2031.5" cy="317.2"></circle>
    <circle cx="1931.3" cy="320.5"></circle>
    <circle cx="1830.6" cy="323.7"></circle>
    <circle cx="1724.7" cy="327.0"></circle>
    <circle cx="1609.3" cy="330.5"></circle>
    <circle cx="1479.8" cy="334.3"></circle>
    <circle cx="1482.7" cy="429.5"></circle>
    <circle cx="1611.9" cy="427.9"></circle>
    <circle cx="1727.1" cy="426.6"></circle>
    <circle cx="1832.8" cy="425.4"></circle>
    <circle cx="1933.3" cy="424.1"></circle>
    <circle cx="2033.3" cy="422.7"></circle>
    <circle cx="2137.2" cy="421.1"></circle>
    <circle cx="2249.4" cy="419.0"></circle>
    <circle cx="2374.6" cy="416.4"></circle>
    <circle cx="2373.5" cy="523.2"></circle>
    <circle cx="2248.8" cy="524.2"></circle>
    <circle cx="2136.9" cy="524.6"></circle>
    <circle cx="2033.3" cy="524.5"></circle>
    <circle cx="1933.5" cy="524.0"></circle>
    <circle cx="1833.2" cy="523.3"></circle>
    <circle cx="1727.7" cy="522.4"></circle>
    <circle cx="1612.7" cy="521.6"></circle>
    <circle cx="1483.7" cy="521.0"></circle>
    <circle cx="1482.9" cy="612.7"></circle>
    <circle cx="1611.7" cy="615.6"></circle>
    <circle cx="1726.4" cy="618.5"></circle>
    <circle cx="1831.7" cy="621.4"></circle>
    <circle cx="1931.9" cy="624.1"></circle>
    <circle cx="2031.4" cy="626.5"></circle>
    <circle cx="2134.7" cy="628.5"></circle>
    <circle cx="2246.3" cy="629.8"></circle>
    <circle cx="2370.5" cy="630.5"></circle>
    <circle cx="2365.7" cy="742.6"></circle>
    <circle cx="2241.9" cy="740.1"></circle>
    <circle cx="2130.6" cy="736.9"></circle>
    <circle cx="2027.6" cy="733.1"></circle>
    <circle cx="1928.3" cy="728.7"></circle>
    <circle cx="1828.3" cy="723.9"></circle>
    <circle cx="1723.2" cy="718.8"></circle>
    <circle cx="1608.6" cy="713.6"></circle>
    <circle cx="1480.1" cy="708.4"></circle>
    <circle cx="1475.4" cy="812.0"></circle>
    <circle cx="1603.6" cy="819.6"></circle>
    <circle cx="1718.0" cy="827.2"></circle>
    <circle cx="1822.9" cy="834.6"></circle>
    <circle cx="1922.7" cy="841.6"></circle>
    <circle cx="2021.8" cy="848.2"></circle>
    <circle cx="2124.6" cy="854.1"></circle>
    <circle cx="2235.5" cy="859.3"></circle>
    <circle cx="2358.9" cy="863.7"></circle>
    <circle cx="2350.2" cy="998.2"></circle>
    <circle cx="2227.2" cy="991.7"></circle>
    <circle cx="2116.7" cy="984.3"></circle>
    <circle cx="2014.1" cy="976.1"></circle>
    <circle cx="1915.2" cy="967.2"></circle>
    <circle cx="1815.5" cy="957.7"></circle>
    <circle cx="1710.8" cy="947.8"></circle>
    <circle cx="1596.6" cy="937.6"></circle>
    <circle cx="1468.6" cy="927.3"></circle>
    <circle cx="1191.6" cy="1249.8"></circle>
  </g>
  <g class="points red">
    <circle cx="1162.9" cy="1484.5"></circle>
    <circle cx="1051.0" cy="1485.4"></circle>
    <circle cx="934.5" cy="1485.4"></circle>
    <circle cx="821.5" cy="1485.1"></circle>
    <circle cx="705.3" cy="1484.9"></circle>
    <circle cx="589.5" cy="1484.7"></circle>
    <circle cx="476.5" cy="1484.5"></circle>
    <circle cx="361.0" cy="1484.7"></circle>
    <circle cx="245.0" cy="1485.2"></circle>
    <circle cx="245.5" cy="1578.8"></circle>
    <circle cx="358.7" cy="1578.9"></circle>
    <circle cx="474.3" cy="1579.4"></circle>
    <circle cx="586.5" cy="1580.3"></circle>
    <circle cx="702.3" cy="1581.2"></circle>
    <circle cx="818.2" cy="1582.3"></circle>
    <circle cx="931.3" cy="1583.4"></circle>
    <circle cx="1047.1" cy="1584.7"></circle>
    <circle cx="1162.3" cy="1586.0"></circle>
    <circle cx="1161.0" cy="1685.9"></circle>
    <circle cx="1047.4" cy="1685.6"></circle>
    <circle cx="932.4" cy="1685.8"></circle>
    <circle cx="819.4" cy="1685.1"></circle>
    <circle cx="703.9" cy="1684.2"></circle>
    <circle cx="588.6" cy="1682.9"></circle>
    <circle cx="476.4" cy="1681.6"></circle>
    <circle cx="360.9" cy="1680.2"></circle>
    <circle cx="245.3" cy="1678.5"></circle>
    <circle cx="244.4" cy="1770.9"></circle>
    <circle cx="357.3" cy="1772.3"></circle>
    <circle cx="472.9" cy="1773.9"></circle>
    <circle cx="584.2" cy="1775.6"></circle>
    <circle cx="699.6" cy="1777.5"></circle>
    <circle cx="815.0" cy="1779.4"></circle>
    <circle cx="927.6" cy="1781.4"></circle>
    <circle cx="1042.9" cy="1783.7"></circle>
    <circle cx="1157.8" cy="1786.5"></circle>
    <circle cx="1156.3" cy="1888.9"></circle>
    <circle cx="1043.5" cy="1887.7"></circle>
    <circle cx="928.7" cy="1886.2"></circle>
    <circle cx="816.3" cy="1884.6"></circle>
    <circle cx="701.1" cy="1882.9"></circle>
    <circle cx="585.8" cy="1880.9"></circle>
    <circle cx="474.7" cy="1878.7"></circle>
    <circle cx="359.2" cy="1876.2"></circle>
    <circle cx="244.0" cy="1873.9"></circle>
    <circle cx="243.3" cy="1967.8"></circle>
    <circle cx="355.9" cy="1970.0"></circle>
    <circle cx="471.3" cy="1972.9"></circle>
    <circle cx="582.2" cy="1975.3"></circle>
    <circle cx="696.9" cy="1977.7"></circle>
    <circle cx="812.5" cy="1979.8"></circle>
    <circle cx="924.1" cy="1982.3"></circle>
    <circle cx="1039.3" cy="1985.3"></circle>
    <circle cx="1153.9" cy="1989.2"></circle>
    <circle cx="1152.9" cy="2087.8"></circle>
    <circle cx="1040.3" cy="2085.7"></circle>
    <circle cx="925.6" cy="2083.1"></circle>
    <circle cx="814.2" cy="2080.2"></circle>
    <circle cx="698.9" cy="2077.4"></circle>
    <circle cx="584.3" cy="2074.5"></circle>
    <circle cx="473.5" cy="2072.2"></circle>
    <circle cx="358.4" cy="2069.6"></circle>
    <circle cx="243.5" cy="2066.5"></circle>
    <circle cx="242.7" cy="2160.8"></circle>
    <circle cx="355.1" cy="2163.3"></circle>
    <circle cx="469.8" cy="2166.3"></circle>
    <circle cx="580.3" cy="2169.7"></circle>
    <circle cx="694.8" cy="2173.3"></circle>
    <circle cx="810.3" cy="2176.7"></circle>
    <circle cx="921.3" cy="2179.5"></circle>
    <circle cx="1035.7" cy="2183.4"></circle>
    <circle cx="1150.1" cy="2188.6"></circle>
    <circle cx="1147.3" cy="2290.5"></circle>
    <circle cx="1035.5" cy="2287.2"></circle>
    <circle cx="921.0" cy="2283.4"></circle>
    <circle cx="810.3" cy="2279.4"></circle>
    <circle cx="695.4" cy="2275.3"></circle>
    <circle cx="580.9" cy="2271.6"></circle>
    <circle cx="470.4" cy="2267.9"></circle>
    <circle cx="356.3" cy="2263.3"></circle>
    <circle cx="241.7" cy="2258.3"></circle>
    <circle cx="2399.8" cy="1487.2"></circle>
    <circle cx="2286.6" cy="1486.3"></circle>
    <circle cx="2171.5" cy="1485.4"></circle>
    <circle cx="2058.2" cy="1485.2"></circle>
    <circle cx="1940.8" cy="1484.9"></circle>
    <circle cx="1825.8" cy="1484.7"></circle>
    <circle cx="1713.4" cy="1484.6"></circle>
    <circle cx="1596.9" cy="1483.9"></circle>
    <circle cx="1481.5" cy="1482.0"></circle>
    <circle cx="1480.2" cy="1579.6"></circle>
    <circle cx="1593.5" cy="1580.4"></circle>
    <circle cx="1709.4" cy="1580.9"></circle>
    <circle cx="1821.2" cy="1581.0"></circle>
    <circle cx="1936.4" cy="1581.2"></circle>
    <circle cx="2053.1" cy="1581.6"></circle>
    <circle cx="2166.5" cy="1582.1"></circle>
    <circle cx="2281.4" cy="1583.1"></circle>
    <circle cx="2397.0" cy="1585.1"></circle>
    <circle cx="2396.2" cy="1684.9"></circle>
    <circle cx="2282.6" cy="1684.4"></circle>
    <circle cx="2168.0" cy="1684.8"></circle>
    <circle cx="2055.0" cy="1684.6"></circle>
    <circle cx="1939.0" cy="1684.2"></circle>
    <circle cx="1823.8" cy="1683.4"></circle>
    <circle cx="1712.1" cy="1682.7"></circle>
    <circle cx="1596.2" cy="1681.4"></circle>
    <circle cx="1480.5" cy="1679.4"></circle>
    <circle cx="1480.4" cy="1771.4"></circle>
    <circle cx="1593.8" cy="1772.8"></circle>
    <circle cx="1709.3" cy="1774.2"></circle>
    <circle cx="1820.2" cy="1775.6"></circle>
    <circle cx="1935.5" cy="1777.0"></circle>
    <circle cx="2051.5" cy="1778.7"></circle>
    <circle cx="2164.2" cy="1780.4"></circle>
    <circle cx="2279.1" cy="1782.8"></circle>
    <circle cx="2393.8" cy="1785.8"></circle>
    <circle cx="2392.7" cy="1889.1"></circle>
    <circle cx="2280.0" cy="1888.2"></circle>
    <circle cx="2165.6" cy="1886.7"></circle>
    <circle cx="2053.1" cy="1885.1"></circle>
    <circle cx="1937.4" cy="1883.3"></circle>
    <circle cx="1822.0" cy="1881.3"></circle>
    <circle cx="1711.4" cy="1879.2"></circle>
    <circle cx="1595.9" cy="1876.8"></circle>
    <circle cx="1480.4" cy="1874.6"></circle>
    <circle cx="1479.6" cy="1967.6"></circle>
    <circle cx="1592.5" cy="1969.4"></circle>
    <circle cx="1707.8" cy="1972.3"></circle>
    <circle cx="1818.1" cy="1975.0"></circle>
    <circle cx="1932.8" cy="1977.7"></circle>
    <circle cx="2048.8" cy="1980.1"></circle>
    <circle cx="2160.6" cy="1983.0"></circle>
    <circle cx="2275.5" cy="1986.2"></circle>
    <circle cx="2390.0" cy="1990.1"></circle>
    <circle cx="2388.2" cy="2088.4"></circle>
    <circle cx="2275.4" cy="2086.8"></circle>
    <circle cx="2161.3" cy="2084.1"></circle>
    <circle cx="2049.8" cy="2080.5"></circle>
    <circle cx="1933.6" cy="2077.2"></circle>
    <circle cx="1819.3" cy="2073.8"></circle>
    <circle cx="1709.1" cy="2071.1"></circle>
    <circle cx="1593.7" cy="2068.5"></circle>
    <circle cx="1478.8" cy="2065.9"></circle>
    <circle cx="1477.7" cy="2159.4"></circle>
    <circle cx="1589.8" cy="2161.1"></circle>
    <circle cx="1705.1" cy="2164.2"></circle>
    <circle cx="1815.1" cy="2168.3"></circle>
    <circle cx="1928.8" cy="2172.6"></circle>
    <circle cx="2045.3" cy="2176.8"></circle>
    <circle cx="2156.7" cy="2180.5"></circle>
    <circle cx="2269.8" cy="2184.7"></circle>
    <circle cx="2385.1" cy="2189.2"></circle>
    <circle cx="2383.9" cy="2287.6"></circle>
    <circle cx="2270.8" cy="2286.6"></circle>
    <circle cx="2158.4" cy="2283.8"></circle>
    <circle cx="2047.2" cy="2279.9"></circle>
    <circle cx="1930.8" cy="2275.9"></circle>
    <circle cx="1817.4" cy="2272.2"></circle>
    <circle cx="1707.4" cy="2268.4"></circle>
    <circle cx="1591.8" cy="2264.3"></circle>
    <circle cx="1478.1" cy="2261.0"></circle>
    <circle cx="1393.2" cy="1249.6"></circle>
  </g>
  <g class="points mea">
    <circle cx="1164.3" cy="1485.2"></circle>
    <circle cx="1049.5" cy="1485.0"></circle>
    <circle cx="934.7" cy="1484.8"></circle>
    <circle cx="819.8" cy="1484.6"></circle>
    <circle cx="705.0" cy="1484.4"></circle>
    <circle cx="590.2" cy="1484.2"></circle>
    <circle cx="475.4" cy="1483.9"></circle>
    <circle cx="360.5" cy="1483.7"></circle>
    <circle cx="245.7" cy="1483.5"></circle>
    <circle cx="245.3" cy="1580.4"></circle>
    <circle cx="359.9" cy="1581.1"></circle>
    <circle cx="474.5" cy="1581.8"></circle>
    <circle cx="589.2" cy="1582.5"></circle>
    <circle cx="703.8" cy="1583.1"></circle>
    <circle cx="818.4" cy="1583.8"></circle>
    <circle cx="933.0" cy="1584.5"></circle>
    <circle cx="1047.7" cy="1585.1"></circle>
    <circle cx="1162.3" cy="1585.8"></circle>
    <circle cx="1160.2" cy="1686.4"></circle>
    <circle cx="1045.8" cy="1685.3"></circle>
    <circle cx="931.4" cy="1684.1"></circle>
    <circle cx="817.0" cy="1683.0"></circle>
    <circle cx="702.6" cy="1681.9"></circle>
    <circle cx="588.1" cy="1680.7"></circle>
    <circle cx="473.7" cy="1679.6"></circle>
    <circle cx="359.3" cy="1678.5"></circle>
    <circle cx="244.9" cy="1677.4"></circle>
    <circle cx="244.5" cy="1774.3"></circle>
    <circle cx="358.7" cy="1775.9"></circle>
    <circle cx="472.9" cy="1777.5"></circle>
    <circle cx="587.1" cy="1779.0"></circle>
    <circle cx="701.3" cy="1780.6"></circle>
    <circle cx="815.6" cy="1782.2"></circle>
    <circle cx="929.8" cy="1783.8"></circle>
    <circle cx="1044.0" cy="1785.4"></circle>
    <circle cx="1158.2" cy="1787.0"></circle>
    <circle cx="1156.2" cy="1887.6"></circle>
    <circle cx="1042.2" cy="1885.5"></circle>
    <circle cx="928.1" cy="1883.5"></circle>
    <circle cx="814.1" cy="1881.4"></circle>
    <circle cx="700.1" cy="1879.4"></circle>
    <circle cx="586.1" cy="1877.3"></circle>
    <circle cx="472.1" cy="1875.3"></circle>
    <circle cx="358.1" cy="1873.3"></circle>
    <circle cx="244.1" cy="1871.2"></circle>
    <circle cx="243.7" cy="1968.1"></circle>
    <circle cx="357.5" cy="1970.6"></circle>
    <circle cx="471.3" cy="1973.1"></circle>
    <circle cx="585.1" cy="1975.6"></circle>
    <circle cx="698.9" cy="1978.1"></circle>
    <circle cx="812.7" cy="1980.6"></circle>
    <circle cx="926.5" cy="1983.1"></circle>
    <circle cx="1040.3" cy="1985.6"></circle>
    <circle cx="1154.1" cy="1988.1"></circle>
    <circle cx="1152.1" cy="2088.7"></circle>
    <circle cx="1038.5" cy="2085.8"></circle>
    <circle cx="924.9" cy="2082.8"></circle>
    <circle cx="811.3" cy="2079.9"></circle>
    <circle cx="697.7" cy="2076.9"></circle>
    <circle cx="584.1" cy="2073.9"></circle>
    <circle cx="470.5" cy="2071.0"></circle>
    <circle cx="356.9" cy="2068.0"></circle>
    <circle cx="243.3" cy="2065.0"></circle>
    <circle cx="242.9" cy="2162.0"></circle>
    <circle cx="356.3" cy="2165.4"></circle>
    <circle cx="469.7" cy="2168.8"></circle>
    <circle cx="583.1" cy="2172.2"></circle>
    <circle cx="696.5" cy="2175.6"></circle>
    <circle cx="809.9" cy="2179.1"></circle>
    <circle cx="923.3" cy="2182.5"></circle>
    <circle cx="1036.7" cy="2185.9"></circle>
    <circle cx="1150.1" cy="2189.3"></circle>
    <circle cx="1148.0" cy="2289.9"></circle>
    <circle cx="1034.8" cy="2286.0"></circle>
    <circle cx="921.6" cy="2282.2"></circle>
    <circle cx="808.4" cy="2278.3"></circle>
    <circle cx="695.2" cy="2274.4"></circle>
    <circle cx="582.0" cy="2270.5"></circle>
    <circle cx="468.8" cy="2266.6"></circle>
    <circle cx="355.6" cy="2262.8"></circle>
    <circle cx="242.4" cy="2258.9"></circle>
    <circle cx="2400.1" cy="1485.2"></circle>
    <circle cx="2285.2" cy="1485.0"></circle>
    <circle cx="2170.4" cy="1484.8"></circle>
    <circle cx="2055.6" cy="1484.6"></circle>
    <circle cx="1940.8" cy="1484.4"></circle>
    <circle cx="1825.9" cy="1484.2"></circle>
    <circle cx="1711.1" cy="1483.9"></circle>
    <circle cx="1596.3" cy="1483.7"></circle>
    <circle cx="1481.5" cy="1483.5"></circle>
    <circle cx="1481.1" cy="1580.4"></circle>
    <circle cx="1595.7" cy="1581.1"></circle>
    <circle cx="1710.3" cy="1581.8"></circle>
    <circle cx="1824.9" cy="1582.5"></circle>
    <circle cx="1939.5" cy="1583.1"></circle>
    <circle cx="2054.2" cy="1583.8"></circle>
    <circle cx="2168.8" cy="1584.5"></circle>
    <circle cx="2283.4" cy="1585.1"></circle>
    <circle cx="2398.0" cy="1585.8"></circle>
    <circle cx="2396.0" cy="1686.4"></circle>
    <circle cx="2281.6" cy="1685.3"></circle>
    <circle cx="2167.2" cy="1684.1"></circle>
    <circle cx="2052.7" cy="1683.0"></circle>
    <circle cx="1938.3" cy="1681.9"></circle>
    <circle cx="1823.9" cy="1680.7"></circle>
    <circle cx="1709.5" cy="1679.6"></circle>
    <circle cx="1595.1" cy="1678.5"></circle>
    <circle cx="1480.6" cy="1677.4"></circle>
    <circle cx="1480.2" cy="1774.3"></circle>
    <circle cx="1594.5" cy="1775.9"></circle>
    <circle cx="1708.7" cy="1777.5"></circle>
    <circle cx="1822.9" cy="1779.0"></circle>
    <circle cx="1937.1" cy="1780.6"></circle>
    <circle cx="2051.3" cy="1782.2"></circle>
    <circle cx="2165.5" cy="1783.8"></circle>
    <circle cx="2279.8" cy="1785.4"></circle>
    <circle cx="2394.0" cy="1787.0"></circle>
    <circle cx="2391.9" cy="1887.6"></circle>
    <circle cx="2277.9" cy="1885.5"></circle>
    <circle cx="2163.9" cy="1883.5"></circle>
    <circle cx="2049.9" cy="1881.4"></circle>
    <circle cx="1935.9" cy="1879.4"></circle>
    <circle cx="1821.9" cy="1877.3"></circle>
    <circle cx="1707.9" cy="1875.3"></circle>
    <circle cx="1593.8" cy="1873.3"></circle>
    <circle cx="1479.8" cy="1871.2"></circle>
    <circle cx="1479.4" cy="1968.1"></circle>
    <circle cx="1593.2" cy="1970.6"></circle>
    <circle cx="1707.0" cy="1973.1"></circle>
    <circle cx="1820.9" cy="1975.6"></circle>
    <circle cx="1934.7" cy="1978.1"></circle>
    <circle cx="2048.5" cy="1980.6"></circle>
    <circle cx="2162.3" cy="1983.1"></circle>
    <circle cx="2276.1" cy="1985.6"></circle>
    <circle cx="2389.9" cy="1988.1"></circle>
    <circle cx="2387.9" cy="2088.7"></circle>
    <circle cx="2274.3" cy="2085.8"></circle>
    <circle cx="2160.6" cy="2082.8"></circle>
    <circle cx="2047.0" cy="2079.9"></circle>
    <circle cx="1933.4" cy="2076.9"></circle>
    <circle cx="1819.8" cy="2073.9"></circle>
    <circle cx="1706.2" cy="2071.0"></circle>
    <circle cx="1592.6" cy="2068.0"></circle>
    <circle cx="1479.0" cy="2065.0"></circle>
    <circle cx="1478.6" cy="2162.0"></circle>
    <circle cx="1592.0" cy="2165.4"></circle>
    <circle cx="1705.4" cy="2168.8"></circle>
    <circle cx="1818.8" cy="2172.2"></circle>
    <circle cx="1932.2" cy="2175.6"></circle>
    <circle cx="2045.6" cy="2179.1"></circle>
    <circle cx="2159.0" cy="2182.5"></circle>
    <circle cx="2272.4" cy="2185.9"></circle>
    <circle cx="2385.8" cy="2189.3"></circle>
    <circle cx="2383.8" cy="2289.9"></circle>
    <circle cx="2270.6" cy="2286.0"></circle>
    <circle cx="2157.4" cy="2282.2"></circle>
    <circle cx="2044.2" cy="2278.3"></circle>
    <circle cx="1931.0" cy="2274.4"></circle>
    <circle cx="1817.8" cy="2270.5"></circle>
    <circle cx="1704.6" cy="2266.6"></circle>
    <circle cx="1591.4" cy="2262.8"></circle>
    <circle cx="1478.2" cy="2258.9"></circle>
    <circle cx="1194.6" cy="87.1"></circle>
    <circle cx="1062.8" cy="83.2"></circle>
    <circle cx="944.1" cy="78.4"></circle>
    <circle cx="837.1" cy="73.7"></circle>
    <circle cx="730.7" cy="69.1"></circle>
    <circle cx="624.9" cy="64.8"></circle>
    <circle cx="518.3" cy="60.5"></circle>
    <circle cx="401.2" cy="56.4"></circle>
    <circle cx="266.2" cy="52.6"></circle>
    <circle cx="260.1" cy="185.3"></circle>
    <circle cx="393.1" cy="187.5"></circle>
    <circle cx="510.8" cy="190.2"></circle>
    <circle cx="617.0" cy="193.2"></circle>
    <circle cx="722.9" cy="196.2"></circle>
    <circle cx="828.9" cy="199.4"></circle>
    <circle cx="935.4" cy="202.6"></circle>
    <circle cx="1052.5" cy="206.1"></circle>
    <circle cx="1186.1" cy="209.8"></circle>
    <circle cx="1180.9" cy="319.3"></circle>
    <circle cx="1049.8" cy="319.0"></circle>
    <circle cx="933.8" cy="319.1"></circle>
    <circle cx="827.4" cy="318.1"></circle>
    <circle cx="721.9" cy="316.9"></circle>
    <circle cx="616.4" cy="315.0"></circle>
    <circle cx="510.3" cy="313.1"></circle>
    <circle cx="392.6" cy="311.0"></circle>
    <circle cx="256.7" cy="308.5"></circle>
    <circle cx="255.0" cy="414.5"></circle>
    <circle cx="388.3" cy="415.5"></circle>
    <circle cx="506.4" cy="416.8"></circle>
    <circle cx="611.9" cy="418.1"></circle>
    <circle cx="717.5" cy="419.4"></circle>
    <circle cx="822.9" cy="420.6"></circle>
    <circle cx="928.7" cy="421.6"></circle>
    <circle cx="1044.5" cy="422.8"></circle>
    <circle cx="1176.0" cy="423.9"></circle>
    <circle cx="1175.8" cy="528.0"></circle>
    <circle cx="1046.5" cy="530.2"></circle>
    <circle cx="931.0" cy="531.3"></circle>
    <circle cx="825.3" cy="531.9"></circle>
    <circle cx="720.2" cy="532.1"></circle>
    <circle cx="614.7" cy="531.8"></circle>
    <circle cx="509.6" cy="531.1"></circle>
    <circle cx="391.9" cy="530.0"></circle>
    <circle cx="256.3" cy="528.9"></circle>
    <circle cx="258.9" cy="633.4"></circle>
    <circle cx="391.2" cy="633.4"></circle>
    <circle cx="509.0" cy="634.0"></circle>
    <circle cx="614.0" cy="634.1"></circle>
    <circle cx="718.9" cy="633.9"></circle>
    <circle cx="824.4" cy="632.9"></circle>
    <circle cx="929.4" cy="632.2"></circle>
    <circle cx="1045.3" cy="631.2"></circle>
    <circle cx="1176.6" cy="630.2"></circle>
    <circle cx="1181.6" cy="733.3"></circle>
    <circle cx="1051.6" cy="738.1"></circle>
    <circle cx="935.6" cy="741.0"></circle>
    <circle cx="830.5" cy="742.7"></circle>
    <circle cx="725.1" cy="744.1"></circle>
    <circle cx="620.2" cy="744.9"></circle>
    <circle cx="515.6" cy="745.9"></circle>
    <circle cx="398.8" cy="746.6"></circle>
    <circle cx="264.9" cy="746.6"></circle>
    <circle cx="271.7" cy="862.9"></circle>
    <circle cx="402.0" cy="861.1"></circle>
    <circle cx="518.2" cy="859.8"></circle>
    <circle cx="622.6" cy="859.0"></circle>
    <circle cx="727.5" cy="857.8"></circle>
    <circle cx="833.3" cy="855.6"></circle>
    <circle cx="938.1" cy="852.4"></circle>
    <circle cx="1054.2" cy="849.1"></circle>
    <circle cx="1187.3" cy="845.4"></circle>
    <circle cx="1197.2" cy="971.7"></circle>
    <circle cx="1065.4" cy="981.2"></circle>
    <circle cx="948.2" cy="987.6"></circle>
    <circle cx="843.0" cy="991.8"></circle>
    <circle cx="737.5" cy="995.2"></circle>
    <circle cx="632.7" cy="998.2"></circle>
    <circle cx="528.6" cy="1000.5"></circle>
    <circle cx="413.6" cy="1001.1"></circle>
    <circle cx="282.2" cy="1001.1"></circle>
    <circle cx="2365.5" cy="54.2"></circle>
    <circle cx="2241.0" cy="63.0"></circle>
    <circle cx="2129.3" cy="70.7"></circle>
    <circle cx="2026.4" cy="78.5"></circle>
    <circle cx="1922.6" cy="86.4"></circle>
    <circle cx="1820.5" cy="94.4"></circle>
    <circle cx="1716.9" cy="102.4"></circle>
    <circle cx="1600.5" cy="110.7"></circle>
    <circle cx="1465.6" cy="118.9"></circle>
    <circle cx="1473.3" cy="229.9"></circle>
    <circle cx="1604.5" cy="223.9"></circle>
    <circle cx="1719.9" cy="218.3"></circle>
    <circle cx="1822.8" cy="212.9"></circle>
    <circle cx="1925.1" cy="207.6"></circle>
    <circle cx="2028.3" cy="202.5"></circle>
    <circle cx="2131.3" cy="197.5"></circle>
    <circle cx="2243.0" cy="192.7"></circle>
    <circle cx="2370.7" cy="188.0"></circle>
    <circle cx="2375.2" cy="305.6"></circle>
    <circle cx="2248.9" cy="310.4"></circle>
    <circle cx="2137.2" cy="315.2"></circle>
    <circle cx="2034.2" cy="319.0"></circle>
    <circle cx="1931.6" cy="322.4"></circle>
    <circle cx="1829.4" cy="325.3"></circle>
    <circle cx="1727.0" cy="328.2"></circle>
    <circle cx="1612.4" cy="331.0"></circle>
    <circle cx="1479.8" cy="333.5"></circle>
    <circle cx="1483.1" cy="424.6"></circle>
    <circle cx="1612.5" cy="423.0"></circle>
    <circle cx="1726.7" cy="421.8"></circle>
    <circle cx="1828.5" cy="420.8"></circle>
    <circle cx="1930.8" cy="419.7"></circle>
    <circle cx="2033.3" cy="418.7"></circle>
    <circle cx="2136.0" cy="417.7"></circle>
    <circle cx="2248.0" cy="416.9"></circle>
    <circle cx="2375.4" cy="416.0"></circle>
    <circle cx="2375.3" cy="525.4"></circle>
    <circle cx="2250.0" cy="527.3"></circle>
    <circle cx="2138.3" cy="528.0"></circle>
    <circle cx="2035.8" cy="528.2"></circle>
    <circle cx="1933.5" cy="528.0"></circle>
    <circle cx="1831.2" cy="527.4"></circle>
    <circle cx="1729.9" cy="526.5"></circle>
    <circle cx="1616.0" cy="525.3"></circle>
    <circle cx="1484.7" cy="524.3"></circle>
    <circle cx="1483.3" cy="614.4"></circle>
    <circle cx="1612.1" cy="616.5"></circle>
    <circle cx="1726.1" cy="619.5"></circle>
    <circle cx="1827.3" cy="622.0"></circle>
    <circle cx="1929.0" cy="624.5"></circle>
    <circle cx="2031.6" cy="626.3"></circle>
    <circle cx="2133.2" cy="628.4"></circle>
    <circle cx="2244.8" cy="630.4"></circle>
    <circle cx="2371.5" cy="632.4"></circle>
    <circle cx="2366.8" cy="740.5"></circle>
    <circle cx="2242.6" cy="740.0"></circle>
    <circle cx="2131.9" cy="737.4"></circle>
    <circle cx="2030.5" cy="733.4"></circle>
    <circle cx="1927.9" cy="729.4"></circle>
    <circle cx="1826.6" cy="725.0"></circle>
    <circle cx="1725.4" cy="721.0"></circle>
    <circle cx="1611.3" cy="716.8"></circle>
    <circle cx="1479.9" cy="712.0"></circle>
    <circle cx="1473.7" cy="809.7"></circle>
    <circle cx="1603.4" cy="815.6"></circle>
    <circle cx="1718.2" cy="822.4"></circle>
    <circle cx="1819.3" cy="829.6"></circle>
    <circle cx="1920.2" cy="836.8"></circle>
    <circle cx="2023.0" cy="843.6"></circle>
    <circle cx="2123.9" cy="849.4"></circle>
    <circle cx="2232.9" cy="855.3"></circle>
    <circle cx="2358.2" cy="860.9"></circle>
    <circle cx="2348.5" cy="998.6"></circle>
    <circle cx="2226.4" cy="995.3"></circle>
    <circle cx="2118.6" cy="988.3"></circle>
    <circle cx="2018.1" cy="979.2"></circle>
    <circle cx="1915.5" cy="969.4"></circle>
    <circle cx="1814.9" cy="959.7"></circle>
    <circle cx="1713.6" cy="949.6"></circle>
    <circle cx="1598.3" cy="938.1"></circle>
    <circle cx="1465.7" cy="926.5"></circle>
    <circle cx="202.7" cy="1250.5"></circle>
  </g>
</svg>
