<?xml version="1.0" encoding="UTF-8"?>
<svg
  xmlns="http://www.w3.org/2000/svg"
  xmlns:xlink="http://www.w3.org/1999/xlink"
  version="1.1"
  viewBox="0 0 3187 1200"
>
  <!-- Generator: Adobe Illustrator 30.0.0, SVG Export Plug-In . SVG Version: 2.1.1 Build 123)  -->
  <defs>
    <style>
      html.dark svg {
        --white: currentColor;
      }

      .st0,
      .st1,
      .st2,
      .st5,
      .st6,
      .st7,
      .st8,
      .st9,
      .st10 {
        fill: none;
      }

      .st11 {
        fill: var(--white, white);
        stroke: currentColor;
        stroke-width: 6px;
      }

      .st12 {
        opacity: 0.5;
      }

      .st12,
      .st13,
      .st14 {
        fill: var(--white, white);
      }

      .st15 {
        fill: #f76055;
      }

      .st13 {
        font-family: Arial-Black, "Arial Black";
        font-size: 60px;
        font-weight: 800;
      }

      .st1 {
        stroke: var(--white, white);
        stroke-width: 2.5px;
      }

      .st18 {
        fill: #6baffb;
      }

      .st2 {
        stroke-dasharray: 12 12;
      }

      .st2,
      .st10 {
        stroke: currentColor;
      }

      .st8,
      .st9 {
        stroke: black;
        stroke-width: 6px;
        stroke-linecap: round;
        stroke-linejoin: round;
      }

      .st3,
      .st4 {
        stroke-width: 4px;
        stroke-linejoin: round;
        stroke-linecap: round;
        stroke: black;
        fill: var(--white, white);
      }

      .st2,
      .st10 {
        stroke-width: 6px;
      }

      .st19 {
        font-size: 53.3px;
      }

      .st19,
      .st20 {
        font-style: italic;
      }

      .st21 {
        fill: #84c481;
      }

      .st20 {
        font-size: 80px;
      }

      .st5 {
        stroke: #6baffb;
      }

      .st5,
      .st6,
      .st7 {
        stroke-width: 5px;
      }

      .st6 {
        stroke: #84c482;
      }

      .st7 {
        stroke: #f76055;
      }

      text {
        font-family: "Times New Roman", Times;
        font-size: 100px;
      }

      tspan,
      polygon {
        fill: currentColor;
      }

      tspan {
        letter-spacing: 0.1em;
      }
    </style>
    <clipPath id="extrinsic-calib-setup-round">
      <rect width="2561" height="2560" rx="400" />
    </clipPath>
  </defs>
  <image
    width="2561"
    height="2560"
    transform="scale(.44)"
    xlink:href="setup.webp"
    style="clip-path: url(#extrinsic-calib-setup-round)"
  />
  <g transform="translate(100 0)">
    <line class="st2" x1="1136.7" y1="156.8" x2="3087" y2="156.8" />
    <line class="st7" x1="2469.1" y1="295.4" x2="2337.8" y2="785.2" />
    <rect
      class="st0"
      x="2148.9"
      y="536.8"
      width="509.1"
      height="7"
      transform="translate(1259.5 2722) rotate(-75)"
    />
    <line class="st6" x1="2710.6" y1="360.1" x2="2579.3" y2="849.9" />
    <rect
      class="st0"
      x="2390.4"
      y="601.5"
      width="509.1"
      height="7"
      transform="translate(1376 3003.2) rotate(-75)"
    />
    <line class="st5" x1="2952" y1="424.8" x2="2820.8" y2="914.6" />
    <rect
      class="st0"
      x="2631.9"
      y="666.2"
      width="509.1"
      height="7"
      transform="translate(1492.5 3284.4) rotate(-75)"
    />
    <line class="st2" x1="2344.7" y1="786.6" x2="2573.2" y2="847.6" />
    <line class="st2" x1="2586.7" y1="851.2" x2="2814.1" y2="912.4" />
    <line class="st2" x1="2330" y1="164.6" x2="2337.8" y2="777.8" />
    <path class="st2" d="M2579.9,164.6v677.8" />
    <line class="st2" x1="2829.9" y1="164.6" x2="2821" y2="907.2" />
    <path
      class="st21"
      d="M2544.1,788.3l-1.8,6.6-.8,3-7.8,29-7.7,28.9,7.8,22.1-2.8,10.3-6.9-1.9c-1.7-.5-2.8-.7-3.6-.6-1.1,0-2.1.7-2.7,1.6-.5.6-.8,1.7-1.2,3.4l-22.7,84.8c-.5,1.7-.7,2.8-.6,3.6,0,1.1.7,2.1,1.6,2.7.6.5,1.7.8,3.4,1.2l84.8,22.7c1.7.5,2.8.7,3.6.6,1.1,0,2.1-.7,2.7-1.6.5-.6.8-1.7,1.2-3.4l22.7-84.8c.5-1.7.7-2.8.6-3.6,0-1.1-.7-2.1-1.6-2.7-.6-.5-1.7-.8-3.4-1.2l-6.9-1.9,2.8-10.3,17.8-15.2,7.7-28.9,7.8-29,.8-3,1.8-6.6-4.8-1.3-1.4,5.4c-25.5-14.2-57.8-22.9-86.9-23.3l1.4-5.4-4.8-1.3Z"
    />
    <path
      class="st8"
      d="M2544.1,788.3l-1.8,6.6-.8,3-7.8,29-7.7,28.9,7.8,22.1-2.8,10.3-6.9-1.9c-1.7-.5-2.8-.7-3.6-.6-1.1,0-2.1.7-2.7,1.6-.5.6-.8,1.7-1.2,3.4l-22.7,84.8c-.5,1.7-.7,2.8-.6,3.6,0,1.1.7,2.1,1.6,2.7.6.5,1.7.8,3.4,1.2l84.8,22.7c1.7.5,2.8.7,3.6.6,1.1,0,2.1-.7,2.7-1.6.5-.6.8-1.7,1.2-3.4l22.7-84.8c.5-1.7.7-2.8.6-3.6,0-1.1-.7-2.1-1.6-2.7-.6-.5-1.7-.8-3.4-1.2l-6.9-1.9,2.8-10.3,17.8-15.2,7.7-28.9,7.8-29,.8-3,1.8-6.6-4.8-1.3-1.4,5.4c-25.5-14.2-57.8-22.9-86.9-23.3l1.4-5.4-4.8-1.3Z"
    />
    <path
      class="st3"
      d="M2560.4,957l10.3,6.4c-1.6,2.9-3.5,5.3-5.7,6.9-2.2,1.7-4.6,2.7-7.3,3.2-2.7.4-5.9.1-9.6-.8-4.5-1.2-8-2.9-10.5-4.9s-4.4-5-5.5-8.9c-1.2-3.9-1.1-8.4.3-13.5,1.8-6.9,5.1-11.7,9.7-14.4,4.6-2.7,10.3-3.2,17-1.4,5.2,1.4,9.1,3.6,11.5,6.5,2.4,2.9,3.8,6.8,4.1,11.5l-12-.5c0-1.4-.2-2.4-.5-3.1-.5-1.2-1.1-2.2-2-3-.9-.8-2-1.4-3.3-1.7-2.9-.8-5.4-.2-7.6,1.7-1.6,1.4-3,4-3.9,7.7-1.2,4.6-1.4,7.9-.4,10,.9,2.1,2.7,3.5,5.2,4.1,2.5.7,4.5.5,6.1-.6,1.6-1,3.1-2.8,4.3-5.3Z"
    />
    <line class="st2" x1="2096.4" y1="720.1" x2="2331.2" y2="783" />
    <line class="st2" x1="2827.7" y1="916" x2="3021.8" y2="968.1" />
    <path
      class="st15"
      d="M2302.6,723.6l-1.8,6.6-6.1,22.7-2.5,9.4-13,48.6,4.8,1.3-26,97,6.8,22.5-2.6,9.7-10.8-2.9c-1.7-.5-2.8-.7-3.6-.6-1.1,0-2.1.7-2.7,1.6-.5.6-.8,1.7-1.2,3.4l-22.7,84.8c-.5,1.7-.7,2.8-.6,3.6,0,1.1.7,2.1,1.6,2.7.6.5,1.7.7,3.4,1.2l84.8,22.7c1.7.5,2.8.8,3.5.7,1.1,0,2.1-.7,2.7-1.6.5-.6.8-1.7,1.2-3.4l22.7-84.8c.5-1.7.7-2.8.6-3.6,0-1.1-.7-2.1-1.6-2.7-.6-.5-1.7-.8-3.4-1.2l-10.8-2.9,2.6-9.7,17.1-16.1,26-97,4.8,1.3,13-48.6,2.5-9.4,6.1-22.7,1.8-6.6-4.8-1.3-1.4,5.4c-25.5-14.2-57.8-22.9-86.9-23.3l1.4-5.4-4.8-1.3Z"
    />
    <path
      class="st8"
      d="M2302.6,723.6l-1.8,6.6-6.1,22.7-2.5,9.4-13,48.6,4.8,1.3-26,97,6.8,22.5-2.6,9.7-10.8-2.9c-1.7-.5-2.8-.7-3.6-.6-1.1,0-2.1.7-2.7,1.6-.5.6-.8,1.7-1.2,3.4l-22.7,84.8c-.5,1.7-.7,2.8-.6,3.6,0,1.1.7,2.1,1.6,2.7.6.5,1.7.7,3.4,1.2l84.8,22.7c1.7.5,2.8.8,3.5.7,1.1,0,2.1-.7,2.7-1.6.5-.6.8-1.7,1.2-3.4l22.7-84.8c.5-1.7.7-2.8.6-3.6,0-1.1-.7-2.1-1.6-2.7-.6-.5-1.7-.8-3.4-1.2l-10.8-2.9,2.6-9.7,17.1-16.1,26-97,4.8,1.3,13-48.6,2.5-9.4,6.1-22.7,1.8-6.6-4.8-1.3-1.4,5.4c-25.5-14.2-57.8-22.9-86.9-23.3l1.4-5.4-4.8-1.3Z"
    />
    <polygon
      class="st3"
      points="2270 978.1 2282.8 981.5 2274.4 1012.8 2294.4 1018.2 2291.7 1028.4 2258.9 1019.6 2270 978.1"
    />
    <path
      class="st18"
      d="M2785.5,853l-1.8,6.6-6.1,22.7-2.5,9.4-13,48.6,4.8,1.3-26,97,6.8,22.5-2.6,9.7-10.8-2.9c-1.7-.5-2.8-.7-3.6-.6-1.1,0-2.1.7-2.7,1.6-.5.6-.8,1.7-1.2,3.4l-22.7,84.8c-.5,1.7-.7,2.8-.6,3.6,0,1.1.7,2.1,1.6,2.7.6.5,1.7.7,3.4,1.2l84.8,22.7c1.7.5,2.8.8,3.5.7,1.1,0,2.1-.7,2.7-1.6.5-.6.8-1.7,1.2-3.4l22.7-84.8c.5-1.7.7-2.8.6-3.6,0-1.1-.7-2.1-1.6-2.7-.6-.5-1.7-.8-3.4-1.2l-10.8-2.9,2.6-9.7,17.1-16.1,26-97,4.8,1.3,13-48.6,2.5-9.4,6.1-22.7,1.8-6.6-4.8-1.3-1.4,5.4c-25.5-14.2-57.8-22.9-86.9-23.3l1.4-5.4-4.8-1.3Z"
    />
    <path
      class="st8"
      d="M2785.5,853l-1.8,6.6-6.1,22.7-2.5,9.4-13,48.6,4.8,1.3-26,97,6.8,22.5-2.6,9.7-10.8-2.9c-1.7-.5-2.8-.7-3.6-.6-1.1,0-2.1.7-2.7,1.6-.5.6-.8,1.7-1.2,3.4l-22.7,84.8c-.5,1.7-.7,2.8-.6,3.6,0,1.1.7,2.1,1.6,2.7.6.5,1.7.7,3.4,1.2l84.8,22.7c1.7.5,2.8.8,3.5.7,1.1,0,2.1-.7,2.7-1.6.5-.6.8-1.7,1.2-3.4l22.7-84.8c.5-1.7.7-2.8.6-3.6,0-1.1-.7-2.1-1.6-2.7-.6-.5-1.7-.8-3.4-1.2l-10.8-2.9,2.6-9.7,17.1-16.1,26-97,4.8,1.3,13-48.6,2.5-9.4,6.1-22.7,1.8-6.6-4.8-1.3-1.4,5.4c-25.5-14.2-57.8-22.9-86.9-23.3l1.4-5.4-4.8-1.3Z"
    />
    <path
      class="st3"
      d="M2758.3,1127l5.4,1.4c.6.2,1.8.3,3.5.3.9,0,1.7-.2,2.4-.7.7-.6,1.2-1.3,1.5-2.2.4-1.3.2-2.5-.4-3.4-.7-.9-2.2-1.7-4.5-2.4l-5.6-1.5-2.3,8.4ZM2738.8,1148.2l11.1-41.5,21.4,5.7c4,1.1,6.9,2.2,8.8,3.5s3.3,3,4.1,5.1c.8,2.2.8,4.6.1,7.2-.6,2.3-1.6,4.2-3.1,5.6-1.4,1.4-3.1,2.4-5.1,3-1.3.4-2.9.5-4.9.4,1.4.9,2.4,1.7,2.9,2.4.4.5.9,1.4,1.5,2.7.6,1.4,1,2.4,1.1,3.1l3,13.7-14.5-3.9-3.5-14.5c-.4-1.9-.9-3.1-1.5-3.8-.8-.9-1.7-1.5-2.9-1.8l-1.1-.3-4.5,16.8-12.9-3.5Z"
    />
    <path
      class="st12"
      d="M2342.3,782.3c1.4,2.4.6,5.4-1.8,6.8-2.4,1.4-5.4.6-6.8-1.8-1.4-2.4-.6-5.4,1.8-6.8,2.4-1.4,5.5-.6,6.8,1.8Z"
    />
    <path
      class="st8"
      d="M2342.3,782.3c1.4,2.4.6,5.4-1.8,6.8-2.4,1.4-5.4.6-6.8-1.8-1.4-2.4-.6-5.4,1.8-6.8,2.4-1.4,5.4-.6,6.8,1.8Z"
    />
    <path
      class="st12"
      d="M2825.2,911.7c1.4,2.4.6,5.4-1.8,6.8-2.4,1.4-5.4.6-6.8-1.8-1.4-2.4-.6-5.4,1.8-6.8,2.4-1.4,5.4-.6,6.8,1.8Z"
    />
    <path
      class="st8"
      d="M2825.2,911.7c1.4,2.4.6,5.4-1.8,6.8-2.4,1.4-5.4.6-6.8-1.8-1.4-2.4-.6-5.4,1.8-6.8,2.4-1.4,5.4-.6,6.8,1.8Z"
    />
    <path
      class="st12"
      d="M2583.5,845.9c2,2,2,5.1,0,7.1-2,2-5.1,2-7.1,0-2-2-2-5.1,0-7.1,2-2,5.1-2,7.1,0Z"
    />
    <path
      class="st9"
      d="M2583.5,845.9c2,2,2,5.1,0,7.1-2,2-5.1,2-7.1,0-2-2-2-5.1,0-7.1,2-2,5.1-2,7.1,0Z"
    />
    <path
      class="st12"
      d="M2333.5,154c2,2,2,5.1,0,7.1-2,2-5.1,2-7.1,0-2-2-2-5.1,0-7.1,2-2,5.1-2,7.1,0Z"
    />
    <path
      class="st9"
      d="M2333.5,154c2,2,2,5.1,0,7.1s-5.1,2-7.1,0c-2-2-2-5.1,0-7.1,2-2,5.1-2,7.1,0Z"
    />
    <path
      class="st12"
      d="M2583.5,154c2,2,2,5.1,0,7.1-2,2-5.1,2-7.1,0-2-2-2-5.1,0-7.1,2-2,5.1-2,7.1,0Z"
    />
    <path
      class="st9"
      d="M2583.5,154c2,2,2,5.1,0,7.1s-5.1,2-7.1,0c-2-2-2-5.1,0-7.1,2-2,5.1-2,7.1,0Z"
    />
    <path
      class="st12"
      d="M2833.5,154c2,2,2,5.1,0,7.1-2,2-5.1,2-7.1,0-2-2-2-5.1,0-7.1,2-2,5.1-2,7.1,0Z"
    />
    <path
      class="st9"
      d="M2833.5,154c2,2,2,5.1,0,7.1s-5.1,2-7.1,0c-2-2-2-5.1,0-7.1,2-2,5.1-2,7.1,0Z"
    />
    <rect
      class="st11"
      x="2229.9"
      y="57.6"
      width="200"
      height="200"
      rx="25"
      ry="25"
    />
    <rect x="2254.9" y="82.6" width="150" height="150" />
    <rect class="st1" x="2279.9" y="132.6" width="25" height="25" />
    <rect class="st1" x="2304.9" y="132.6" width="25" height="25" />
    <rect class="st1" x="2329.9" y="132.6" width="25" height="25" />
    <rect class="st1" x="2354.9" y="132.6" width="25" height="25" />
    <rect class="st1" x="2279.9" y="157.6" width="25" height="25" />
    <rect class="st1" x="2354.9" y="157.6" width="25" height="25" />
    <rect class="st1" x="2279.9" y="182.6" width="25" height="25" />
    <g>
      <polygon
        class="st14"
        points="2354.9 132.6 2329.9 132.6 2304.9 132.6 2279.9 132.6 2279.9 157.6 2279.9 182.6 2279.9 207.6 2304.9 207.6 2304.9 182.6 2304.9 157.6 2329.9 157.6 2354.9 157.6 2354.9 182.6 2379.9 182.6 2379.9 157.6 2379.9 132.6 2354.9 132.6"
      />
      <rect class="st14" x="2329.9" y="182.6" width="25" height="25" />
    </g>
    <rect
      class="st11"
      x="2479.9"
      y="57.6"
      width="200"
      height="200"
      rx="25"
      ry="25"
    />
    <rect x="2504.9" y="82.6" width="150" height="150" />
    <rect class="st1" x="2529.9" y="107.6" width="25" height="25" />
    <rect class="st1" x="2579.9" y="107.6" width="25" height="25" />
    <rect class="st1" x="2604.9" y="107.6" width="25" height="25" />
    <rect class="st1" x="2554.9" y="132.6" width="25" height="25" />
    <rect class="st1" x="2604.9" y="132.6" width="25" height="25" />
    <rect class="st1" x="2579.9" y="157.6" width="25" height="25" />
    <rect class="st1" x="2604.9" y="157.6" width="25" height="25" />
    <g>
      <rect class="st14" x="2529.9" y="107.6" width="25" height="25" />
      <polygon
        class="st14"
        points="2604.9 107.6 2579.9 107.6 2579.9 132.6 2604.9 132.6 2604.9 157.6 2579.9 157.6 2579.9 182.6 2579.9 207.6 2604.9 207.6 2604.9 182.6 2629.9 182.6 2629.9 157.6 2629.9 132.6 2629.9 107.6 2604.9 107.6"
      />
      <rect class="st14" x="2554.9" y="132.6" width="25" height="25" />
    </g>
    <rect class="st1" x="2579.9" y="182.6" width="25" height="25" />
    <rect
      class="st11"
      x="2729.9"
      y="57.6"
      width="200"
      height="200"
      rx="25"
      ry="25"
    />
    <rect x="2754.9" y="82.6" width="150" height="150" />
    <rect class="st1" x="2829.9" y="107.6" width="25" height="25" />
    <rect class="st1" x="2854.9" y="107.6" width="25" height="25" />
    <rect class="st1" x="2829.9" y="132.6" width="25" height="25" />
    <rect class="st1" x="2854.9" y="132.6" width="25" height="25" />
    <rect class="st1" x="2829.9" y="157.6" width="25" height="25" />
    <rect class="st1" x="2779.9" y="182.6" width="25" height="25" />
    <rect class="st1" x="2804.9" y="182.6" width="25" height="25" />
    <polygon
      class="st14"
      points="2854.9 107.6 2829.9 107.6 2829.9 132.6 2829.9 157.6 2829.9 182.6 2854.9 182.6 2854.9 157.6 2879.9 157.6 2879.9 132.6 2879.9 107.6 2854.9 107.6"
    />
    <polygon
      class="st14"
      points="2779.9 182.6 2779.9 207.6 2804.9 207.6 2829.9 207.6 2829.9 182.6 2804.9 182.6 2779.9 182.6"
    />
    <rect class="st14" x="2854.9" y="182.6" width="25" height="25" />
    <rect class="st1" x="2854.9" y="182.6" width="25" height="25" />
    <path
      class="st10"
      d="M2445.2,308l-2.6-1.5c-26.9-13.3-55.1-18.5-84.8-15.6l-3,.4"
    />
    <polygon
      points="2361.9 278.2 2339.9 293.6 2365.4 301.9 2357.7 290.9 2361.9 278.2"
    />
    <polygon
      points="2431.5 314.1 2458.3 315.4 2443.2 293.2 2442.6 306.6 2431.5 314.1"
    />
    <path
      fill="currentColor"
      d="M2392.2,324.7c7.2,0,10.9,5,10.9,14.9s-1.5,12.6-4.4,19.9c-2.9,7.3-6.3,12.7-10,16.3-3.8,3.6-7.6,5.4-11.6,5.4s-5.9-1.4-7.9-4.2c-2-2.8-3.1-6.2-3.1-10.4s.6-6.3,1.8-11,2.9-9.4,5.3-14.2c2.3-4.8,5.3-8.8,8.8-12,3.5-3.2,7-4.8,10.4-4.8ZM2375,353.5c-2.4,7.5-3.6,13.2-3.6,17.2s.5,4.7,1.6,6.4c1.1,1.7,2.7,2.5,4.8,2.5s3.4-.7,4.9-2.1c1.5-1.4,3.3-4.2,5.4-8.5,2.1-4.3,4-9.4,5.8-15.5h-18.9ZM2394.6,351.3c1.7-5.5,2.6-10.8,2.6-16s-1.7-8.9-5-8.9-5.8,2.2-8.7,6.7c-2.8,4.4-5.4,10.5-7.8,18.3h18.9Z"
    />
    <text class="st19" transform="translate(2401.8 386)">
      <tspan x="0" y="0">L</tspan>
    </text>
    <path
      class="st10"
      d="M2690.7,368.2l-2.6-1.5c-26.9-13.3-55.1-18.5-84.8-15.6l-3,.4"
    />
    <polygon
      points="2607.5 338.3 2585.5 353.7 2611 362 2603.3 351.1 2607.5 338.3"
    />
    <polygon
      points="2677 374.2 2703.8 375.5 2688.8 353.3 2688.1 366.7 2677 374.2"
    />
    <path
      class="st10"
      d="M2934.6,426.6l-2.6-1.5c-26.9-13.3-55.1-18.5-84.8-15.6l-3,.4"
    />
    <polygon
      points="2851.3 396.7 2829.4 412.1 2854.9 420.5 2847.2 409.5 2851.3 396.7"
    />
    <polygon
      points="2920.9 432.7 2947.7 433.9 2932.6 411.7 2932 425.1 2920.9 432.7"
    />
    <path
      fill="currentColor"
      d="M2633.3,374.9c7.2,0,10.9,5,10.9,14.9s-1.5,12.6-4.4,19.9c-2.9,7.3-6.3,12.7-10,16.3-3.8,3.6-7.6,5.4-11.6,5.4s-5.9-1.4-7.9-4.2c-2-2.8-3.1-6.2-3.1-10.4s.6-6.3,1.8-11,2.9-9.4,5.3-14.2c2.3-4.8,5.3-8.8,8.8-12,3.5-3.2,7-4.8,10.4-4.8ZM2616.1,403.7c-2.4,7.5-3.6,13.2-3.6,17.2s.5,4.7,1.6,6.4c1.1,1.7,2.7,2.5,4.8,2.5s3.4-.7,4.9-2.1c1.5-1.4,3.3-4.2,5.4-8.5,2.1-4.3,4-9.4,5.8-15.5h-18.9ZM2635.7,401.5c1.7-5.5,2.6-10.8,2.6-16s-1.7-8.9-5-8.9-5.8,2.2-8.7,6.7c-2.8,4.4-5.4,10.5-7.8,18.3h18.9Z"
    />
    <text class="st19" transform="translate(2642.9 436.2)">
      <tspan x="0" y="0">C</tspan>
    </text>
    <path
      fill="currentColor"
      d="M2874.4,429.5c7.2,0,10.9,5,10.9,14.9s-1.5,12.6-4.4,19.9c-2.9,7.3-6.3,12.7-10,16.3-3.8,3.6-7.6,5.4-11.6,5.4s-5.9-1.4-7.9-4.2c-2-2.8-3.1-6.2-3.1-10.4s.6-6.3,1.8-11,2.9-9.4,5.3-14.2c2.3-4.8,5.3-8.8,8.8-12,3.5-3.2,7-4.8,10.4-4.8ZM2857.2,458.3c-2.4,7.5-3.6,13.2-3.6,17.2s.5,4.7,1.6,6.4c1.1,1.7,2.7,2.5,4.8,2.5s3.4-.7,4.9-2.1c1.5-1.4,3.3-4.2,5.4-8.5,2.1-4.3,4-9.4,5.8-15.5h-18.9ZM2876.8,456.1c1.7-5.5,2.6-10.8,2.6-16s-1.7-8.9-5-8.9-5.8,2.2-8.7,6.7c-2.8,4.4-5.4,10.5-7.8,18.3h18.9Z"
    />
    <text class="st19" transform="translate(2884 490.8)">
      <tspan x="0" y="0">R</tspan>
    </text>
    <path class="st2" d="M1387.1,165.4v677.8" />
    <path class="st2" d="M1637.1,165.4v677.8" />
    <path class="st2" d="M1887.1,165.4v677.8" />
    <line class="st2" x1="1137.1" y1="850.2" x2="1380.1" y2="850.2" />
    <path class="st2" d="M1394.1,850.2h236" />
    <path class="st2" d="M1644.1,850.2h236" />
    <line class="st2" x1="1894.1" y1="850.2" x2="2095.1" y2="850.2" />
    <path
      class="st15"
      d="M1337.1,800.2v90.3h5v100.4l12.3,19.9v10.1h-11.2c-1.8,0-2.9,0-3.6.3-1,.4-1.8,1.2-2.2,2.2-.3.7-.3,1.8-.3,3.6v87.8c0,1.8,0,2.9.3,3.6.4,1,1.2,1.8,2.2,2.2.7.3,1.8.3,3.6.3h87.8c1.8,0,2.9,0,3.6-.3,1-.4,1.8-1.2,2.2-2.2.3-.7.3-1.8.3-3.6v-87.8c0-1.8,0-2.9-.3-3.6-.4-1-1.2-1.8-2.2-2.2-.7-.3-1.8-.3-3.6-.3h-11.2v-10.1l12.3-19.9v-100.4h5v-90.3h-5v5.6c-28.3-7.2-61.7-7.2-90,0v-5.6h-5Z"
    />
    <path
      class="st9"
      d="M1337.1,800.2v90.3h5v100.4l12.3,19.9v10.1h-11.2c-1.8,0-2.9,0-3.6.3-1,.4-1.8,1.2-2.2,2.2-.3.7-.3,1.8-.3,3.6v87.8c0,1.8,0,2.9.3,3.6.4,1,1.2,1.8,2.2,2.2.7.3,1.8.3,3.6.3h87.8c1.8,0,2.9,0,3.6-.3,1-.4,1.8-1.2,2.2-2.2.3-.7.3-1.8.3-3.6v-87.8c0-1.8,0-2.9-.3-3.6-.4-1-1.2-1.8-2.2-2.2-.7-.3-1.8-.3-3.6-.3h-11.2v-10.1l12.3-19.9v-100.4h5v-90.3h-5v5.6c-28.3-7.2-61.7-7.2-90,0v-5.6h-5Z"
    />
    <polygon
      class="st4"
      points="1371.5 1054.5 1384.8 1054.5 1384.8 1086.9 1405.5 1086.9 1405.5 1097.4 1371.5 1097.4 1371.5 1054.5"
    />
    <path
      class="st18"
      d="M1837.1,800.2v90.3h5v100.4l12.3,19.9v10.1h-11.2c-1.8,0-2.9,0-3.6.3-1,.4-1.8,1.2-2.2,2.2-.3.7-.3,1.8-.3,3.6v87.8c0,1.8,0,2.9.3,3.6.4,1,1.2,1.8,2.2,2.2.7.3,1.8.3,3.6.3h87.8c1.8,0,2.9,0,3.6-.3,1-.4,1.8-1.2,2.2-2.2.3-.7.3-1.8.3-3.6v-87.8c0-1.8,0-2.9-.3-3.6-.4-1-1.2-1.8-2.2-2.2-.7-.3-1.8-.3-3.6-.3h-11.2v-10.1l12.3-19.9v-100.4h5v-90.3h-5v5.6c-28.3-7.2-61.7-7.2-90,0v-5.6h-5Z"
    />
    <path
      class="st9"
      d="M1837.1,800.2v90.3h5v100.4l12.3,19.9v10.1h-11.2c-1.8,0-2.9,0-3.6.3-1,.4-1.8,1.2-2.2,2.2-.3.7-.3,1.8-.3,3.6v87.8c0,1.8,0,2.9.3,3.6.4,1,1.2,1.8,2.2,2.2.7.3,1.8.3,3.6.3h87.8c1.8,0,2.9,0,3.6-.3,1-.4,1.8-1.2,2.2-2.2.3-.7.3-1.8.3-3.6v-87.8c0-1.8,0-2.9-.3-3.6-.4-1-1.2-1.8-2.2-2.2-.7-.3-1.8-.3-3.6-.3h-11.2v-10.1l12.3-19.9v-100.4h5v-90.3h-5v5.6c-28.3-7.2-61.7-7.2-90,0v-5.6h-5Z"
    />
    <path
      class="st4"
      d="M1881.7,1071.9h5.6c.6,0,1.8-.2,3.5-.6.9-.2,1.6-.6,2.2-1.3.6-.7.8-1.6.8-2.5,0-1.4-.4-2.5-1.3-3.2-.9-.7-2.5-1.1-5-1.1h-5.8v8.7ZM1868.3,1097.4v-42.9h22.1c4.1,0,7.2.4,9.4,1.1s3.9,2,5.2,3.9,2,4.2,2,7-.5,4.4-1.5,6.2c-1,1.7-2.4,3.1-4.2,4.2-1.1.7-2.7,1.2-4.7,1.7,1.6.5,2.7,1.1,3.5,1.6.5.4,1.2,1.1,2.1,2.3.9,1.2,1.5,2,1.9,2.7l6.4,12.5h-15l-7.1-13.1c-.9-1.7-1.7-2.8-2.4-3.3-1-.7-2-1-3.3-1h-1.2v17.4h-13.3Z"
    />
    <path
      class="st21"
      d="M1587.1,800.2v69.9l13.3,19.3v10.7h-7.2c-1.8,0-2.9,0-3.6.3-1,.4-1.8,1.2-2.2,2.2-.3.7-.3,1.8-.3,3.6v87.8c0,1.8,0,2.9.3,3.6.4,1,1.2,1.8,2.2,2.2.7.3,1.8.3,3.6.3h87.8c1.8,0,2.9,0,3.6-.3,1-.4,1.8-1.2,2.2-2.2.3-.7.3-1.8.3-3.6v-87.8c0-1.8,0-2.9-.3-3.6-.4-1-1.2-1.8-2.2-2.2-.7-.3-1.8-.3-3.6-.3h-7.2v-10.7l13.3-19.3v-69.9h-5v5.6c-28.3-7.2-61.7-7.2-90,0v-5.6h-5Z"
    />
    <path
      class="st9"
      d="M1587.1,800.2v69.9l13.3,19.3v10.7h-7.2c-1.8,0-2.9,0-3.6.3-1,.4-1.8,1.2-2.2,2.2-.3.7-.3,1.8-.3,3.6v87.8c0,1.8,0,2.9.3,3.6.4,1,1.2,1.8,2.2,2.2.7.3,1.8.3,3.6.3h87.8c1.8,0,2.9,0,3.6-.3,1-.4,1.8-1.2,2.2-2.2.3-.7.3-1.8.3-3.6v-87.8c0-1.8,0-2.9-.3-3.6-.4-1-1.2-1.8-2.2-2.2-.7-.3-1.8-.3-3.6-.3h-7.2v-10.7l13.3-19.3v-69.9h-5v5.6c-28.3-7.2-61.7-7.2-90,0v-5.6h-5Z"
    />
    <path
      class="st4"
      d="M1646.6,958.9l11.6,3.5c-.8,3.3-2,6-3.7,8.2s-3.8,3.8-6.3,5c-2.5,1.1-5.7,1.7-9.5,1.7s-8.5-.7-11.4-2-5.5-3.7-7.7-7.2c-2.1-3.4-3.2-7.8-3.2-13.1s1.9-12.6,5.7-16.4c3.8-3.8,9.1-5.7,16-5.7s9.7,1.1,12.8,3.3,5.4,5.5,6.9,10.1l-11.7,2.6c-.4-1.3-.8-2.3-1.3-2.9-.7-1-1.7-1.8-2.7-2.3-1.1-.5-2.3-.8-3.6-.8-3,0-5.3,1.2-6.9,3.6-1.2,1.8-1.8,4.6-1.8,8.5s.7,8,2.2,9.8c1.4,1.8,3.5,2.7,6.1,2.7s4.5-.7,5.8-2.1c1.3-1.4,2.2-3.5,2.8-6.2Z"
    />
    <path
      class="st12"
      d="M1390.6,846.7c2,2,2,5.1,0,7.1-2,2-5.1,2-7.1,0-2-2-2-5.1,0-7.1,2-2,5.1-2,7.1,0Z"
    />
    <circle class="st9" cx="1387.1" cy="850.2" r="5" />
    <path
      class="st12"
      d="M1640.6,846.7c2,2,2,5.1,0,7.1-2,2-5.1,2-7.1,0-2-2-2-5.1,0-7.1,2-2,5.1-2,7.1,0Z"
    />
    <circle class="st9" cx="1637.1" cy="850.2" r="5" />
    <path
      class="st12"
      d="M1890.6,846.7c2,2,2,5.1,0,7.1-2,2-5.1,2-7.1,0-2-2-2-5.1,0-7.1,2-2,5.1-2,7.1,0Z"
    />
    <circle class="st9" cx="1887.1" cy="850.2" r="5" />
    <path
      class="st12"
      d="M1390.6,154.8c2,2,2,5.1,0,7.1-2,2-5.1,2-7.1,0s-2-5.1,0-7.1c2-2,5.1-2,7.1,0Z"
    />
    <circle class="st9" cx="1387.1" cy="158.4" r="5" />
    <path
      class="st12"
      d="M1640.6,154.8c2,2,2,5.1,0,7.1-2,2-5.1,2-7.1,0s-2-5.1,0-7.1c2-2,5.1-2,7.1,0Z"
    />
    <circle class="st9" cx="1637.1" cy="158.4" r="5" />
    <path
      class="st12"
      d="M1890.6,154.8c2,2,2,5.1,0,7.1-2,2-5.1,2-7.1,0-2-2-2-5.1,0-7.1,2-2,5.1-2,7.1,0Z"
    />
    <circle class="st9" cx="1887.1" cy="158.4" r="5" />
    <rect
      class="st11"
      x="1287.1"
      y="58.4"
      width="200"
      height="200"
      rx="25"
      ry="25"
    />
    <rect x="1312.1" y="83.4" width="150" height="150" />
    <rect class="st1" x="1337.1" y="133.4" width="25" height="25" />
    <rect class="st1" x="1362.1" y="133.4" width="25" height="25" />
    <rect class="st1" x="1387.1" y="133.4" width="25" height="25" />
    <rect class="st1" x="1412.1" y="133.4" width="25" height="25" />
    <rect class="st1" x="1337.1" y="158.4" width="25" height="25" />
    <rect class="st1" x="1412.1" y="158.4" width="25" height="25" />
    <rect class="st1" x="1337.1" y="183.4" width="25" height="25" />
    <polygon
      class="st14"
      points="1412.1 133.4 1387.1 133.4 1362.1 133.4 1337.1 133.4 1337.1 158.4 1337.1 183.4 1337.1 208.4 1362.1 208.4 1362.1 183.4 1362.1 158.4 1387.1 158.4 1412.1 158.4 1412.1 183.4 1437.1 183.4 1437.1 158.4 1437.1 133.4 1412.1 133.4"
    />
    <rect class="st14" x="1387.1" y="183.4" width="25" height="25" />
    <rect class="st1" x="1387.1" y="183.4" width="25" height="25" />
    <rect
      class="st11"
      x="1537.1"
      y="58.4"
      width="200"
      height="200"
      rx="25"
      ry="25"
    />
    <rect x="1562.1" y="83.4" width="150" height="150" />
    <rect class="st1" x="1587.1" y="108.4" width="25" height="25" />
    <rect class="st1" x="1637.1" y="108.4" width="25" height="25" />
    <rect class="st1" x="1662.1" y="108.4" width="25" height="25" />
    <rect class="st1" x="1612.1" y="133.4" width="25" height="25" />
    <rect class="st1" x="1662.1" y="133.4" width="25" height="25" />
    <rect class="st1" x="1637.1" y="158.4" width="25" height="25" />
    <rect class="st1" x="1662.1" y="158.4" width="25" height="25" />
    <rect class="st14" x="1587.1" y="108.4" width="25" height="25" />
    <polygon
      class="st14"
      points="1662.1 108.4 1637.1 108.4 1637.1 133.4 1662.1 133.4 1662.1 158.4 1637.1 158.4 1637.1 183.4 1637.1 208.4 1662.1 208.4 1662.1 183.4 1687.1 183.4 1687.1 158.4 1687.1 133.4 1687.1 108.4 1662.1 108.4"
    />
    <rect class="st14" x="1612.1" y="133.4" width="25" height="25" />
    <rect class="st1" x="1637.1" y="183.4" width="25" height="25" />
    <rect
      class="st11"
      x="1787.1"
      y="58.4"
      width="200"
      height="200"
      rx="25"
      ry="25"
    />
    <rect x="1812.1" y="83.4" width="150" height="150" />
    <rect class="st1" x="1887.1" y="108.4" width="25" height="25" />
    <rect class="st1" x="1912.1" y="108.4" width="25" height="25" />
    <rect class="st1" x="1887.1" y="133.4" width="25" height="25" />
    <rect class="st1" x="1912.1" y="133.4" width="25" height="25" />
    <rect class="st1" x="1887.1" y="158.4" width="25" height="25" />
    <rect class="st1" x="1837.1" y="183.4" width="25" height="25" />
    <rect class="st1" x="1862.1" y="183.4" width="25" height="25" />
    <polygon
      class="st14"
      points="1912.1 108.4 1887.1 108.4 1887.1 133.4 1887.1 158.4 1887.1 183.4 1912.1 183.4 1912.1 158.4 1937.1 158.4 1937.1 133.4 1937.1 108.4 1912.1 108.4"
    />
    <polygon
      class="st14"
      points="1837.1 183.4 1837.1 208.4 1862.1 208.4 1887.1 208.4 1887.1 183.4 1862.1 183.4 1837.1 183.4"
    />
    <rect class="st14" x="1912.1" y="183.4" width="25" height="25" />
    <rect class="st1" x="1912.1" y="183.4" width="25" height="25" />
    <path class="st10" d="M1422.2,589.5h180.2" />
    <polygon
      points="1593.5 601.5 1617.5 589.5 1593.5 577.5 1599.5 589.5 1593.5 601.5"
    />
    <polygon
      points="1431.2 577.5 1407.2 589.5 1431.2 601.5 1425.2 589.5 1431.2 577.5"
    />
    <text class="st20" transform="translate(1491.8 563.2)">
      <tspan x="0" y="0">d</tspan>
    </text>
    <path class="st10" d="M1671.7,589.5h180.2" />
    <polygon points="1843 601.5 1867 589.5 1843 577.5 1849 589.5 1843 601.5" />
    <polygon
      points="1680.7 577.5 1656.7 589.5 1680.7 601.5 1674.7 589.5 1680.7 577.5"
    />
    <text class="st20" transform="translate(1741.4 563.2)">
      <tspan x="0" y="0">d</tspan>
    </text>
    <text class="st20" transform="translate(1147.8 527.3)">
      <tspan x="0" y="0">D</tspan>
    </text>
    <polyline
      class="st10"
      points="1226.7 175.6 1226.7 178.6 1226.9 826.2 1226.9 829.2"
    />
    <polygon
      points="1214.9 820.2 1226.9 844.2 1238.9 820.2 1226.9 826.2 1214.9 820.2"
    />
    <polygon
      points="1238.7 184.6 1226.6 160.6 1214.7 184.6 1226.7 178.6 1238.7 184.6"
    />
    <rect class="st0" x="1214.7" y="160.6" width="24.3" height="683.6" />
  </g>
</svg>
